<svg width="428" height="166" viewBox="0 0 428 166" fill="none" xmlns="http://www.w3.org/2000/svg">
<path d="M110.492 54.3689H98.2077V45.5835H110.492V54.3689ZM99.2685 53.3066H109.431V46.6458H99.2685V53.3066Z" fill="#F0F0F0"/>
<path d="M107.453 46.6512H100.955C100.814 46.6512 100.68 46.5952 100.58 46.4956C100.481 46.396 100.425 46.2609 100.425 46.12V2.84633C100.425 2.70546 100.481 2.57036 100.58 2.47074C100.68 2.37113 100.814 2.31517 100.955 2.31517H107.453C107.593 2.31517 107.728 2.37113 107.828 2.47074C107.927 2.57036 107.983 2.70546 107.983 2.84633V46.12C107.983 46.2609 107.927 46.396 107.828 46.4956C107.728 46.5952 107.593 46.6512 107.453 46.6512ZM101.486 45.5888H106.922V3.37749H101.486V45.5888Z" fill="#F0F0F0"/>
<path d="M100.95 14.1972C100.84 14.1966 100.734 14.162 100.644 14.0982C100.555 14.0344 100.488 13.9444 100.452 13.8408C100.416 13.7372 100.413 13.6249 100.443 13.5194C100.473 13.4139 100.536 13.3204 100.621 13.2518L106.62 8.41821L100.605 3.25002C100.498 3.15774 100.432 3.02672 100.422 2.88577C100.411 2.74482 100.457 2.60549 100.549 2.49842C100.642 2.39136 100.772 2.32534 100.913 2.31488C101.054 2.30442 101.193 2.35038 101.3 2.44265L107.787 8.02515C107.846 8.07618 107.894 8.1398 107.926 8.21144C107.958 8.28308 107.974 8.36095 107.972 8.43946C107.97 8.51744 107.951 8.59403 107.917 8.6638C107.882 8.73357 107.832 8.7948 107.771 8.84314L101.284 14.0804C101.189 14.1565 101.071 14.1978 100.95 14.1972Z" fill="#F0F0F0"/>
<path d="M100.95 25.0117C100.846 25.0053 100.747 24.9687 100.664 24.9063C100.581 24.8439 100.518 24.7585 100.483 24.6607C100.448 24.5629 100.443 24.457 100.467 24.3561C100.492 24.2551 100.545 24.1636 100.621 24.0928L106.62 19.2592L100.605 14.0645C100.55 14.0195 100.505 13.964 100.471 13.9011C100.438 13.8382 100.418 13.7693 100.412 13.6985C100.406 13.6276 100.414 13.5562 100.436 13.4886C100.458 13.4209 100.493 13.3584 100.539 13.3046C100.586 13.2509 100.643 13.2071 100.707 13.1758C100.77 13.1445 100.84 13.1263 100.911 13.1224C100.982 13.1184 101.053 13.1288 101.12 13.1529C101.186 13.1769 101.248 13.2142 101.3 13.2624L107.787 18.8449C107.847 18.8948 107.895 18.9573 107.928 19.0279C107.961 19.0986 107.979 19.1758 107.979 19.2539C107.979 19.332 107.961 19.4092 107.928 19.4799C107.895 19.5506 107.847 19.6131 107.787 19.6629L101.284 24.8948C101.189 24.971 101.071 25.0122 100.95 25.0117Z" fill="#F0F0F0"/>
<path d="M100.95 35.8314C100.84 35.8308 100.734 35.7962 100.644 35.7324C100.555 35.6685 100.488 35.5786 100.452 35.475C100.416 35.3714 100.413 35.2591 100.443 35.1536C100.473 35.0481 100.536 34.9546 100.621 34.886L106.62 30.0524L100.605 24.8842C100.52 24.7873 100.473 24.6625 100.472 24.5332C100.472 24.404 100.519 24.2791 100.604 24.1821C100.69 24.085 100.807 24.0224 100.935 24.0059C101.063 23.9895 101.193 24.0204 101.3 24.0928L107.787 29.6593C107.845 29.7115 107.892 29.7753 107.924 29.8467C107.955 29.9181 107.972 29.9954 107.972 30.0736C107.971 30.1486 107.953 30.2223 107.921 30.2901C107.89 30.3578 107.844 30.418 107.787 30.4667L101.284 35.7146C101.189 35.7907 101.071 35.8319 100.95 35.8314Z" fill="#F0F0F0"/>
<path d="M100.95 46.6458C100.871 46.6461 100.792 46.6286 100.721 46.5946C100.649 46.5606 100.586 46.5109 100.536 46.4493C100.449 46.3392 100.41 46.1993 100.426 46.06C100.441 45.9207 100.512 45.7933 100.621 45.7057L106.62 40.8668L100.605 35.7039C100.552 35.6582 100.509 35.6026 100.477 35.5401C100.446 35.4776 100.427 35.4095 100.422 35.3397C100.417 35.2699 100.425 35.1998 100.447 35.1333C100.469 35.0668 100.504 35.0054 100.549 34.9523C100.595 34.8993 100.651 34.8558 100.713 34.8243C100.775 34.7928 100.843 34.774 100.913 34.7688C100.983 34.7636 101.053 34.7722 101.119 34.7942C101.186 34.8161 101.247 34.8509 101.3 34.8966L107.787 40.4791C107.846 40.5295 107.893 40.5923 107.925 40.6629C107.957 40.7336 107.973 40.8105 107.972 40.8881C107.971 40.9669 107.952 41.0446 107.918 41.1153C107.883 41.1861 107.833 41.2482 107.771 41.2971L101.284 46.529C101.189 46.6051 101.071 46.6464 100.95 46.6458Z" fill="#F0F0F0"/>
<path d="M100.955 11.9398H92.9356C92.7949 11.9398 92.66 11.8839 92.5605 11.7842C92.461 11.6846 92.4052 11.5495 92.4052 11.4087V6.87255C92.4052 6.73167 92.461 6.59657 92.5605 6.49696C92.66 6.39735 92.7949 6.34138 92.9356 6.34138H100.955C101.096 6.34138 101.231 6.39735 101.33 6.49696C101.43 6.59657 101.486 6.73167 101.486 6.87255V11.4087C101.486 11.5495 101.43 11.6846 101.33 11.7842C101.231 11.8839 101.096 11.9398 100.955 11.9398ZM93.4659 10.8775H100.425V7.40371H93.4659V10.8775Z" fill="#F0F0F0"/>
<path d="M136.147 11.9398H107.453C107.312 11.9398 107.177 11.8839 107.077 11.7842C106.978 11.6846 106.922 11.5495 106.922 11.4087V6.87255C106.922 6.73167 106.978 6.59657 107.077 6.49696C107.177 6.39735 107.312 6.34138 107.453 6.34138H136.147C136.288 6.34138 136.423 6.39735 136.522 6.49696C136.622 6.59657 136.678 6.73167 136.678 6.87255V11.4087C136.678 11.5495 136.622 11.6846 136.522 11.7842C136.423 11.8839 136.288 11.9398 136.147 11.9398ZM107.983 10.8775H135.617V7.40371H107.983V10.8775Z" fill="#F0F0F0"/>
<path d="M130.594 11.9451C130.465 11.9449 130.34 11.8977 130.244 11.8123L125.014 7.27621C124.913 7.18258 124.852 7.05314 124.844 6.91532C124.837 6.77749 124.883 6.6421 124.973 6.53784C125.063 6.43357 125.191 6.36861 125.328 6.35672C125.465 6.34484 125.602 6.38696 125.709 6.47416L130.604 10.7234L135.829 6.47416C135.938 6.3847 136.078 6.34228 136.218 6.35623C136.358 6.37017 136.487 6.43934 136.577 6.54852C136.666 6.6577 136.708 6.79794 136.694 6.93839C136.681 7.07884 136.611 7.208 136.502 7.29746L130.907 11.8283C130.817 11.8978 130.707 11.9385 130.594 11.9451Z" fill="#F0F0F0"/>
<path d="M119.768 11.9451C119.64 11.9449 119.515 11.8977 119.418 11.8123L114.194 7.27621C114.139 7.23128 114.093 7.17573 114.06 7.11285C114.027 7.04998 114.007 6.98106 114.001 6.9102C113.994 6.83933 114.003 6.76795 114.025 6.70031C114.047 6.63266 114.082 6.57011 114.128 6.51638C114.175 6.46265 114.232 6.41883 114.296 6.38752C114.359 6.35621 114.429 6.33805 114.5 6.33411C114.571 6.33017 114.642 6.34054 114.708 6.3646C114.775 6.38866 114.837 6.42591 114.889 6.47416L119.779 10.7234L125.009 6.47416C125.117 6.3861 125.256 6.34452 125.395 6.35844C125.534 6.37237 125.662 6.44067 125.751 6.54852C125.796 6.60253 125.829 6.66477 125.849 6.73168C125.87 6.79859 125.876 6.86885 125.87 6.93843C125.863 7.00802 125.842 7.07555 125.809 7.13716C125.776 7.19877 125.731 7.25325 125.677 7.29746L120.103 11.8283C120.008 11.9044 119.89 11.9456 119.768 11.9451Z" fill="#F0F0F0"/>
<path d="M108.964 11.9451C108.886 11.9446 108.809 11.9267 108.738 11.8927C108.667 11.8587 108.605 11.8095 108.556 11.7486C108.511 11.6946 108.478 11.6323 108.458 11.5654C108.438 11.4985 108.431 11.4283 108.438 11.3587C108.444 11.2891 108.465 11.2216 108.498 11.16C108.531 11.0983 108.576 11.0439 108.63 10.9997L114.205 6.46354C114.258 6.41542 114.321 6.37867 114.389 6.35554C114.457 6.33241 114.529 6.32337 114.6 6.32898C114.672 6.33458 114.742 6.35471 114.806 6.38815C114.869 6.42158 114.925 6.46762 114.971 6.52348C115.016 6.57933 115.05 6.64383 115.069 6.71305C115.089 6.78228 115.094 6.85479 115.085 6.92618C115.076 6.99757 115.053 7.06636 115.016 7.12835C114.98 7.19035 114.931 7.24427 114.873 7.28684L109.298 11.8283C109.204 11.9044 109.086 11.9456 108.964 11.9451Z" fill="#F0F0F0"/>
<path d="M98.1652 11.9451C98.0363 11.9449 97.9119 11.8977 97.8152 11.8123L92.5855 7.27622C92.5329 7.23019 92.4898 7.17423 92.4589 7.11154C92.4279 7.04886 92.4095 6.98067 92.4048 6.91088C92.4001 6.84109 92.4092 6.77105 92.4316 6.70478C92.4539 6.63851 92.4891 6.57729 92.5351 6.52463C92.581 6.47197 92.6369 6.42889 92.6995 6.39785C92.7621 6.36681 92.8302 6.34843 92.8999 6.34374C92.9696 6.33906 93.0395 6.34816 93.1057 6.37054C93.1719 6.39292 93.233 6.42813 93.2856 6.47417L98.51 11.0103C98.6162 11.1026 98.6814 11.2333 98.6913 11.3738C98.7013 11.5142 98.6551 11.6528 98.563 11.7592C98.5138 11.8168 98.4529 11.8633 98.3843 11.8953C98.3156 11.9274 98.241 11.9444 98.1652 11.9451Z" fill="#F0F0F0"/>
<path d="M139.001 44.4256H122.484C122.343 44.4256 122.208 44.3696 122.109 44.27C122.01 44.1704 121.954 44.0353 121.954 43.8944V27.3488C121.954 27.2079 122.01 27.0728 122.109 26.9732C122.208 26.8736 122.343 26.8176 122.484 26.8176H139.001C139.141 26.8176 139.276 26.8736 139.376 26.9732C139.475 27.0728 139.531 27.2079 139.531 27.3488V43.8944C139.531 44.0353 139.475 44.1704 139.376 44.27C139.276 44.3696 139.141 44.4256 139.001 44.4256ZM123.014 43.3633H138.47V27.8799H123.014V43.3633Z" fill="#F0F0F0"/>
<path d="M139.001 27.8799H122.484C122.365 27.8843 122.248 27.8485 122.152 27.7781C122.056 27.7078 121.986 27.6071 121.954 27.4922C121.923 27.3811 121.929 27.263 121.971 27.1556C122.013 27.0483 122.089 26.9576 122.187 26.8973L130.445 21.83C130.526 21.7834 130.617 21.7589 130.711 21.7589C130.804 21.7589 130.895 21.7834 130.976 21.83L139.234 26.8973C139.332 26.9576 139.408 27.0483 139.45 27.1556C139.492 27.263 139.498 27.3811 139.467 27.4922C139.439 27.5968 139.378 27.6901 139.295 27.7595C139.211 27.8288 139.109 27.8708 139.001 27.8799ZM124.367 26.8176H137.097L130.732 22.903L124.367 26.8176Z" fill="#F0F0F0"/>
<path d="M135.479 40.8934H126.011C125.871 40.8934 125.736 40.8374 125.636 40.7378C125.537 40.6382 125.481 40.5031 125.481 40.3622V30.881C125.481 30.7401 125.537 30.605 125.636 30.5054C125.736 30.4058 125.871 30.3499 126.011 30.3499H135.479C135.619 30.3499 135.754 30.4058 135.854 30.5054C135.953 30.605 136.009 30.7401 136.009 30.881V40.3622C136.009 40.5031 135.953 40.6382 135.854 40.7378C135.754 40.8374 135.619 40.8934 135.479 40.8934ZM126.542 39.8311H134.948V31.4122H126.542V39.8311Z" fill="#F0F0F0"/>
<path d="M130.748 22.8127C130.607 22.8127 130.472 22.7567 130.373 22.6571C130.273 22.5575 130.217 22.4224 130.217 22.2815V11.414C130.217 11.2731 130.273 11.138 130.373 11.0384C130.472 10.9388 130.607 10.8828 130.748 10.8828C130.888 10.8828 131.023 10.9388 131.123 11.0384C131.222 11.138 131.278 11.2731 131.278 11.414V22.2815C131.278 22.4224 131.222 22.5575 131.123 22.6571C131.023 22.7567 130.888 22.8127 130.748 22.8127Z" fill="#F0F0F0"/>
<path d="M384.793 52.0555H397.077V43.2701H384.793V52.0555ZM396.017 50.9932H385.854V44.3324H396.017V50.9932Z" fill="#F0F0F0"/>
<path d="M387.833 44.3378H394.33C394.471 44.3378 394.606 44.2818 394.705 44.1822C394.804 44.0826 394.86 43.9475 394.86 43.8066V0.532916C394.86 0.392043 394.804 0.25694 394.705 0.157328C394.606 0.0577163 394.471 0.00175476 394.33 0.00175476H387.833C387.692 0.00175476 387.557 0.0577163 387.458 0.157328C387.358 0.25694 387.302 0.392043 387.302 0.532916V43.8066C387.302 43.9475 387.358 44.0826 387.458 44.1822C387.557 44.2818 387.692 44.3378 387.833 44.3378ZM393.8 43.2754H388.363V1.06408H393.8V43.2754Z" fill="#F0F0F0"/>
<path d="M394.335 11.8838C394.445 11.8832 394.552 11.8486 394.641 11.7848C394.73 11.7209 394.797 11.631 394.833 11.5274C394.869 11.4238 394.872 11.3115 394.842 11.206C394.812 11.1005 394.75 11.007 394.664 10.9384L388.665 6.1048L394.68 0.936601C394.787 0.844329 394.853 0.713306 394.863 0.572355C394.874 0.431404 394.828 0.292071 394.736 0.185008C394.644 0.0779449 394.513 0.0119216 394.372 0.00146235C394.231 -0.00899691 394.092 0.0369646 393.985 0.129236L387.498 5.71174C387.439 5.76276 387.391 5.82638 387.359 5.89802C387.327 5.96966 387.311 6.04754 387.313 6.12604C387.315 6.20402 387.334 6.28062 387.369 6.35039C387.403 6.42016 387.453 6.48139 387.514 6.52973L394.001 11.767C394.096 11.8431 394.214 11.8843 394.335 11.8838Z" fill="#F0F0F0"/>
<path d="M394.335 22.6983C394.439 22.6919 394.538 22.6552 394.621 22.5929C394.704 22.5305 394.767 22.4451 394.802 22.3473C394.837 22.2495 394.843 22.1436 394.818 22.0426C394.794 21.9417 394.74 21.8502 394.664 21.7794L388.665 16.9458L394.68 11.7511C394.735 11.7061 394.781 11.6506 394.814 11.5877C394.847 11.5248 394.867 11.4559 394.873 11.385C394.88 11.3142 394.871 11.2428 394.849 11.1751C394.827 11.1075 394.792 11.045 394.746 10.9912C394.699 10.9375 394.642 10.8937 394.578 10.8624C394.515 10.8311 394.445 10.8129 394.374 10.809C394.303 10.805 394.232 10.8154 394.166 10.8394C394.099 10.8635 394.037 10.9008 393.985 10.949L387.498 16.5315C387.438 16.5813 387.39 16.6438 387.357 16.7145C387.324 16.7852 387.306 16.8624 387.306 16.9405C387.306 17.0186 387.324 17.0958 387.357 17.1665C387.39 17.2372 387.438 17.2996 387.498 17.3495L394.001 22.5814C394.096 22.6575 394.214 22.6988 394.335 22.6983Z" fill="#F0F0F0"/>
<path d="M394.335 33.518C394.445 33.5174 394.552 33.4828 394.641 33.4189C394.73 33.3551 394.797 33.2652 394.833 33.1616C394.869 33.0579 394.872 32.9457 394.842 32.8402C394.812 32.7347 394.75 32.6412 394.664 32.5725L388.665 27.739L394.68 22.5708C394.765 22.4739 394.813 22.3491 394.813 22.2198C394.813 22.0906 394.766 21.9657 394.681 21.8686C394.595 21.7716 394.478 21.709 394.35 21.6925C394.222 21.6761 394.092 21.707 393.985 21.7794L387.498 27.3459C387.44 27.3981 387.394 27.4619 387.362 27.5333C387.33 27.6047 387.313 27.682 387.313 27.7602C387.314 27.8351 387.332 27.9089 387.364 27.9767C387.396 28.0444 387.442 28.1046 387.498 28.1533L394.001 33.4012C394.096 33.4773 394.214 33.5185 394.335 33.518Z" fill="#F0F0F0"/>
<path d="M394.335 44.3324C394.414 44.3327 394.493 44.3152 394.564 44.2812C394.636 44.2472 394.699 44.1975 394.749 44.1359C394.836 44.0258 394.875 43.8859 394.86 43.7466C394.844 43.6073 394.773 43.4799 394.664 43.3923L388.665 38.5534L394.68 33.3905C394.733 33.3448 394.776 33.2891 394.808 33.2267C394.839 33.1642 394.858 33.0961 394.863 33.0263C394.868 32.9565 394.86 32.8864 394.838 32.8199C394.816 32.7534 394.781 32.6919 394.736 32.6389C394.69 32.5859 394.634 32.5424 394.572 32.5109C394.51 32.4794 394.442 32.4606 394.372 32.4554C394.302 32.4502 394.232 32.4588 394.166 32.4807C394.1 32.5027 394.038 32.5375 393.985 32.5832L387.498 38.1657C387.439 38.2161 387.392 38.2789 387.36 38.3495C387.328 38.4202 387.312 38.497 387.313 38.5747C387.314 38.6535 387.333 38.7312 387.367 38.8019C387.402 38.8727 387.452 38.9347 387.514 38.9836L394.001 44.2156C394.096 44.2917 394.214 44.3329 394.335 44.3324Z" fill="#F0F0F0"/>
<path d="M394.33 9.62641H402.35C402.49 9.62641 402.625 9.57044 402.725 9.47083C402.824 9.37122 402.88 9.23612 402.88 9.09524V4.55913C402.88 4.41826 402.824 4.28315 402.725 4.18354C402.625 4.08393 402.49 4.02797 402.35 4.02797H394.33C394.189 4.02797 394.054 4.08393 393.955 4.18354C393.855 4.28315 393.8 4.41826 393.8 4.55913V9.09524C393.8 9.23612 393.855 9.37122 393.955 9.47083C394.054 9.57044 394.189 9.62641 394.33 9.62641ZM401.819 8.56408H394.86V5.09029H401.819V8.56408Z" fill="#F0F0F0"/>
<path d="M359.138 9.62641H387.833C387.973 9.62641 388.108 9.57044 388.208 9.47083C388.307 9.37122 388.363 9.23612 388.363 9.09524V4.55913C388.363 4.41826 388.307 4.28315 388.208 4.18354C388.108 4.08393 387.973 4.02797 387.833 4.02797H359.138C358.997 4.02797 358.862 4.08393 358.763 4.18354C358.663 4.28315 358.608 4.41826 358.608 4.55913V9.09524C358.608 9.23612 358.663 9.37122 358.763 9.47083C358.862 9.57044 358.997 9.62641 359.138 9.62641ZM387.302 8.56408H359.668V5.09029H387.302V8.56408Z" fill="#F0F0F0"/>
<path d="M364.691 9.6317C364.82 9.63151 364.945 9.58431 365.041 9.49891L370.271 4.96279C370.372 4.86917 370.433 4.73973 370.441 4.6019C370.449 4.46408 370.402 4.32869 370.312 4.22442C370.222 4.12015 370.094 4.05519 369.957 4.04331C369.82 4.03142 369.683 4.07354 369.576 4.16074L364.681 8.41003L359.456 4.16074C359.347 4.07129 359.207 4.02887 359.067 4.04281C358.927 4.05676 358.798 4.12593 358.708 4.2351C358.619 4.34428 358.577 4.48452 358.591 4.62497C358.605 4.76543 358.674 4.89459 358.783 4.98404L364.378 9.51484C364.469 9.58435 364.578 9.62506 364.691 9.6317Z" fill="#F0F0F0"/>
<path d="M375.517 9.6317C375.646 9.63152 375.77 9.58431 375.867 9.49891L381.091 4.9628C381.146 4.91786 381.192 4.86231 381.225 4.79944C381.258 4.73656 381.278 4.66765 381.285 4.59678C381.291 4.52591 381.282 4.45454 381.261 4.38689C381.239 4.31924 381.203 4.2567 381.157 4.20297C381.11 4.14924 381.053 4.10542 380.99 4.07411C380.926 4.0428 380.856 4.02463 380.785 4.0207C380.715 4.01676 380.644 4.02713 380.577 4.05118C380.51 4.07524 380.449 4.1125 380.396 4.16074L375.506 8.41003L370.276 4.16074C370.168 4.07269 370.029 4.0311 369.89 4.04503C369.751 4.05895 369.623 4.12726 369.534 4.23511C369.489 4.28911 369.456 4.35135 369.436 4.41826C369.416 4.48517 369.409 4.55544 369.416 4.62502C369.422 4.6946 369.443 4.76214 369.476 4.82375C369.509 4.88536 369.554 4.93983 369.608 4.98404L375.183 9.51485C375.277 9.59096 375.395 9.63221 375.517 9.6317Z" fill="#F0F0F0"/>
<path d="M386.321 9.63171C386.399 9.63119 386.477 9.61329 386.547 9.57931C386.618 9.54533 386.68 9.49611 386.729 9.43518C386.774 9.38117 386.807 9.31893 386.827 9.25202C386.848 9.18511 386.854 9.11485 386.848 9.04527C386.841 8.97568 386.82 8.90815 386.787 8.84654C386.754 8.78493 386.709 8.73045 386.655 8.68624L381.081 4.15013C381.027 4.102 380.964 4.06526 380.896 4.04212C380.828 4.01899 380.756 4.00995 380.685 4.01556C380.613 4.02116 380.543 4.0413 380.48 4.07473C380.416 4.10817 380.36 4.15421 380.314 4.21006C380.269 4.26591 380.236 4.33041 380.216 4.39964C380.196 4.46886 380.191 4.54137 380.2 4.61277C380.209 4.68416 380.233 4.75294 380.269 4.81494C380.306 4.87694 380.354 4.93086 380.412 4.97343L385.987 9.51485C386.082 9.59097 386.199 9.63222 386.321 9.63171Z" fill="#F0F0F0"/>
<path d="M397.12 9.63171C397.249 9.63153 397.373 9.58432 397.47 9.49892L402.7 4.96281C402.752 4.91677 402.795 4.86081 402.826 4.79813C402.857 4.73544 402.876 4.66725 402.88 4.59746C402.885 4.52767 402.876 4.45764 402.854 4.39137C402.831 4.32509 402.796 4.26388 402.75 4.21122C402.704 4.15855 402.648 4.11547 402.586 4.08443C402.523 4.0534 402.455 4.03501 402.385 4.03033C402.316 4.02564 402.246 4.03475 402.179 4.05713C402.113 4.0795 402.052 4.11472 402 4.16076L396.775 8.69687C396.669 8.78918 396.604 8.91991 396.594 9.06034C396.584 9.20078 396.63 9.33942 396.722 9.44581C396.771 9.50343 396.832 9.54984 396.901 9.58191C396.969 9.61397 397.044 9.63095 397.12 9.63171Z" fill="#F0F0F0"/>
<path d="M356.284 42.1122H372.801C372.942 42.1122 373.077 42.0562 373.176 41.9566C373.276 41.857 373.331 41.7219 373.331 41.581V25.0354C373.331 24.8945 373.276 24.7594 373.176 24.6598C373.077 24.5602 372.942 24.5042 372.801 24.5042H356.284C356.144 24.5042 356.009 24.5602 355.909 24.6598C355.81 24.7594 355.754 24.8945 355.754 25.0354V41.581C355.754 41.7219 355.81 41.857 355.909 41.9566C356.009 42.0562 356.144 42.1122 356.284 42.1122ZM372.271 41.0499H356.815V25.5665H372.271V41.0499Z" fill="#F0F0F0"/>
<path d="M356.284 25.5665H372.801C372.92 25.5709 373.037 25.5351 373.133 25.4647C373.23 25.3944 373.299 25.2937 373.331 25.1788C373.362 25.0677 373.356 24.9496 373.314 24.8422C373.272 24.7349 373.196 24.6442 373.098 24.5839L364.84 19.5166C364.759 19.47 364.668 19.4454 364.575 19.4454C364.481 19.4454 364.39 19.47 364.309 19.5166L356.051 24.5839C355.953 24.6442 355.877 24.7349 355.835 24.8422C355.793 24.9496 355.787 25.0677 355.818 25.1788C355.847 25.2834 355.907 25.3767 355.99 25.446C356.074 25.5154 356.176 25.5574 356.284 25.5665ZM370.918 24.5042H358.189L364.553 20.5895L370.918 24.5042Z" fill="#F0F0F0"/>
<path d="M359.806 38.58H369.274C369.415 38.58 369.55 38.524 369.649 38.4244C369.748 38.3248 369.804 38.1897 369.804 38.0488V28.5676C369.804 28.4267 369.748 28.2916 369.649 28.192C369.55 28.0924 369.415 28.0364 369.274 28.0364H359.806C359.666 28.0364 359.531 28.0924 359.431 28.192C359.332 28.2916 359.276 28.4267 359.276 28.5676V38.0488C359.276 38.1897 359.332 38.3248 359.431 38.4244C359.531 38.524 359.666 38.58 359.806 38.58ZM368.744 37.5177H360.337V29.0988H368.744V37.5177Z" fill="#F0F0F0"/>
<path d="M364.537 20.4993C364.678 20.4993 364.813 20.4433 364.913 20.3437C365.012 20.2441 365.068 20.109 365.068 19.9681V9.10054C365.068 8.95967 365.012 8.82457 364.913 8.72496C364.813 8.62534 364.678 8.56938 364.537 8.56938C364.397 8.56938 364.262 8.62534 364.162 8.72496C364.063 8.82457 364.007 8.95967 364.007 9.10054V19.9681C364.007 20.109 364.063 20.2441 364.162 20.3437C364.262 20.4433 364.397 20.4993 364.537 20.4993Z" fill="#F0F0F0"/>
<path d="M9.80268 62.6764H5.5368V66.9484H9.80268V62.6764Z" fill="#F0F0F0"/>
<path d="M17.8427 62.6764H13.5756V66.9484H17.8427V62.6764Z" fill="#F0F0F0"/>
<path d="M25.8815 62.6764H21.6169V66.9484H25.8815V62.6764Z" fill="#F0F0F0"/>
<path d="M9.80268 70.0698H5.5368V74.3418H9.80268V70.0698Z" fill="#F0F0F0"/>
<path d="M17.8427 70.0698H13.5756V74.3418H17.8427V70.0698Z" fill="#F0F0F0"/>
<path d="M25.8815 70.0698H21.6169V74.3418H25.8815V70.0698Z" fill="#F0F0F0"/>
<path d="M9.80268 77.4632H5.5368V81.7339H9.80268V77.4632Z" fill="#F0F0F0"/>
<path d="M17.8427 77.4632H13.5756V81.7339H17.8427V77.4632Z" fill="#F0F0F0"/>
<path d="M25.8815 77.4632H21.6169V81.7339H25.8815V77.4632Z" fill="#F0F0F0"/>
<path d="M9.80268 84.8566H5.5368V89.1286H9.80268V84.8566Z" fill="#F0F0F0"/>
<path d="M17.8427 84.8566H13.5756V89.1286H17.8427V84.8566Z" fill="#F0F0F0"/>
<path d="M25.8815 84.8566H21.6169V89.1286H25.8815V84.8566Z" fill="#F0F0F0"/>
<path d="M9.80268 92.25H5.5368V96.522H9.80268V92.25Z" fill="#F0F0F0"/>
<path d="M17.8427 92.25H13.5756V96.522H17.8427V92.25Z" fill="#F0F0F0"/>
<path d="M25.8815 92.25H21.6169V96.522H25.8815V92.25Z" fill="#F0F0F0"/>
<path d="M9.80268 99.6434H5.5368V103.917H9.80268V99.6434Z" fill="#F0F0F0"/>
<path d="M17.8427 99.6434H13.5756V103.917H17.8427V99.6434Z" fill="#F0F0F0"/>
<path d="M25.8815 99.6434H21.6169V103.917H25.8815V99.6434Z" fill="#F0F0F0"/>
<path d="M9.80268 107.037H5.5368V111.31H9.80268V107.037Z" fill="#F0F0F0"/>
<path d="M17.8427 107.037H13.5756V111.31H17.8427V107.037Z" fill="#F0F0F0"/>
<path d="M25.8815 107.037H21.6169V111.31H25.8815V107.037Z" fill="#F0F0F0"/>
<path d="M9.80268 114.431H5.5368V118.703H9.80268V114.431Z" fill="#F0F0F0"/>
<path d="M17.8427 114.431H13.5756V118.703H17.8427V114.431Z" fill="#F0F0F0"/>
<path d="M25.8815 114.431H21.6169V118.703H25.8815V114.431Z" fill="#F0F0F0"/>
<path d="M9.80268 121.825H5.5368V126.097H9.80268V121.825Z" fill="#F0F0F0"/>
<path d="M17.8427 121.825H13.5756V126.097H17.8427V121.825Z" fill="#F0F0F0"/>
<path d="M25.8815 121.825H21.6169V126.097H25.8815V121.825Z" fill="#F0F0F0"/>
<path d="M9.80268 129.217H5.5368V133.489H9.80268V129.217Z" fill="#F0F0F0"/>
<path d="M17.8427 129.217H13.5756V133.489H17.8427V129.217Z" fill="#F0F0F0"/>
<path d="M25.8815 129.217H21.6169V133.489H25.8815V129.217Z" fill="#F0F0F0"/>
<path d="M9.80268 136.612H5.5368V140.885H9.80268V136.612Z" fill="#F0F0F0"/>
<path d="M17.8427 136.612H13.5756V140.885H17.8427V136.612Z" fill="#F0F0F0"/>
<path d="M25.8815 136.612H21.6169V140.885H25.8815V136.612Z" fill="#F0F0F0"/>
<path d="M9.80268 144.004H5.5368V148.277H9.80268V144.004Z" fill="#F0F0F0"/>
<path d="M17.8427 144.004H13.5756V148.277H17.8427V144.004Z" fill="#F0F0F0"/>
<path d="M25.8815 144.004H21.6169V148.277H25.8815V144.004Z" fill="#F0F0F0"/>
<path d="M9.80268 151.398H5.5368V155.672H9.80268V151.398Z" fill="#F0F0F0"/>
<path d="M17.8427 151.398H13.5756V160.599H17.8427V151.398Z" fill="#F0F0F0"/>
<path d="M25.8815 151.398H21.6169V155.672H25.8815V151.398Z" fill="#F0F0F0"/>
<path d="M67.7173 77.4632H63.4515V81.7339H67.7173V77.4632Z" fill="#F0F0F0"/>
<path d="M75.7562 77.4632H71.4916V81.7339H75.7562V77.4632Z" fill="#F0F0F0"/>
<path d="M83.7962 77.4632H79.5316V81.7339H83.7962V77.4632Z" fill="#F0F0F0"/>
<path d="M67.7173 84.8566H63.4515V89.1286H67.7173V84.8566Z" fill="#F0F0F0"/>
<path d="M75.7562 84.8566H71.4916V89.1286H75.7562V84.8566Z" fill="#F0F0F0"/>
<path d="M83.7962 84.8566H79.5316V89.1286H83.7962V84.8566Z" fill="#F0F0F0"/>
<path d="M67.7173 92.25H63.4515V96.522H67.7173V92.25Z" fill="#F0F0F0"/>
<path d="M75.7562 92.25H71.4916V96.522H75.7562V92.25Z" fill="#F0F0F0"/>
<path d="M83.7962 92.25H79.5316V96.522H83.7962V92.25Z" fill="#F0F0F0"/>
<path d="M67.7173 99.6434H63.4515V103.917H67.7173V99.6434Z" fill="#F0F0F0"/>
<path d="M75.7562 99.6434H71.4916V103.917H75.7562V99.6434Z" fill="#F0F0F0"/>
<path d="M83.7962 99.6434H79.5316V103.917H83.7962V99.6434Z" fill="#F0F0F0"/>
<path d="M67.7173 107.037H63.4515V111.31H67.7173V107.037Z" fill="#F0F0F0"/>
<path d="M75.7562 107.037H71.4916V111.31H75.7562V107.037Z" fill="#F0F0F0"/>
<path d="M83.7962 107.037H79.5316V111.31H83.7962V107.037Z" fill="#F0F0F0"/>
<path d="M67.7173 114.431H63.4515V118.703H67.7173V114.431Z" fill="#F0F0F0"/>
<path d="M75.7562 114.431H71.4916V118.703H75.7562V114.431Z" fill="#F0F0F0"/>
<path d="M83.7962 114.431H79.5316V118.703H83.7962V114.431Z" fill="#F0F0F0"/>
<path d="M67.7173 121.825H63.4515V126.097H67.7173V121.825Z" fill="#F0F0F0"/>
<path d="M75.7562 121.825H71.4916V126.097H75.7562V121.825Z" fill="#F0F0F0"/>
<path d="M83.7962 121.825H79.5316V126.097H83.7962V121.825Z" fill="#F0F0F0"/>
<path d="M67.7173 129.217H63.4515V133.489H67.7173V129.217Z" fill="#F0F0F0"/>
<path d="M75.7562 129.217H71.4916V133.489H75.7562V129.217Z" fill="#F0F0F0"/>
<path d="M83.7962 129.217H79.5316V133.489H83.7962V129.217Z" fill="#F0F0F0"/>
<path d="M67.7173 136.612H63.4515V140.885H67.7173V136.612Z" fill="#F0F0F0"/>
<path d="M75.7562 136.612H71.4916V140.885H75.7562V136.612Z" fill="#F0F0F0"/>
<path d="M83.7962 136.612H79.5316V140.885H83.7962V136.612Z" fill="#F0F0F0"/>
<path d="M67.7173 144.004H63.4515V148.277H67.7173V144.004Z" fill="#F0F0F0"/>
<path d="M75.7562 144.004H71.4916V148.277H75.7562V144.004Z" fill="#F0F0F0"/>
<path d="M83.7962 144.004H79.5316V148.277H83.7962V144.004Z" fill="#F0F0F0"/>
<path d="M67.7173 151.398H63.4515V155.672H67.7173V151.398Z" fill="#F0F0F0"/>
<path d="M75.7562 151.398H71.4916V160.599H75.7562V151.398Z" fill="#F0F0F0"/>
<path d="M83.7962 151.398H79.5316V155.672H83.7962V151.398Z" fill="#F0F0F0"/>
<path d="M38.8422 107.037H34.5763V111.31H38.8422V107.037Z" fill="#F0F0F0"/>
<path d="M46.8822 107.037H42.6176V111.31H46.8822V107.037Z" fill="#F0F0F0"/>
<path d="M54.9223 107.037H50.6552V111.31H54.9223V107.037Z" fill="#F0F0F0"/>
<path d="M38.8422 114.431H34.5763V118.703H38.8422V114.431Z" fill="#F0F0F0"/>
<path d="M46.8822 114.431H42.6176V118.703H46.8822V114.431Z" fill="#F0F0F0"/>
<path d="M54.9223 114.431H50.6552V118.703H54.9223V114.431Z" fill="#F0F0F0"/>
<path d="M38.8422 121.825H34.5763V126.097H38.8422V121.825Z" fill="#F0F0F0"/>
<path d="M46.8822 121.825H42.6176V126.097H46.8822V121.825Z" fill="#F0F0F0"/>
<path d="M54.9223 121.825H50.6552V126.097H54.9223V121.825Z" fill="#F0F0F0"/>
<path d="M38.8422 129.217H34.5763V133.489H38.8422V129.217Z" fill="#F0F0F0"/>
<path d="M46.8822 129.217H42.6176V133.489H46.8822V129.217Z" fill="#F0F0F0"/>
<path d="M54.9223 129.217H50.6552V133.489H54.9223V129.217Z" fill="#F0F0F0"/>
<path d="M38.8422 136.612H34.5763V140.885H38.8422V136.612Z" fill="#F0F0F0"/>
<path d="M46.8822 136.612H42.6176V140.885H46.8822V136.612Z" fill="#F0F0F0"/>
<path d="M54.9223 136.612H50.6552V140.885H54.9223V136.612Z" fill="#F0F0F0"/>
<path d="M38.8422 144.004H34.5763V148.277H38.8422V144.004Z" fill="#F0F0F0"/>
<path d="M46.8822 144.004H42.6176V148.277H46.8822V144.004Z" fill="#F0F0F0"/>
<path d="M54.9223 144.004H50.6552V148.277H54.9223V144.004Z" fill="#F0F0F0"/>
<path d="M46.8822 151.398H42.6176V160.599H46.8822V151.398Z" fill="#F0F0F0"/>
<path d="M38.8422 151.398H34.5763V155.672H38.8422V151.398Z" fill="#F0F0F0"/>
<path d="M54.9223 151.398H50.6552V155.672H54.9223V151.398Z" fill="#F0F0F0"/>
<path d="M89.2906 67.1143V64.6498H57.9545V67.1143H60.4167V71.385H57.9545V100.794H31.3785V56.3513H28.9163V52.2027H31.3169V49.7383H0V52.2027H2.50201V56.3513H0.0410792V165.12H29.0819H31.3798H57.9558H60.418H89.2919V71.3837H86.8323V67.113H89.2906V67.1143ZM4.96294 52.3673H26.4553V56.3513H4.96294V52.3673ZM28.9163 162.655H2.50201V58.8569H28.9163V162.655ZM57.9545 162.655H31.5428V103.26H57.9545V162.655ZM86.831 162.655H60.4167V100.794V73.8494H86.831V162.655ZM84.37 67.2775V71.3027H62.8777V67.2775H84.37Z" fill="#F0F0F0"/>
<path d="M382.882 62.6764H378.617V66.9484H382.882V62.6764Z" fill="#F0F0F0"/>
<path d="M390.922 62.6764H386.655V66.9484H390.922V62.6764Z" fill="#F0F0F0"/>
<path d="M398.961 62.6764H394.697V66.9484H398.961V62.6764Z" fill="#F0F0F0"/>
<path d="M382.882 70.0698H378.617V74.3418H382.882V70.0698Z" fill="#F0F0F0"/>
<path d="M390.922 70.0698H386.655V74.3418H390.922V70.0698Z" fill="#F0F0F0"/>
<path d="M398.961 70.0698H394.697V74.3418H398.961V70.0698Z" fill="#F0F0F0"/>
<path d="M382.882 77.4632H378.617V81.7339H382.882V77.4632Z" fill="#F0F0F0"/>
<path d="M390.922 77.4632H386.655V81.7339H390.922V77.4632Z" fill="#F0F0F0"/>
<path d="M398.961 77.4632H394.697V81.7339H398.961V77.4632Z" fill="#F0F0F0"/>
<path d="M382.882 84.8566H378.617V89.1286H382.882V84.8566Z" fill="#F0F0F0"/>
<path d="M390.922 84.8566H386.655V89.1286H390.922V84.8566Z" fill="#F0F0F0"/>
<path d="M398.961 84.8566H394.697V89.1286H398.961V84.8566Z" fill="#F0F0F0"/>
<path d="M382.882 92.25H378.617V96.522H382.882V92.25Z" fill="#F0F0F0"/>
<path d="M390.922 92.25H386.655V96.522H390.922V92.25Z" fill="#F0F0F0"/>
<path d="M398.961 92.25H394.697V96.522H398.961V92.25Z" fill="#F0F0F0"/>
<path d="M382.882 99.6434H378.617V103.917H382.882V99.6434Z" fill="#F0F0F0"/>
<path d="M390.922 99.6434H386.655V103.917H390.922V99.6434Z" fill="#F0F0F0"/>
<path d="M398.961 99.6434H394.697V103.917H398.961V99.6434Z" fill="#F0F0F0"/>
<path d="M382.882 107.037H378.617V111.31H382.882V107.037Z" fill="#F0F0F0"/>
<path d="M390.922 107.037H386.655V111.31H390.922V107.037Z" fill="#F0F0F0"/>
<path d="M398.961 107.037H394.697V111.31H398.961V107.037Z" fill="#F0F0F0"/>
<path d="M382.882 114.431H378.617V118.703H382.882V114.431Z" fill="#F0F0F0"/>
<path d="M390.922 114.431H386.655V118.703H390.922V114.431Z" fill="#F0F0F0"/>
<path d="M398.961 114.431H394.697V118.703H398.961V114.431Z" fill="#F0F0F0"/>
<path d="M382.882 121.825H378.617V126.097H382.882V121.825Z" fill="#F0F0F0"/>
<path d="M390.922 121.825H386.655V126.097H390.922V121.825Z" fill="#F0F0F0"/>
<path d="M398.961 121.825H394.697V126.097H398.961V121.825Z" fill="#F0F0F0"/>
<path d="M382.882 129.217H378.617V133.489H382.882V129.217Z" fill="#F0F0F0"/>
<path d="M390.922 129.217H386.655V133.489H390.922V129.217Z" fill="#F0F0F0"/>
<path d="M398.961 129.217H394.697V133.489H398.961V129.217Z" fill="#F0F0F0"/>
<path d="M382.882 136.612H378.617V140.885H382.882V136.612Z" fill="#F0F0F0"/>
<path d="M390.922 136.612H386.655V140.885H390.922V136.612Z" fill="#F0F0F0"/>
<path d="M398.961 136.612H394.697V140.885H398.961V136.612Z" fill="#F0F0F0"/>
<path d="M382.882 144.004H378.617V148.277H382.882V144.004Z" fill="#F0F0F0"/>
<path d="M390.922 144.004H386.655V148.277H390.922V144.004Z" fill="#F0F0F0"/>
<path d="M398.961 144.004H394.697V148.277H398.961V144.004Z" fill="#F0F0F0"/>
<path d="M382.882 151.398H378.617V155.672H382.882V151.398Z" fill="#F0F0F0"/>
<path d="M390.922 151.398H386.655V160.599H390.922V151.398Z" fill="#F0F0F0"/>
<path d="M398.961 151.398H394.697V155.672H398.961V151.398Z" fill="#F0F0F0"/>
<path d="M411.922 107.037H407.656V111.31H411.922V107.037Z" fill="#F0F0F0"/>
<path d="M419.962 107.037H415.697V111.31H419.962V107.037Z" fill="#F0F0F0"/>
<path d="M428.002 107.037H423.735V111.31H428.002V107.037Z" fill="#F0F0F0"/>
<path d="M411.922 114.431H407.656V118.703H411.922V114.431Z" fill="#F0F0F0"/>
<path d="M419.962 114.431H415.697V118.703H419.962V114.431Z" fill="#F0F0F0"/>
<path d="M428.002 114.431H423.735V118.703H428.002V114.431Z" fill="#F0F0F0"/>
<path d="M411.922 121.825H407.656V126.097H411.922V121.825Z" fill="#F0F0F0"/>
<path d="M419.962 121.825H415.697V126.097H419.962V121.825Z" fill="#F0F0F0"/>
<path d="M428.002 121.825H423.735V126.097H428.002V121.825Z" fill="#F0F0F0"/>
<path d="M411.922 129.217H407.656V133.489H411.922V129.217Z" fill="#F0F0F0"/>
<path d="M419.962 129.217H415.697V133.489H419.962V129.217Z" fill="#F0F0F0"/>
<path d="M428.002 129.217H423.735V133.489H428.002V129.217Z" fill="#F0F0F0"/>
<path d="M411.922 136.612H407.656V140.885H411.922V136.612Z" fill="#F0F0F0"/>
<path d="M419.962 136.612H415.697V140.885H419.962V136.612Z" fill="#F0F0F0"/>
<path d="M428.002 136.612H423.735V140.885H428.002V136.612Z" fill="#F0F0F0"/>
<path d="M411.922 144.004H407.656V148.277H411.922V144.004Z" fill="#F0F0F0"/>
<path d="M419.962 144.004H415.697V148.277H419.962V144.004Z" fill="#F0F0F0"/>
<path d="M428.002 144.004H423.735V148.277H428.002V144.004Z" fill="#F0F0F0"/>
<path d="M419.962 151.398H415.697V160.599H419.962V151.398Z" fill="#F0F0F0"/>
<path d="M411.922 151.398H407.656V155.672H411.922V151.398Z" fill="#F0F0F0"/>
<path d="M428.002 151.398H423.735V155.672H428.002V151.398Z" fill="#F0F0F0"/>
<path d="M462.37 67.1143V64.6498H431.034V67.1143H433.496V71.385H431.034V100.794H404.458V56.3513H401.996V52.2027H404.397V49.7383H373.08V52.2027H375.582V56.3513H373.121V165.12H402.162H404.459H431.035H433.498H462.372V71.3837H459.912V67.113H462.37V67.1143ZM378.043 52.3673H399.535V56.3513H378.043V52.3673ZM401.996 162.655H375.582V58.8569H401.996V162.655ZM431.034 162.655H404.623V103.26H431.034V162.655ZM459.911 162.655H433.496V100.794V73.8494H459.911V162.655ZM457.45 67.2775V71.3027H435.957V67.2775H457.45Z" fill="#F0F0F0"/>
<path d="M96.4311 66.1465H92.1652V70.4185H96.4311V66.1465Z" fill="#F0F0F0"/>
<path d="M104.471 66.1465H100.204V70.4185H104.471V66.1465Z" fill="#F0F0F0"/>
<path d="M112.51 66.1465H108.245V70.4185H112.51V66.1465Z" fill="#F0F0F0"/>
<path d="M96.4311 73.5399H92.1652V77.8119H96.4311V73.5399Z" fill="#F0F0F0"/>
<path d="M104.471 73.5399H100.204V77.8119H104.471V73.5399Z" fill="#F0F0F0"/>
<path d="M112.51 73.5399H108.245V77.8119H112.51V73.5399Z" fill="#F0F0F0"/>
<path d="M96.4311 80.9333H92.1652V85.2041H96.4311V80.9333Z" fill="#F0F0F0"/>
<path d="M104.471 80.9333H100.204V85.2041H104.471V80.9333Z" fill="#F0F0F0"/>
<path d="M112.51 80.9333H108.245V85.2041H112.51V80.9333Z" fill="#F0F0F0"/>
<path d="M96.4311 88.3268H92.1652V92.5987H96.4311V88.3268Z" fill="#F0F0F0"/>
<path d="M104.471 88.3268H100.204V92.5987H104.471V88.3268Z" fill="#F0F0F0"/>
<path d="M112.51 88.3268H108.245V92.5987H112.51V88.3268Z" fill="#F0F0F0"/>
<path d="M96.4311 95.7201H92.1652V99.9921H96.4311V95.7201Z" fill="#F0F0F0"/>
<path d="M104.471 95.7201H100.204V99.9921H104.471V95.7201Z" fill="#F0F0F0"/>
<path d="M112.51 95.7201H108.245V99.9921H112.51V95.7201Z" fill="#F0F0F0"/>
<path d="M96.4311 103.114H92.1652V107.387H96.4311V103.114Z" fill="#F0F0F0"/>
<path d="M104.471 103.114H100.204V107.387H104.471V103.114Z" fill="#F0F0F0"/>
<path d="M112.51 103.114H108.245V107.387H112.51V103.114Z" fill="#F0F0F0"/>
<path d="M96.4311 110.507H92.1652V114.78H96.4311V110.507Z" fill="#F0F0F0"/>
<path d="M104.471 110.507H100.204V114.78H104.471V110.507Z" fill="#F0F0F0"/>
<path d="M112.51 110.507H108.245V114.78H112.51V110.507Z" fill="#F0F0F0"/>
<path d="M96.4311 117.902H92.1652V122.174H96.4311V117.902Z" fill="#F0F0F0"/>
<path d="M104.471 117.902H100.204V122.174H104.471V117.902Z" fill="#F0F0F0"/>
<path d="M112.51 117.902H108.245V122.174H112.51V117.902Z" fill="#F0F0F0"/>
<path d="M96.4311 125.295H92.1652V129.567H96.4311V125.295Z" fill="#F0F0F0"/>
<path d="M104.471 125.295H100.204V129.567H104.471V125.295Z" fill="#F0F0F0"/>
<path d="M112.51 125.295H108.245V129.567H112.51V125.295Z" fill="#F0F0F0"/>
<path d="M96.4311 132.687H92.1652V136.959H96.4311V132.687Z" fill="#F0F0F0"/>
<path d="M104.471 132.687H100.204V136.959H104.471V132.687Z" fill="#F0F0F0"/>
<path d="M112.51 132.687H108.245V136.959H112.51V132.687Z" fill="#F0F0F0"/>
<path d="M96.4311 140.082H92.1652V144.355H96.4311V140.082Z" fill="#F0F0F0"/>
<path d="M104.471 140.082H100.204V144.355H104.471V140.082Z" fill="#F0F0F0"/>
<path d="M112.51 140.082H108.245V144.355H112.51V140.082Z" fill="#F0F0F0"/>
<path d="M96.4311 147.474H92.1652V151.747H96.4311V147.474Z" fill="#F0F0F0"/>
<path d="M104.471 147.474H100.204V151.747H104.471V147.474Z" fill="#F0F0F0"/>
<path d="M112.51 147.474H108.245V151.747H112.51V147.474Z" fill="#F0F0F0"/>
<path d="M96.4311 154.869H92.1652V159.142H96.4311V154.869Z" fill="#F0F0F0"/>
<path d="M104.471 154.869H100.204V164.07H104.471V154.869Z" fill="#F0F0F0"/>
<path d="M112.51 154.869H108.245V159.142H112.51V154.869Z" fill="#F0F0F0"/>
<path d="M154.346 80.9333H150.08V85.2041H154.346V80.9333Z" fill="#F0F0F0"/>
<path d="M162.385 80.9333H158.12V85.2041H162.385V80.9333Z" fill="#F0F0F0"/>
<path d="M170.425 80.9333H166.16V85.2041H170.425V80.9333Z" fill="#F0F0F0"/>
<path d="M154.346 88.3268H150.08V92.5987H154.346V88.3268Z" fill="#F0F0F0"/>
<path d="M162.385 88.3268H158.12V92.5987H162.385V88.3268Z" fill="#F0F0F0"/>
<path d="M170.425 88.3268H166.16V92.5987H170.425V88.3268Z" fill="#F0F0F0"/>
<path d="M154.346 95.7201H150.08V99.9921H154.346V95.7201Z" fill="#F0F0F0"/>
<path d="M162.385 95.7201H158.12V99.9921H162.385V95.7201Z" fill="#F0F0F0"/>
<path d="M170.425 95.7201H166.16V99.9921H170.425V95.7201Z" fill="#F0F0F0"/>
<path d="M154.346 103.114H150.08V107.387H154.346V103.114Z" fill="#F0F0F0"/>
<path d="M162.385 103.114H158.12V107.387H162.385V103.114Z" fill="#F0F0F0"/>
<path d="M170.425 103.114H166.16V107.387H170.425V103.114Z" fill="#F0F0F0"/>
<path d="M154.346 110.507H150.08V114.78H154.346V110.507Z" fill="#F0F0F0"/>
<path d="M162.385 110.507H158.12V114.78H162.385V110.507Z" fill="#F0F0F0"/>
<path d="M170.425 110.507H166.16V114.78H170.425V110.507Z" fill="#F0F0F0"/>
<path d="M154.346 117.902H150.08V122.174H154.346V117.902Z" fill="#F0F0F0"/>
<path d="M162.385 117.902H158.12V122.174H162.385V117.902Z" fill="#F0F0F0"/>
<path d="M170.425 117.902H166.16V122.174H170.425V117.902Z" fill="#F0F0F0"/>
<path d="M154.346 125.295H150.08V129.567H154.346V125.295Z" fill="#F0F0F0"/>
<path d="M162.385 125.295H158.12V129.567H162.385V125.295Z" fill="#F0F0F0"/>
<path d="M170.425 125.295H166.16V129.567H170.425V125.295Z" fill="#F0F0F0"/>
<path d="M154.346 132.687H150.08V136.959H154.346V132.687Z" fill="#F0F0F0"/>
<path d="M162.385 132.687H158.12V136.959H162.385V132.687Z" fill="#F0F0F0"/>
<path d="M170.425 132.687H166.16V136.959H170.425V132.687Z" fill="#F0F0F0"/>
<path d="M154.346 140.082H150.08V144.355H154.346V140.082Z" fill="#F0F0F0"/>
<path d="M162.385 140.082H158.12V144.355H162.385V140.082Z" fill="#F0F0F0"/>
<path d="M170.425 140.082H166.16V144.355H170.425V140.082Z" fill="#F0F0F0"/>
<path d="M154.346 147.474H150.08V151.747H154.346V147.474Z" fill="#F0F0F0"/>
<path d="M162.385 147.474H158.12V151.747H162.385V147.474Z" fill="#F0F0F0"/>
<path d="M170.425 147.474H166.16V151.747H170.425V147.474Z" fill="#F0F0F0"/>
<path d="M154.346 154.869H150.08V159.142H154.346V154.869Z" fill="#F0F0F0"/>
<path d="M162.385 154.869H158.12V164.07H162.385V154.869Z" fill="#F0F0F0"/>
<path d="M170.425 154.869H166.16V159.142H170.425V154.869Z" fill="#F0F0F0"/>
<path d="M125.471 110.507H121.205V114.78H125.471V110.507Z" fill="#F0F0F0"/>
<path d="M133.511 110.507H129.246V114.78H133.511V110.507Z" fill="#F0F0F0"/>
<path d="M141.551 110.507H137.284V114.78H141.551V110.507Z" fill="#F0F0F0"/>
<path d="M125.471 117.902H121.205V122.174H125.471V117.902Z" fill="#F0F0F0"/>
<path d="M133.511 117.902H129.246V122.174H133.511V117.902Z" fill="#F0F0F0"/>
<path d="M141.551 117.902H137.284V122.174H141.551V117.902Z" fill="#F0F0F0"/>
<path d="M125.471 125.295H121.205V129.567H125.471V125.295Z" fill="#F0F0F0"/>
<path d="M133.511 125.295H129.246V129.567H133.511V125.295Z" fill="#F0F0F0"/>
<path d="M141.551 125.295H137.284V129.567H141.551V125.295Z" fill="#F0F0F0"/>
<path d="M125.471 132.687H121.205V136.959H125.471V132.687Z" fill="#F0F0F0"/>
<path d="M133.511 132.687H129.246V136.959H133.511V132.687Z" fill="#F0F0F0"/>
<path d="M141.551 132.687H137.284V136.959H141.551V132.687Z" fill="#F0F0F0"/>
<path d="M125.471 140.082H121.205V144.355H125.471V140.082Z" fill="#F0F0F0"/>
<path d="M133.511 140.082H129.246V144.355H133.511V140.082Z" fill="#F0F0F0"/>
<path d="M141.551 140.082H137.284V144.355H141.551V140.082Z" fill="#F0F0F0"/>
<path d="M125.471 147.474H121.205V151.747H125.471V147.474Z" fill="#F0F0F0"/>
<path d="M133.511 147.474H129.246V151.747H133.511V147.474Z" fill="#F0F0F0"/>
<path d="M141.551 147.474H137.284V151.747H141.551V147.474Z" fill="#F0F0F0"/>
<path d="M133.511 154.869H129.246V164.07H133.511V154.869Z" fill="#F0F0F0"/>
<path d="M125.471 154.869H121.205V159.142H125.471V154.869Z" fill="#F0F0F0"/>
<path d="M141.551 154.869H137.284V159.142H141.551V154.869Z" fill="#F0F0F0"/>
<path d="M175.919 70.5844V68.1199H144.583V70.5844H147.045V74.8551H144.583V104.264H118.007V59.8215H115.545V55.6729H117.945V53.2084H86.6284V55.6729H89.1304V59.8215H86.6695V168.59H115.71H118.008H144.584H147.046H175.92V74.8538H173.461V70.5831H175.919V70.5844ZM91.5914 55.8374H113.084V59.8215H91.5914V55.8374ZM115.545 166.125H89.1304V62.3271H115.545V166.125ZM144.583 166.125H118.171V106.73H144.583V166.125ZM173.459 166.125H147.045V104.264V77.3196H173.459V166.125ZM170.998 70.7476V74.7728H149.506V70.7476H170.998Z" fill="#F0F0F0"/>
<path d="M263.141 76.5569H267.407V80.8289H263.141V76.5569Z" fill="#F0F0F0"/>
<path d="M255.101 76.5569H259.369V80.8289H255.101V76.5569Z" fill="#F0F0F0"/>
<path d="M247.063 76.5569H251.327V80.8289H247.063V76.5569Z" fill="#F0F0F0"/>
<path d="M263.141 83.9503H267.407V88.2223H263.141V83.9503Z" fill="#F0F0F0"/>
<path d="M255.101 83.9503H259.369V88.2223H255.101V83.9503Z" fill="#F0F0F0"/>
<path d="M247.063 83.9503H251.327V88.2223H247.063V83.9503Z" fill="#F0F0F0"/>
<path d="M263.141 91.3437H267.407V95.6144H263.141V91.3437Z" fill="#F0F0F0"/>
<path d="M255.101 91.3437H259.369V95.6144H255.101V91.3437Z" fill="#F0F0F0"/>
<path d="M247.063 91.3437H251.327V95.6144H247.063V91.3437Z" fill="#F0F0F0"/>
<path d="M263.141 98.7371H267.407V103.009H263.141V98.7371Z" fill="#F0F0F0"/>
<path d="M255.101 98.7371H259.369V103.009H255.101V98.7371Z" fill="#F0F0F0"/>
<path d="M247.063 98.7371H251.327V103.009H247.063V98.7371Z" fill="#F0F0F0"/>
<path d="M263.141 106.13H267.407V110.402H263.141V106.13Z" fill="#F0F0F0"/>
<path d="M255.101 106.13H259.369V110.402H255.101V106.13Z" fill="#F0F0F0"/>
<path d="M247.063 106.13H251.327V110.402H247.063V106.13Z" fill="#F0F0F0"/>
<path d="M263.141 113.524H267.407V117.797H263.141V113.524Z" fill="#F0F0F0"/>
<path d="M255.101 113.524H259.369V117.797H255.101V113.524Z" fill="#F0F0F0"/>
<path d="M247.063 113.524H251.327V117.797H247.063V113.524Z" fill="#F0F0F0"/>
<path d="M263.141 120.917H267.407V125.191H263.141V120.917Z" fill="#F0F0F0"/>
<path d="M255.101 120.917H259.369V125.191H255.101V120.917Z" fill="#F0F0F0"/>
<path d="M247.063 120.917H251.327V125.191H247.063V120.917Z" fill="#F0F0F0"/>
<path d="M263.141 128.312H267.407V132.584H263.141V128.312Z" fill="#F0F0F0"/>
<path d="M255.101 128.312H259.369V132.584H255.101V128.312Z" fill="#F0F0F0"/>
<path d="M247.063 128.312H251.327V132.584H247.063V128.312Z" fill="#F0F0F0"/>
<path d="M263.141 135.705H267.407V139.977H263.141V135.705Z" fill="#F0F0F0"/>
<path d="M255.101 135.705H259.369V139.977H255.101V135.705Z" fill="#F0F0F0"/>
<path d="M247.063 135.705H251.327V139.977H247.063V135.705Z" fill="#F0F0F0"/>
<path d="M263.141 143.097H267.407V147.369H263.141V143.097Z" fill="#F0F0F0"/>
<path d="M255.101 143.097H259.369V147.369H255.101V143.097Z" fill="#F0F0F0"/>
<path d="M247.063 143.097H251.327V147.369H247.063V143.097Z" fill="#F0F0F0"/>
<path d="M263.141 150.492H267.407V154.765H263.141V150.492Z" fill="#F0F0F0"/>
<path d="M255.101 150.492H259.369V154.765H255.101V150.492Z" fill="#F0F0F0"/>
<path d="M247.063 150.492H251.327V154.765H247.063V150.492Z" fill="#F0F0F0"/>
<path d="M263.141 157.884H267.407V162.158H263.141V157.884Z" fill="#F0F0F0"/>
<path d="M255.101 157.884H259.369V162.158H255.101V157.884Z" fill="#F0F0F0"/>
<path d="M247.063 157.884H251.327V162.158H247.063V157.884Z" fill="#F0F0F0"/>
<path d="M263.141 165.279H267.407V169.552H263.141V165.279Z" fill="#F0F0F0"/>
<path d="M255.101 165.279H259.369V174.48H255.101V165.279Z" fill="#F0F0F0"/>
<path d="M247.063 165.279H251.327V169.552H247.063V165.279Z" fill="#F0F0F0"/>
<path d="M205.227 91.3437H209.493V95.6144H205.227V91.3437Z" fill="#F0F0F0"/>
<path d="M197.188 91.3437H201.453V95.6144H197.188V91.3437Z" fill="#F0F0F0"/>
<path d="M189.148 91.3437H193.412V95.6144H189.148V91.3437Z" fill="#F0F0F0"/>
<path d="M205.227 98.7371H209.493V103.009H205.227V98.7371Z" fill="#F0F0F0"/>
<path d="M197.188 98.7371H201.453V103.009H197.188V98.7371Z" fill="#F0F0F0"/>
<path d="M189.148 98.7371H193.412V103.009H189.148V98.7371Z" fill="#F0F0F0"/>
<path d="M205.227 106.13H209.493V110.402H205.227V106.13Z" fill="#F0F0F0"/>
<path d="M197.188 106.13H201.453V110.402H197.188V106.13Z" fill="#F0F0F0"/>
<path d="M189.148 106.13H193.412V110.402H189.148V106.13Z" fill="#F0F0F0"/>
<path d="M205.227 113.524H209.493V117.797H205.227V113.524Z" fill="#F0F0F0"/>
<path d="M197.188 113.524H201.453V117.797H197.188V113.524Z" fill="#F0F0F0"/>
<path d="M189.148 113.524H193.412V117.797H189.148V113.524Z" fill="#F0F0F0"/>
<path d="M205.227 120.917H209.493V125.191H205.227V120.917Z" fill="#F0F0F0"/>
<path d="M197.188 120.917H201.453V125.191H197.188V120.917Z" fill="#F0F0F0"/>
<path d="M189.148 120.917H193.412V125.191H189.148V120.917Z" fill="#F0F0F0"/>
<path d="M205.227 128.312H209.493V132.584H205.227V128.312Z" fill="#F0F0F0"/>
<path d="M197.188 128.312H201.453V132.584H197.188V128.312Z" fill="#F0F0F0"/>
<path d="M189.148 128.312H193.412V132.584H189.148V128.312Z" fill="#F0F0F0"/>
<path d="M205.227 135.705H209.493V139.977H205.227V135.705Z" fill="#F0F0F0"/>
<path d="M197.188 135.705H201.453V139.977H197.188V135.705Z" fill="#F0F0F0"/>
<path d="M189.148 135.705H193.412V139.977H189.148V135.705Z" fill="#F0F0F0"/>
<path d="M205.227 143.097H209.493V147.369H205.227V143.097Z" fill="#F0F0F0"/>
<path d="M197.188 143.097H201.453V147.369H197.188V143.097Z" fill="#F0F0F0"/>
<path d="M189.148 143.097H193.412V147.369H189.148V143.097Z" fill="#F0F0F0"/>
<path d="M205.227 150.492H209.493V154.765H205.227V150.492Z" fill="#F0F0F0"/>
<path d="M197.188 150.492H201.453V154.765H197.188V150.492Z" fill="#F0F0F0"/>
<path d="M189.148 150.492H193.412V154.765H189.148V150.492Z" fill="#F0F0F0"/>
<path d="M205.227 157.884H209.493V162.158H205.227V157.884Z" fill="#F0F0F0"/>
<path d="M197.188 157.884H201.453V162.158H197.188V157.884Z" fill="#F0F0F0"/>
<path d="M189.148 157.884H193.412V162.158H189.148V157.884Z" fill="#F0F0F0"/>
<path d="M205.227 165.279H209.493V169.552H205.227V165.279Z" fill="#F0F0F0"/>
<path d="M197.188 165.279H201.453V174.48H197.188V165.279Z" fill="#F0F0F0"/>
<path d="M189.148 165.279H193.412V169.552H189.148V165.279Z" fill="#F0F0F0"/>
<path d="M234.102 120.917H238.368V125.191H234.102V120.917Z" fill="#F0F0F0"/>
<path d="M226.062 120.917H230.326V125.191H226.062V120.917Z" fill="#F0F0F0"/>
<path d="M218.022 120.917H222.289V125.191H218.022V120.917Z" fill="#F0F0F0"/>
<path d="M234.102 128.312H238.368V132.584H234.102V128.312Z" fill="#F0F0F0"/>
<path d="M226.062 128.312H230.326V132.584H226.062V128.312Z" fill="#F0F0F0"/>
<path d="M218.022 128.312H222.289V132.584H218.022V128.312Z" fill="#F0F0F0"/>
<path d="M234.102 135.705H238.368V139.977H234.102V135.705Z" fill="#F0F0F0"/>
<path d="M226.062 135.705H230.326V139.977H226.062V135.705Z" fill="#F0F0F0"/>
<path d="M218.022 135.705H222.289V139.977H218.022V135.705Z" fill="#F0F0F0"/>
<path d="M234.102 143.097H238.368V147.369H234.102V143.097Z" fill="#F0F0F0"/>
<path d="M226.062 143.097H230.326V147.369H226.062V143.097Z" fill="#F0F0F0"/>
<path d="M218.022 143.097H222.289V147.369H218.022V143.097Z" fill="#F0F0F0"/>
<path d="M234.102 150.492H238.368V154.765H234.102V150.492Z" fill="#F0F0F0"/>
<path d="M226.062 150.492H230.326V154.765H226.062V150.492Z" fill="#F0F0F0"/>
<path d="M218.022 150.492H222.289V154.765H218.022V150.492Z" fill="#F0F0F0"/>
<path d="M234.102 157.884H238.368V162.158H234.102V157.884Z" fill="#F0F0F0"/>
<path d="M226.062 157.884H230.326V162.158H226.062V157.884Z" fill="#F0F0F0"/>
<path d="M218.022 157.884H222.289V162.158H218.022V157.884Z" fill="#F0F0F0"/>
<path d="M226.062 165.279H230.326V174.48H226.062V165.279Z" fill="#F0F0F0"/>
<path d="M234.102 165.279H238.368V169.552H234.102V165.279Z" fill="#F0F0F0"/>
<path d="M218.022 165.279H222.289V169.552H218.022V165.279Z" fill="#F0F0F0"/>
<path d="M183.653 80.9947V78.5302H214.99V80.9947H212.527V85.2654H214.99V114.674H241.566V70.2318H244.028V66.0832H241.627V63.6187H272.944V66.0832H270.442V70.2318H272.903V179H243.862H241.564H214.988H212.526H183.652V85.2641H186.112V80.9934H183.653V80.9947ZM267.981 66.2478H246.489V70.2318H267.981V66.2478ZM244.028 176.536H270.442V72.7374H244.028V176.536ZM214.99 176.536H241.401V117.14H214.99V176.536ZM186.113 176.536H212.527V114.674V87.7299H186.113V176.536ZM188.574 81.158V85.1831H210.066V81.158H188.574Z" fill="#F0F0F0"/>
<path d="M359.01 95.0641H363.276V99.3361H359.01V95.0641Z" fill="#F0F0F0"/>
<path d="M350.97 95.0641H355.237V99.3361H350.97V95.0641Z" fill="#F0F0F0"/>
<path d="M342.931 95.0641H347.196V99.3361H342.931V95.0641Z" fill="#F0F0F0"/>
<path d="M359.01 102.458H363.276V106.73H359.01V102.458Z" fill="#F0F0F0"/>
<path d="M350.97 102.458H355.237V106.73H350.97V102.458Z" fill="#F0F0F0"/>
<path d="M342.931 102.458H347.196V106.73H342.931V102.458Z" fill="#F0F0F0"/>
<path d="M359.01 109.851H363.276V114.122H359.01V109.851Z" fill="#F0F0F0"/>
<path d="M350.97 109.851H355.237V114.122H350.97V109.851Z" fill="#F0F0F0"/>
<path d="M342.931 109.851H347.196V114.122H342.931V109.851Z" fill="#F0F0F0"/>
<path d="M359.01 117.244H363.276V121.516H359.01V117.244Z" fill="#F0F0F0"/>
<path d="M350.97 117.244H355.237V121.516H350.97V117.244Z" fill="#F0F0F0"/>
<path d="M342.931 117.244H347.196V121.516H342.931V117.244Z" fill="#F0F0F0"/>
<path d="M359.01 124.638H363.276V128.91H359.01V124.638Z" fill="#F0F0F0"/>
<path d="M350.97 124.638H355.237V128.91H350.97V124.638Z" fill="#F0F0F0"/>
<path d="M342.931 124.638H347.196V128.91H342.931V124.638Z" fill="#F0F0F0"/>
<path d="M359.01 132.031H363.276V136.304H359.01V132.031Z" fill="#F0F0F0"/>
<path d="M350.97 132.031H355.237V136.304H350.97V132.031Z" fill="#F0F0F0"/>
<path d="M342.931 132.031H347.196V136.304H342.931V132.031Z" fill="#F0F0F0"/>
<path d="M359.01 139.425H363.276V143.698H359.01V139.425Z" fill="#F0F0F0"/>
<path d="M350.97 139.425H355.237V143.698H350.97V139.425Z" fill="#F0F0F0"/>
<path d="M342.931 139.425H347.196V143.698H342.931V139.425Z" fill="#F0F0F0"/>
<path d="M359.01 146.819H363.276V151.091H359.01V146.819Z" fill="#F0F0F0"/>
<path d="M350.97 146.819H355.237V151.091H350.97V146.819Z" fill="#F0F0F0"/>
<path d="M342.931 146.819H347.196V151.091H342.931V146.819Z" fill="#F0F0F0"/>
<path d="M359.01 154.213H363.276V158.485H359.01V154.213Z" fill="#F0F0F0"/>
<path d="M350.97 154.213H355.237V158.485H350.97V154.213Z" fill="#F0F0F0"/>
<path d="M342.931 154.213H347.196V158.485H342.931V154.213Z" fill="#F0F0F0"/>
<path d="M359.01 161.605H363.276V165.877H359.01V161.605Z" fill="#F0F0F0"/>
<path d="M350.97 161.605H355.237V165.877H350.97V161.605Z" fill="#F0F0F0"/>
<path d="M342.931 161.605H347.196V165.877H342.931V161.605Z" fill="#F0F0F0"/>
<path d="M301.096 109.851H305.361V114.122H301.096V109.851Z" fill="#F0F0F0"/>
<path d="M293.057 109.851H297.321V114.122H293.057V109.851Z" fill="#F0F0F0"/>
<path d="M285.017 109.851H289.281V114.122H285.017V109.851Z" fill="#F0F0F0"/>
<path d="M301.096 117.244H305.361V121.516H301.096V117.244Z" fill="#F0F0F0"/>
<path d="M293.057 117.244H297.321V121.516H293.057V117.244Z" fill="#F0F0F0"/>
<path d="M285.017 117.244H289.281V121.516H285.017V117.244Z" fill="#F0F0F0"/>
<path d="M301.096 124.638H305.361V128.91H301.096V124.638Z" fill="#F0F0F0"/>
<path d="M293.057 124.638H297.321V128.91H293.057V124.638Z" fill="#F0F0F0"/>
<path d="M285.017 124.638H289.281V128.91H285.017V124.638Z" fill="#F0F0F0"/>
<path d="M301.096 132.031H305.361V136.304H301.096V132.031Z" fill="#F0F0F0"/>
<path d="M293.057 132.031H297.321V136.304H293.057V132.031Z" fill="#F0F0F0"/>
<path d="M285.017 132.031H289.281V136.304H285.017V132.031Z" fill="#F0F0F0"/>
<path d="M301.096 139.425H305.361V143.698H301.096V139.425Z" fill="#F0F0F0"/>
<path d="M293.057 139.425H297.321V143.698H293.057V139.425Z" fill="#F0F0F0"/>
<path d="M285.017 139.425H289.281V143.698H285.017V139.425Z" fill="#F0F0F0"/>
<path d="M301.096 146.819H305.361V151.091H301.096V146.819Z" fill="#F0F0F0"/>
<path d="M293.057 146.819H297.321V151.091H293.057V146.819Z" fill="#F0F0F0"/>
<path d="M285.017 146.819H289.281V151.091H285.017V146.819Z" fill="#F0F0F0"/>
<path d="M301.096 154.213H305.361V158.485H301.096V154.213Z" fill="#F0F0F0"/>
<path d="M293.057 154.213H297.321V158.485H293.057V154.213Z" fill="#F0F0F0"/>
<path d="M285.017 154.213H289.281V158.485H285.017V154.213Z" fill="#F0F0F0"/>
<path d="M301.096 161.605H305.361V165.877H301.096V161.605Z" fill="#F0F0F0"/>
<path d="M293.057 161.605H297.321V165.877H293.057V161.605Z" fill="#F0F0F0"/>
<path d="M285.017 161.605H289.281V165.877H285.017V161.605Z" fill="#F0F0F0"/>
<path d="M329.971 139.425H334.237V143.698H329.971V139.425Z" fill="#F0F0F0"/>
<path d="M321.931 139.425H326.195V143.698H321.931V139.425Z" fill="#F0F0F0"/>
<path d="M313.891 139.425H318.158V143.698H313.891V139.425Z" fill="#F0F0F0"/>
<path d="M329.971 146.819H334.237V151.091H329.971V146.819Z" fill="#F0F0F0"/>
<path d="M321.931 146.819H326.195V151.091H321.931V146.819Z" fill="#F0F0F0"/>
<path d="M313.891 146.819H318.158V151.091H313.891V146.819Z" fill="#F0F0F0"/>
<path d="M329.971 154.213H334.237V158.485H329.971V154.213Z" fill="#F0F0F0"/>
<path d="M321.931 154.213H326.195V158.485H321.931V154.213Z" fill="#F0F0F0"/>
<path d="M313.891 154.213H318.158V158.485H313.891V154.213Z" fill="#F0F0F0"/>
<path d="M329.971 161.605H334.237V165.877H329.971V161.605Z" fill="#F0F0F0"/>
<path d="M321.931 161.605H326.195V165.877H321.931V161.605Z" fill="#F0F0F0"/>
<path d="M313.891 161.605H318.158V165.877H313.891V161.605Z" fill="#F0F0F0"/>
<path d="M279.522 99.502V97.0375H310.858V99.502H308.396V103.773H310.858V133.182H337.434V88.7391H339.897V84.5905H337.496V82.126H368.813V84.5905H366.311V88.7391H368.772V197.507H339.731H337.433H310.857H308.395H279.521V103.771H281.981V99.5007H279.522V99.502ZM363.85 84.755H342.358V88.7391H363.85V84.755ZM339.897 195.043H366.311V91.2447H339.897V195.043ZM310.858 195.043H337.27V135.647H310.858V195.043ZM281.982 195.043H308.396V133.182V106.237H281.982V195.043ZM284.443 99.6652V103.69H305.935V99.6652H284.443Z" fill="#F0F0F0"/>
</svg>
