<svg width="265" height="107" viewBox="0 0 265 107" fill="none" xmlns="http://www.w3.org/2000/svg">
<path d="M92.924 70.3004V62.4905L127.468 62.5506C129.23 62.5506 130.572 62.15 131.493 61.349C132.454 60.508 132.935 59.1663 132.935 57.3239C132.935 55.4816 132.454 54.1599 131.493 53.3589C130.572 52.5178 129.23 52.0973 127.468 52.0973H105.961C101.515 52.0973 98.0505 51.036 95.5673 48.9133C93.1242 46.7505 91.9027 43.5865 91.9027 39.4212C91.9027 35.256 93.1242 32.112 95.5673 29.9893C98.0505 27.8265 101.515 26.7452 105.961 26.7452H139.723V34.5551L106.982 34.495C105.26 34.495 103.918 34.8955 102.957 35.6965C101.995 36.4575 101.515 37.6991 101.515 39.4212C101.515 41.1434 101.995 42.405 102.957 43.206C103.918 43.967 105.26 44.3475 106.982 44.3475H128.489C132.935 44.3475 136.379 45.4489 138.822 47.6517C141.305 49.8144 142.547 53.0385 142.547 57.3239C142.547 61.5693 141.305 64.7934 138.822 66.9962C136.379 69.199 132.935 70.3004 128.489 70.3004H92.924ZM148.574 70V27.0456H156.624L176.509 40.9832H176.81L196.695 27.0456H204.745V70H195.133V39.0608L181.495 48.1924V70H171.883V48.1924L158.186 39.0608V70H148.574ZM211.786 70.3004V62.4905L246.329 62.5506C248.092 62.5506 249.433 62.15 250.354 61.349C251.316 60.508 251.796 59.1663 251.796 57.3239C251.796 55.4816 251.316 54.1599 250.354 53.3589C249.433 52.5178 248.092 52.0973 246.329 52.0973H224.822C220.376 52.0973 216.912 51.036 214.429 48.9133C211.986 46.7505 210.764 43.5865 210.764 39.4212C210.764 35.256 211.986 32.112 214.429 29.9893C216.912 27.8265 220.376 26.7452 224.822 26.7452H258.585V34.5551L225.843 34.495C224.121 34.495 222.78 34.8955 221.818 35.6965C220.857 36.4575 220.376 37.6991 220.376 39.4212C220.376 41.1434 220.857 42.405 221.818 43.206C222.78 43.967 224.121 44.3475 225.843 44.3475H247.351C251.796 44.3475 255.241 45.4489 257.684 47.6517C260.167 49.8144 261.408 53.0385 261.408 57.3239C261.408 61.5693 260.167 64.7934 257.684 66.9962C255.241 69.199 251.796 70.3004 247.351 70.3004H211.786Z" fill="white"/>
<path d="M94.9139 88.2023C94.4589 88.2023 94.0284 88.1485 93.6223 88.0409C93.2211 87.9332 92.8689 87.7938 92.5656 87.6226C92.2623 87.4513 92.0225 87.2728 91.8464 87.0869L92.5949 85.5458C92.7075 85.6926 92.8787 85.8491 93.1086 86.0155C93.3386 86.1818 93.6003 86.3237 93.8938 86.4411C94.1923 86.5585 94.4882 86.6172 94.7818 86.6172C95.1683 86.6172 95.4911 86.512 95.7504 86.3017C96.0146 86.0864 96.1467 85.7855 96.1467 85.3991C96.1467 85.1495 96.0856 84.9343 95.9632 84.7533C95.8458 84.5674 95.6868 84.4035 95.4863 84.2616C95.2906 84.1148 94.9872 83.9167 94.5763 83.6672C94.0137 83.3247 93.5734 83.0337 93.2554 82.7939C92.9374 82.5493 92.661 82.2313 92.4262 81.8399C92.1962 81.4437 92.0813 80.9667 92.0813 80.409C92.0813 79.8659 92.1962 79.3865 92.4262 78.9707C92.661 78.5499 93.0059 78.2221 93.4609 77.9873C93.9158 77.7525 94.4638 77.6351 95.1047 77.6351C96.1467 77.6351 97.0175 77.9531 97.7171 78.5891L96.8952 80.0861C96.812 79.9687 96.6873 79.8415 96.521 79.7045C96.3546 79.5626 96.154 79.4428 95.9192 79.3449C95.6844 79.2422 95.4373 79.1908 95.178 79.1908C94.8013 79.1908 94.5078 79.3009 94.2974 79.521C94.092 79.7363 93.9892 80.0078 93.9892 80.3356C93.9892 80.5851 94.0504 80.8077 94.1727 81.0034C94.2999 81.1942 94.4638 81.3654 94.6644 81.5171C94.8698 81.6687 95.1438 81.8473 95.4863 82.0528C96.1076 82.4197 96.5821 82.7279 96.9099 82.9774C97.2377 83.2269 97.5116 83.5449 97.7318 83.9314C97.9568 84.313 98.0694 84.7826 98.0694 85.3403C98.0694 85.9323 97.9422 86.4435 97.6878 86.8741C97.4334 87.3046 97.0689 87.6348 96.5943 87.8647C96.1198 88.0898 95.5596 88.2023 94.9139 88.2023ZM99.609 77.591H101.664V79.543H99.609V77.591ZM99.6824 80.7319H101.59V88.0409H99.6824V80.7319ZM106.188 88.261C105.645 88.261 105.22 88.1681 104.911 87.9822C104.603 87.7963 104.385 87.5174 104.258 87.1456C104.136 86.7689 104.075 86.2748 104.075 85.6632V82.2729H103.121V80.7319H104.148L104.251 79.1908L105.851 78.501V80.7319H107.656V82.2729H105.851V85.6192C105.851 86.0302 105.907 86.3212 106.019 86.4925C106.132 86.6637 106.301 86.7493 106.526 86.7493C106.726 86.7493 106.944 86.6979 107.179 86.5952C107.419 86.4876 107.617 86.3677 107.773 86.2356L108.126 87.718C107.91 87.8696 107.6 87.9968 107.194 88.0996C106.792 88.2072 106.457 88.261 106.188 88.261ZM112.307 88.2317C111.519 88.2317 110.869 88.0653 110.355 87.7327C109.841 87.3951 109.465 86.945 109.225 86.3824C108.99 85.8198 108.873 85.1838 108.873 84.4744C108.873 83.7504 109.005 83.0924 109.269 82.5004C109.538 81.9035 109.929 81.4314 110.443 81.0841C110.957 80.7319 111.568 80.5557 112.278 80.5557C113.334 80.5557 114.09 80.8615 114.545 81.473C115 82.0797 115.228 82.9872 115.228 84.1956C115.228 84.4304 115.218 84.6946 115.198 84.9881H110.795C110.825 85.5801 110.989 86.0375 111.287 86.3604C111.59 86.6784 112.033 86.8374 112.615 86.8374C112.919 86.8374 113.244 86.7713 113.591 86.6392C113.939 86.5023 114.195 86.3384 114.362 86.1476L114.949 87.5419C114.259 88.0017 113.378 88.2317 112.307 88.2317ZM113.364 83.8433C113.364 83.1242 113.273 82.63 113.092 82.361C112.916 82.087 112.659 81.95 112.322 81.95C111.847 81.95 111.478 82.1261 111.214 82.4784C110.954 82.8306 110.81 83.2856 110.781 83.8433H113.364ZM128.451 77.6351V88.0409H126.631V83.6525L126.697 81.9207L126.176 82.7132L124.166 85.0762L122.155 82.7132L121.634 81.9207L121.715 83.6525V88.0409H119.895V77.6351H120.041L124.18 82.5151L128.29 77.6351H128.451ZM132.237 88.2463C131.802 88.2463 131.435 88.1485 131.137 87.9528C130.838 87.7571 130.613 87.4929 130.462 87.1603C130.315 86.8276 130.241 86.4558 130.241 86.0448C130.241 85.6877 130.359 85.333 130.594 84.9808C130.833 84.6236 131.257 84.3203 131.863 84.0708C132.47 83.8213 133.289 83.6966 134.322 83.6966V83.359C134.322 82.9578 134.224 82.6472 134.028 82.427C133.837 82.2069 133.5 82.0968 133.015 82.0968C132.634 82.0968 132.259 82.1628 131.893 82.2949C131.531 82.4221 131.264 82.5811 131.093 82.7719L130.506 81.363C130.838 81.1379 131.252 80.9471 131.746 80.7906C132.24 80.634 132.766 80.5557 133.324 80.5557C134.023 80.5557 134.576 80.6634 134.982 80.8786C135.393 81.0939 135.682 81.3972 135.848 81.7886C136.014 82.18 136.097 82.6643 136.097 83.2416V88.0409H134.527L134.395 86.9988C134.136 87.4195 133.827 87.7327 133.47 87.9381C133.118 88.1436 132.707 88.2463 132.237 88.2463ZM133.015 86.8374C133.24 86.8374 133.478 86.7469 133.727 86.5659C133.977 86.3848 134.175 86.1574 134.322 85.8834V84.8413C134.253 84.8316 134.136 84.8267 133.969 84.8267C133.475 84.8267 133.032 84.9098 132.641 85.0762C132.255 85.2376 132.061 85.5018 132.061 85.8687C132.061 86.2161 132.137 86.4656 132.289 86.6172C132.445 86.764 132.688 86.8374 133.015 86.8374ZM141.954 80.5557C142.683 80.5557 143.231 80.7881 143.598 81.2529C143.97 81.7128 144.156 82.3659 144.156 83.2122V88.0409H142.277V83.3737C142.277 82.9578 142.189 82.6276 142.013 82.383C141.837 82.1335 141.578 82.0087 141.235 82.0087C141.005 82.0087 140.79 82.0674 140.59 82.1849C140.394 82.3023 140.237 82.4662 140.12 82.6765C140.002 82.882 139.944 83.1144 139.944 83.3737V88.0409H138.065V80.7319H139.768L139.804 81.6932C140.308 80.9349 141.025 80.5557 141.954 80.5557ZM147.731 88.2463C147.296 88.2463 146.929 88.1485 146.63 87.9528C146.332 87.7571 146.107 87.4929 145.955 87.1603C145.808 86.8276 145.735 86.4558 145.735 86.0448C145.735 85.6877 145.853 85.333 146.087 84.9808C146.327 84.6236 146.75 84.3203 147.357 84.0708C147.964 83.8213 148.783 83.6966 149.815 83.6966V83.359C149.815 82.9578 149.717 82.6472 149.522 82.427C149.331 82.2069 148.993 82.0968 148.509 82.0968C148.127 82.0968 147.753 82.1628 147.386 82.2949C147.024 82.4221 146.758 82.5811 146.586 82.7719L145.999 81.363C146.332 81.1379 146.745 80.9471 147.239 80.7906C147.734 80.634 148.259 80.5557 148.817 80.5557C149.517 80.5557 150.07 80.6634 150.476 80.8786C150.887 81.0939 151.175 81.3972 151.342 81.7886C151.508 82.18 151.591 82.6643 151.591 83.2416V88.0409H150.021L149.889 86.9988C149.629 87.4195 149.321 87.7327 148.964 87.9381C148.612 88.1436 148.201 88.2463 147.731 88.2463ZM148.509 86.8374C148.734 86.8374 148.971 86.7469 149.221 86.5659C149.47 86.3848 149.668 86.1574 149.815 85.8834V84.8413C149.747 84.8316 149.629 84.8267 149.463 84.8267C148.969 84.8267 148.526 84.9098 148.135 85.0762C147.748 85.2376 147.555 85.5018 147.555 85.8687C147.555 86.2161 147.631 86.4656 147.782 86.6172C147.939 86.764 148.181 86.8374 148.509 86.8374ZM154.572 89.3031C155.026 89.5868 155.535 89.7287 156.098 89.7287C156.729 89.7287 157.199 89.5648 157.507 89.237C157.82 88.9092 157.977 88.3931 157.977 87.6886V86.5438C157.854 86.9939 157.641 87.3706 157.338 87.6739C157.035 87.9773 156.612 88.1289 156.069 88.1289C155.491 88.1289 154.98 87.9993 154.535 87.74C154.095 87.4807 153.745 87.0722 153.485 86.5145C153.231 85.9568 153.104 85.2523 153.104 84.401C153.104 83.5351 153.231 82.816 153.485 82.2436C153.74 81.6663 154.087 81.2407 154.527 80.9667C154.968 80.6927 155.467 80.5557 156.025 80.5557C156.406 80.5557 156.734 80.6242 157.008 80.7612C157.287 80.8982 157.504 81.0768 157.661 81.2969C157.822 81.5122 157.928 81.7446 157.977 81.9941L158.182 80.7319H159.62V87.6886C159.62 88.442 159.493 89.0902 159.239 89.6333C158.984 90.1812 158.608 90.5995 158.109 90.8881C157.61 91.1817 156.998 91.3284 156.274 91.3284C155.741 91.3284 155.256 91.2624 154.821 91.1303C154.39 91.0031 154.033 90.8539 153.75 90.6827L154.572 89.3031ZM156.435 86.6906C156.866 86.6906 157.201 86.49 157.441 86.0889C157.681 85.6828 157.8 85.1104 157.8 84.3717C157.8 83.6476 157.69 83.0777 157.47 82.6618C157.255 82.246 156.93 82.0381 156.494 82.0381C156.225 82.0381 155.978 82.1164 155.753 82.2729C155.528 82.4295 155.344 82.6839 155.203 83.0361C155.066 83.3835 154.997 83.8335 154.997 84.3864C154.997 85.1495 155.127 85.7244 155.386 86.1109C155.65 86.4974 156 86.6906 156.435 86.6906ZM164.707 88.2317C163.92 88.2317 163.269 88.0653 162.755 87.7327C162.242 87.3951 161.865 86.945 161.625 86.3824C161.391 85.8198 161.273 85.1838 161.273 84.4744C161.273 83.7504 161.405 83.0924 161.669 82.5004C161.938 81.9035 162.33 81.4314 162.844 81.0841C163.357 80.7319 163.969 80.5557 164.678 80.5557C165.735 80.5557 166.491 80.8615 166.946 81.473C167.401 82.0797 167.628 82.9872 167.628 84.1956C167.628 84.4304 167.618 84.6946 167.599 84.9881H163.196C163.225 85.5801 163.389 86.0375 163.687 86.3604C163.991 86.6784 164.434 86.8374 165.016 86.8374C165.319 86.8374 165.644 86.7713 165.992 86.6392C166.339 86.5023 166.596 86.3384 166.762 86.1476L167.349 87.5419C166.66 88.0017 165.779 88.2317 164.707 88.2317ZM165.764 83.8433C165.764 83.1242 165.674 82.63 165.493 82.361C165.317 82.087 165.06 81.95 164.722 81.95C164.248 81.95 163.878 82.1261 163.614 82.4784C163.355 82.8306 163.21 83.2856 163.181 83.8433H165.764ZM177.484 80.5557C178.204 80.5557 178.747 80.7881 179.114 81.2529C179.485 81.7128 179.671 82.3659 179.671 83.2122V88.0409H177.807V83.403C177.807 82.9774 177.724 82.6447 177.558 82.405C177.396 82.1604 177.147 82.0381 176.809 82.0381C176.579 82.0381 176.359 82.0968 176.149 82.2142C175.943 82.3316 175.777 82.4955 175.65 82.7059C175.523 82.9113 175.459 83.1437 175.459 83.403V88.0409H173.58V83.403C173.58 82.9872 173.487 82.6521 173.302 82.3977C173.121 82.1384 172.861 82.0087 172.524 82.0087C172.289 82.0087 172.074 82.0699 171.878 82.1922C171.682 82.3096 171.526 82.4759 171.408 82.6912C171.291 82.9016 171.232 83.1388 171.232 83.403V88.0409H169.353V80.7319H171.041L171.085 81.7005C171.579 80.9373 172.299 80.5557 173.243 80.5557C173.732 80.5557 174.141 80.6634 174.468 80.8786C174.801 81.0939 175.051 81.407 175.217 81.8179C175.716 80.9765 176.472 80.5557 177.484 80.5557ZM184.745 88.2317C183.957 88.2317 183.306 88.0653 182.793 87.7327C182.279 87.3951 181.902 86.945 181.663 86.3824C181.428 85.8198 181.31 85.1838 181.31 84.4744C181.31 83.7504 181.442 83.0924 181.707 82.5004C181.976 81.9035 182.367 81.4314 182.881 81.0841C183.394 80.7319 184.006 80.5557 184.715 80.5557C185.772 80.5557 186.528 80.8615 186.983 81.473C187.438 82.0797 187.665 82.9872 187.665 84.1956C187.665 84.4304 187.656 84.6946 187.636 84.9881H183.233C183.262 85.5801 183.426 86.0375 183.725 86.3604C184.028 86.6784 184.471 86.8374 185.053 86.8374C185.356 86.8374 185.682 86.7713 186.029 86.6392C186.376 86.5023 186.633 86.3384 186.799 86.1476L187.386 87.5419C186.697 88.0017 185.816 88.2317 184.745 88.2317ZM185.801 83.8433C185.801 83.1242 185.711 82.63 185.53 82.361C185.354 82.087 185.097 81.95 184.759 81.95C184.285 81.95 183.915 82.1261 183.651 82.4784C183.392 82.8306 183.248 83.2856 183.218 83.8433H185.801ZM193.28 80.5557C194.009 80.5557 194.557 80.7881 194.924 81.2529C195.296 81.7128 195.481 82.3659 195.481 83.2122V88.0409H193.603V83.3737C193.603 82.9578 193.515 82.6276 193.339 82.383C193.163 82.1335 192.903 82.0087 192.561 82.0087C192.331 82.0087 192.116 82.0674 191.915 82.1849C191.719 82.3023 191.563 82.4662 191.445 82.6765C191.328 82.882 191.269 83.1144 191.269 83.3737V88.0409H189.391V80.7319H191.093L191.13 81.6932C191.634 80.9349 192.35 80.5557 193.28 80.5557ZM199.996 88.261C199.453 88.261 199.027 88.1681 198.719 87.9822C198.411 87.7963 198.193 87.5174 198.066 87.1456C197.944 86.7689 197.883 86.2748 197.883 85.6632V82.2729H196.929V80.7319H197.956L198.059 79.1908L199.658 78.501V80.7319H201.464V82.2729H199.658V85.6192C199.658 86.0302 199.715 86.3212 199.827 86.4925C199.94 86.6637 200.108 86.7493 200.334 86.7493C200.534 86.7493 200.752 86.6979 200.987 86.5952C201.226 86.4876 201.424 86.3677 201.581 86.2356L201.933 87.718C201.718 87.8696 201.407 87.9968 201.001 88.0996C200.6 88.2072 200.265 88.261 199.996 88.261ZM208.73 88.2023C208.275 88.2023 207.845 88.1485 207.439 88.0409C207.037 87.9332 206.685 87.7938 206.382 87.6226C206.078 87.4513 205.839 87.2728 205.663 87.0869L206.411 85.5458C206.524 85.6926 206.695 85.8491 206.925 86.0155C207.155 86.1818 207.417 86.3237 207.71 86.4411C208.008 86.5585 208.304 86.6172 208.598 86.6172C208.984 86.6172 209.307 86.512 209.567 86.3017C209.831 86.0864 209.963 85.7855 209.963 85.3991C209.963 85.1495 209.902 84.9343 209.779 84.7533C209.662 84.5674 209.503 84.4035 209.302 84.2616C209.107 84.1148 208.803 83.9167 208.393 83.6672C207.83 83.3247 207.39 83.0337 207.072 82.7939C206.754 82.5493 206.477 82.2313 206.242 81.8399C206.012 81.4437 205.897 80.9667 205.897 80.409C205.897 79.8659 206.012 79.3865 206.242 78.9707C206.477 78.5499 206.822 78.2221 207.277 77.9873C207.732 77.7525 208.28 77.6351 208.921 77.6351C209.963 77.6351 210.834 77.9531 211.533 78.5891L210.711 80.0861C210.628 79.9687 210.504 79.8415 210.337 79.7045C210.171 79.5626 209.97 79.4428 209.735 79.3449C209.501 79.2422 209.254 79.1908 208.994 79.1908C208.618 79.1908 208.324 79.3009 208.114 79.521C207.908 79.7363 207.805 80.0078 207.805 80.3356C207.805 80.5851 207.867 80.8077 207.989 81.0034C208.116 81.1942 208.28 81.3654 208.481 81.5171C208.686 81.6687 208.96 81.8473 209.302 82.0528C209.924 82.4197 210.398 82.7279 210.726 82.9774C211.054 83.2269 211.328 83.5449 211.548 83.9314C211.773 84.313 211.886 84.7826 211.886 85.3403C211.886 85.9323 211.758 86.4435 211.504 86.8741C211.25 87.3046 210.885 87.6348 210.411 87.8647C209.936 88.0898 209.376 88.2023 208.73 88.2023ZM216.39 88.1876C215.676 88.1876 215.067 88.036 214.563 87.7327C214.059 87.4293 213.675 86.9939 213.411 86.4264C213.146 85.854 213.014 85.1691 213.014 84.3717C213.014 83.5742 213.149 82.8893 213.418 82.3169C213.692 81.7446 214.086 81.3091 214.599 81.0107C215.118 80.7074 215.734 80.5557 216.449 80.5557C217.158 80.5557 217.76 80.7123 218.254 81.0254C218.753 81.3336 219.13 81.7739 219.384 82.3463C219.638 82.9187 219.766 83.5938 219.766 84.3717C219.766 85.1447 219.634 85.8198 219.369 86.3971C219.105 86.9695 218.719 87.4122 218.21 87.7253C217.706 88.0335 217.099 88.1876 216.39 88.1876ZM216.419 86.72C216.874 86.72 217.219 86.5218 217.454 86.1256C217.694 85.7293 217.814 85.1447 217.814 84.3717C217.814 83.5938 217.694 83.0067 217.454 82.6105C217.219 82.2093 216.874 82.0087 216.419 82.0087C215.94 82.0087 215.578 82.1971 215.333 82.5738C215.089 82.9505 214.966 83.5498 214.966 84.3717C214.966 85.1936 215.089 85.7904 215.333 86.1622C215.578 86.5341 215.94 86.72 216.419 86.72ZM221.57 82.2729H220.587V80.7319H221.57V79.3816C221.57 78.682 221.7 78.1292 221.959 77.7231C222.218 77.3171 222.534 77.0382 222.906 76.8866C223.277 76.73 223.659 76.6517 224.05 76.6517C224.466 76.6517 224.804 76.6884 225.063 76.7618C225.327 76.8352 225.494 76.9061 225.562 76.9746V78.5744C225.459 78.4472 225.3 78.3469 225.085 78.2735C224.875 78.2001 224.682 78.1634 224.505 78.1634C223.732 78.1634 223.346 78.5548 223.346 79.3376V80.7319H225.122V82.2729H223.346V88.0409H221.57V82.2729ZM228.991 88.261C228.448 88.261 228.022 88.1681 227.714 87.9822C227.406 87.7963 227.188 87.5174 227.061 87.1456C226.939 86.7689 226.878 86.2748 226.878 85.6632V82.2729H225.924V80.7319H226.951L227.054 79.1908L228.653 78.501V80.7319H230.459V82.2729H228.653V85.6192C228.653 86.0302 228.71 86.3212 228.822 86.4925C228.935 86.6637 229.104 86.7493 229.329 86.7493C229.529 86.7493 229.747 86.6979 229.982 86.5952C230.221 86.4876 230.42 86.3677 230.576 86.2356L230.928 87.718C230.713 87.8696 230.402 87.9968 229.996 88.0996C229.595 88.2072 229.26 88.261 228.991 88.261ZM231.29 80.7319H233.154L234.035 84.2102L234.417 85.7513L234.74 84.2102L235.694 80.7319H237.22L238.233 84.2102L238.614 85.7513L238.952 84.2102L239.803 80.7319H241.608L239.304 88.0409H237.822L236.648 84.0635L236.413 82.8747L236.178 84.0635L235.092 88.0409H233.624L231.29 80.7319ZM244.248 88.2463C243.812 88.2463 243.445 88.1485 243.147 87.9528C242.849 87.7571 242.624 87.4929 242.472 87.1603C242.325 86.8276 242.252 86.4558 242.252 86.0448C242.252 85.6877 242.369 85.333 242.604 84.9808C242.844 84.6236 243.267 84.3203 243.873 84.0708C244.48 83.8213 245.3 83.6966 246.332 83.6966V83.359C246.332 82.9578 246.234 82.6472 246.038 82.427C245.848 82.2069 245.51 82.0968 245.026 82.0968C244.644 82.0968 244.27 82.1628 243.903 82.2949C243.541 82.4221 243.274 82.5811 243.103 82.7719L242.516 81.363C242.849 81.1379 243.262 80.9471 243.756 80.7906C244.25 80.634 244.776 80.5557 245.334 80.5557C246.033 80.5557 246.586 80.6634 246.992 80.8786C247.403 81.0939 247.692 81.3972 247.858 81.7886C248.025 82.18 248.108 82.6643 248.108 83.2416V88.0409H246.537L246.405 86.9988C246.146 87.4195 245.838 87.7327 245.481 87.9381C245.128 88.1436 244.717 88.2463 244.248 88.2463ZM245.026 86.8374C245.251 86.8374 245.488 86.7469 245.737 86.5659C245.987 86.3848 246.185 86.1574 246.332 85.8834V84.8413C246.263 84.8316 246.146 84.8267 245.98 84.8267C245.485 84.8267 245.043 84.9098 244.651 85.0762C244.265 85.2376 244.072 85.5018 244.072 85.8687C244.072 86.2161 244.147 86.4656 244.299 86.6172C244.456 86.764 244.698 86.8374 245.026 86.8374ZM250.002 80.7319H251.661L251.749 82.0234C251.905 81.6467 252.152 81.3238 252.49 81.0547C252.827 80.7808 253.304 80.6438 253.921 80.6438C254.165 80.6438 254.39 80.6829 254.596 80.7612L254.185 82.6839C254.102 82.6007 254.001 82.542 253.884 82.5077C253.772 82.4686 253.632 82.449 253.466 82.449C253.123 82.449 252.827 82.5224 252.578 82.6692C252.333 82.8111 252.147 82.9774 252.02 83.1682C251.898 83.359 251.837 83.5155 251.837 83.6378V88.0409H250.002V80.7319ZM258.501 88.2317C257.713 88.2317 257.063 88.0653 256.549 87.7327C256.035 87.3951 255.659 86.945 255.419 86.3824C255.184 85.8198 255.067 85.1838 255.067 84.4744C255.067 83.7504 255.199 83.0924 255.463 82.5004C255.732 81.9035 256.123 81.4314 256.637 81.0841C257.151 80.7319 257.762 80.5557 258.472 80.5557C259.528 80.5557 260.284 80.8615 260.739 81.473C261.194 82.0797 261.422 82.9872 261.422 84.1956C261.422 84.4304 261.412 84.6946 261.392 84.9881H256.989C257.019 85.5801 257.182 86.0375 257.481 86.3604C257.784 86.6784 258.227 86.8374 258.809 86.8374C259.112 86.8374 259.438 86.7713 259.785 86.6392C260.132 86.5023 260.389 86.3384 260.556 86.1476L261.143 87.5419C260.453 88.0017 259.572 88.2317 258.501 88.2317ZM259.558 83.8433C259.558 83.1242 259.467 82.63 259.286 82.361C259.11 82.087 258.853 81.95 258.516 81.95C258.041 81.95 257.672 82.1261 257.407 82.4784C257.148 82.8306 257.004 83.2856 256.975 83.8433H259.558Z" fill="white"/>
<path d="M71.8363 32.6228C70.8174 33.2902 69.4555 32.9831 68.7317 32.0035C62.8421 24.0328 53.3221 19.9986 43.7699 20.6847C42.2413 20.7944 41.482 22.4965 42.293 23.7968L51.2431 38.1479C51.5874 38.6999 51.4193 39.4269 50.8668 39.7714C50.3149 40.1157 49.5878 39.9476 49.2433 39.3951L39.0222 23.0062C38.5148 22.1926 37.5311 21.8004 36.6212 22.103C34.4416 22.8277 32.3091 23.8196 30.2701 25.0912C28.0726 26.4617 26.1215 28.074 24.4242 29.8671C23.7745 30.5534 23.7043 31.5924 24.2044 32.3942L34.3596 48.6775C34.7038 49.2294 34.5357 49.9565 33.9833 50.301C33.4308 50.6455 32.7043 50.4771 32.3597 49.9247L23.5419 35.7859C22.7223 34.4716 20.835 34.4215 20.0825 35.7753C15.5225 43.9786 15.0798 54.0868 19.5793 62.7151C20.1337 63.7783 19.8317 65.1141 18.8143 65.7487L16.963 66.9032C15.9456 67.5377 15.6352 68.8769 16.2698 69.8943L16.7612 70.6822C17.3957 71.6996 18.7348 72.01 19.7522 71.3755L76.0536 36.2628C77.071 35.6282 77.3814 34.2891 76.7469 33.2717L76.2101 32.411C75.5656 31.3776 74.1972 31.0764 73.1783 31.7438L71.8363 32.6228Z" fill="white"/>
<path d="M38.5227 67.2896C42.8834 73.9533 51.9253 75.8105 58.813 71.5149C65.719 67.208 68.1443 57.8054 63.6237 50.8993C63.6001 50.8631 63.5678 50.8173 63.5152 50.7428C62.8374 49.7821 61.535 49.4901 60.5373 50.1123L38.8194 63.6569C37.8219 64.2789 37.4944 65.5859 38.0943 66.5968C38.2637 66.8824 38.3855 67.08 38.5227 67.2896Z" fill="white"/>
<path d="M78.6469 50.3639C78.3445 49.3886 78.6858 48.3124 79.5407 47.754L82.1022 46.081C83.1068 45.4249 83.3887 44.0783 82.7317 43.0743L80.8271 40.1641C80.183 39.18 78.8724 38.8877 77.8711 39.5049L66.4527 46.5436C65.4837 47.1409 65.3309 48.4211 65.9535 49.374C71.319 57.5726 68.5008 68.7548 60.286 73.878C52.1192 78.9713 41.3837 76.7445 36.1922 68.8136C36.0957 68.666 36.0053 68.5227 35.9201 68.3829C35.2178 67.2311 33.7305 66.7143 32.5821 67.4222L21.5117 74.247C20.4715 74.8883 20.1652 76.2615 20.8344 77.284L23.6864 81.6417C24.3426 82.6443 25.687 82.9257 26.6902 82.2705L29.2084 80.6257C30.0576 80.0711 31.1721 80.1853 31.9423 80.8452C33.6288 82.2903 35.4653 83.5217 37.407 84.5305C38.3225 85.0061 38.844 86.0231 38.6217 87.0305L38.0082 89.8098C37.7458 90.9987 38.5122 92.171 39.7066 92.4075L47.4853 93.9476C48.6435 94.177 49.7726 93.4387 50.0271 92.2859L50.6732 89.3587C50.89 88.3766 51.7538 87.6808 52.7565 87.6034C54.9809 87.4316 57.2109 86.995 59.3837 86.2961C60.3715 85.9784 61.4676 86.3291 62.0244 87.2048L63.4267 89.4103C64.0683 90.4194 65.4052 90.7196 66.4167 90.0819L73.2936 85.7461C74.3201 85.0989 74.6168 83.7361 73.9524 82.7207L72.4191 80.3776C71.8588 79.5214 71.979 78.3956 72.6546 77.6271C74.1715 75.9019 75.4685 74.0276 76.5358 72.0508C77.0097 71.173 77.9871 70.6708 78.9657 70.8645L81.9301 71.4515C83.0882 71.6808 84.2173 70.9426 84.4718 69.7898L86.1758 62.0729C86.4396 60.8779 85.6643 59.7011 84.4622 59.4721L81.655 58.9371C80.6285 58.7415 79.8964 57.8414 79.8306 56.7985C79.6942 54.6335 79.2995 52.4688 78.6469 50.3639Z" fill="white"/>
</svg>
