<svg width="88" height="102" viewBox="0 0 88 102" fill="none" xmlns="http://www.w3.org/2000/svg">
<path d="M47.18 102H9.41827C6.92129 101.997 4.52742 101.003 2.76178 99.2366C0.996153 97.4699 0.00293245 95.0746 0 92.5761V9.42391C0.00293245 6.92544 0.996153 4.53013 2.76178 2.76344C4.52742 0.99675 6.92129 0.00293421 9.41827 0H47.18C49.6769 0.00293421 52.0708 0.99675 53.8364 2.76344C55.6021 4.53013 56.5953 6.92544 56.5982 9.42391V36.0326C56.5982 36.3267 56.4815 36.6087 56.2737 36.8166C56.0659 37.0245 55.7841 37.1413 55.4902 37.1413C55.1963 37.1413 54.9145 37.0245 54.7067 36.8166C54.4989 36.6087 54.3822 36.3267 54.3822 36.0326V9.42391C54.3792 7.51353 53.6195 5.68222 52.2695 4.33137C50.9194 2.98052 49.0892 2.22032 47.18 2.21739H9.41827C7.50902 2.22032 5.67882 2.98052 4.32877 4.33137C2.97873 5.68222 2.21899 7.51353 2.21606 9.42391V92.5761C2.21899 94.4865 2.97873 96.3178 4.32877 97.6686C5.67882 99.0195 7.50902 99.7797 9.41827 99.7826H47.18C49.0892 99.7797 50.9194 99.0195 52.2695 97.6686C53.6195 96.3178 54.3792 94.4865 54.3822 92.5761V60.5237C54.3822 60.2296 54.4989 59.9476 54.7067 59.7397C54.9145 59.5318 55.1963 59.415 55.4902 59.415C55.7841 59.415 56.0659 59.5318 56.2737 59.7397C56.4815 59.9476 56.5982 60.2296 56.5982 60.5237V92.5761C56.5953 95.0746 55.6021 97.4699 53.8364 99.2366C52.0708 101.003 49.6769 101.997 47.18 102Z" fill="black"/>
<path d="M36.4321 8.96935C36.1382 8.96935 35.8564 8.85254 35.6486 8.64462C35.4408 8.4367 35.324 8.1547 35.324 7.86066C35.3253 7.5698 35.4407 7.29107 35.6454 7.08457C35.8009 6.92664 36.0001 6.81898 36.2174 6.7755C36.4347 6.73202 36.66 6.75471 36.8642 6.84066C36.9992 6.89419 37.1205 6.97757 37.2188 7.08457C37.3224 7.18575 37.4052 7.30629 37.4625 7.43935C37.5155 7.5734 37.5419 7.71651 37.5401 7.86066C37.5409 8.00657 37.513 8.15121 37.4578 8.28629C37.4027 8.42137 37.3215 8.54423 37.2188 8.64783C37.1176 8.75153 36.9972 8.8344 36.8642 8.89174C36.7262 8.94431 36.5797 8.97063 36.4321 8.96935Z" fill="black"/>
<path d="M30.216 8.96934H20.2437C19.9499 8.96934 19.668 8.85254 19.4602 8.64461C19.2525 8.43669 19.1357 8.15469 19.1357 7.86065C19.1357 7.5666 19.2525 7.2846 19.4602 7.07668C19.668 6.86876 19.9499 6.75195 20.2437 6.75195H30.216C30.5099 6.75195 30.7917 6.86876 30.9995 7.07668C31.2073 7.2846 31.3241 7.5666 31.3241 7.86065C31.3241 8.15469 31.2073 8.43669 30.9995 8.64461C30.7917 8.85254 30.5099 8.96934 30.216 8.96934Z" fill="black"/>
<path d="M32.8421 94.8711H22.8698C22.5759 94.8711 22.2941 94.7543 22.0863 94.5464C21.8785 94.3384 21.7617 94.0564 21.7617 93.7624C21.7617 93.4683 21.8785 93.1863 22.0863 92.9784C22.2941 92.7705 22.5759 92.6537 22.8698 92.6537H32.8421C33.1359 92.6537 33.4178 92.7705 33.6256 92.9784C33.8334 93.1863 33.9501 93.4683 33.9501 93.7624C33.9501 94.0564 33.8334 94.3384 33.6256 94.5464C33.4178 94.7543 33.1359 94.8711 32.8421 94.8711Z" fill="black"/>
<path d="M36.2215 71.1339C36.0847 71.1351 35.949 71.1087 35.8226 71.0563C35.6144 70.9759 35.4353 70.8344 35.3087 70.6505C35.1822 70.4665 35.1141 70.2486 35.1135 70.0252V61.1556C32.6345 61.0413 30.2421 60.2082 28.2278 58.7578C26.2135 57.3074 24.664 55.3023 23.7681 52.9867C22.8722 50.671 22.6685 48.1446 23.1818 45.7151C23.6951 43.2857 24.9033 41.058 26.6592 39.3033C27.8351 38.0975 29.2393 37.1383 30.7898 36.4816C32.3403 35.8249 34.006 35.4838 35.6897 35.4783H75.5788C78.9063 35.5763 82.0647 36.9678 84.3838 39.3575C86.7029 41.7473 88 44.9472 88 48.2781C88 51.6091 86.7029 54.809 84.3838 57.1988C82.0647 59.5885 78.9063 60.98 75.5788 61.078H45.9279L37.0636 70.7348C36.9606 70.8585 36.832 70.9583 36.6865 71.0272C36.5411 71.0961 36.3824 71.1326 36.2215 71.1339ZM35.6897 37.6956C34.3006 37.6956 32.9251 37.9696 31.6419 38.5018C30.3587 39.0341 29.1929 39.8142 28.2112 40.7975C27.2295 41.7808 26.4511 42.9481 25.9205 44.2327C25.3899 45.5172 25.1176 46.8938 25.119 48.2837C25.122 51.088 26.2366 53.7766 28.2183 55.7595C30.2001 57.7424 32.8871 58.8577 35.6897 58.8606H36.2215C36.5154 58.8606 36.7972 58.9775 37.005 59.1854C37.2128 59.3933 37.3295 59.6753 37.3295 59.9693V67.1869L44.6315 59.2598C44.7348 59.1483 44.8599 59.0593 44.999 58.9983C45.1382 58.9372 45.2884 58.9055 45.4403 58.905H75.5899C78.3356 58.8161 80.9391 57.6621 82.85 55.6873C84.7608 53.7124 85.8292 51.0713 85.8292 48.3225C85.8292 45.5737 84.7608 42.9326 82.85 40.9577C80.9391 38.9828 78.3356 37.8289 75.5899 37.74L35.6897 37.6956Z" fill="black"/>
<path d="M36.7534 52.6187C36.4596 52.6187 36.1777 52.5019 35.97 52.294C35.7622 52.086 35.6454 51.804 35.6454 51.51V44.9354C35.6454 44.6414 35.7622 44.3594 35.97 44.1515C36.1777 43.9435 36.4596 43.8267 36.7534 43.8267C37.0473 43.8267 37.3291 43.9435 37.5369 44.1515C37.7447 44.3594 37.8615 44.6414 37.8615 44.9354V51.51C37.8615 51.804 37.7447 52.086 37.5369 52.294C37.3291 52.5019 37.0473 52.6187 36.7534 52.6187Z" fill="black"/>
<path d="M33.8061 51.1552C33.5643 51.1527 33.3299 51.0712 33.1388 50.923C32.9476 50.7748 32.8101 50.5681 32.7474 50.3344C32.6846 50.1007 32.6999 49.8529 32.7911 49.6288C32.8822 49.4046 33.0441 49.2165 33.2521 49.093L38.9363 45.767C39.0629 45.6942 39.2026 45.647 39.3474 45.6282C39.4922 45.6095 39.6392 45.6194 39.7802 45.6575C39.9212 45.6956 40.0532 45.7611 40.1689 45.8502C40.2846 45.9394 40.3815 46.0505 40.4543 46.1772C40.527 46.3038 40.5741 46.4436 40.5929 46.5885C40.6117 46.7334 40.6018 46.8805 40.5637 47.0216C40.5256 47.1626 40.4602 47.2948 40.371 47.4105C40.2819 47.5262 40.1709 47.6233 40.0443 47.6961L34.3601 51.0222C34.1902 51.1141 33.9992 51.1599 33.8061 51.1552Z" fill="black"/>
<path d="M39.7562 51.1552C39.5621 51.1565 39.371 51.1068 39.2022 51.0111L33.5069 47.685C33.2512 47.538 33.0644 47.2953 32.9875 47.0105C32.9106 46.7256 32.95 46.4219 33.0969 46.1661C33.2438 45.9103 33.4863 45.7233 33.771 45.6464C34.0557 45.5695 34.3592 45.6088 34.6149 45.7559L40.3102 49.0819C40.5182 49.2054 40.6801 49.3935 40.7712 49.6177C40.8623 49.8418 40.8777 50.0896 40.8149 50.3233C40.7521 50.557 40.6147 50.7637 40.4235 50.9119C40.2323 51.0601 39.998 51.1417 39.7562 51.1441V51.1552Z" fill="black"/>
<path d="M49.3407 52.6187C49.0468 52.6187 48.765 52.5019 48.5572 52.294C48.3494 52.086 48.2326 51.804 48.2326 51.51V44.9354C48.2326 44.6414 48.3494 44.3594 48.5572 44.1515C48.765 43.9435 49.0468 43.8267 49.3407 43.8267C49.6345 43.8267 49.9164 43.9435 50.1242 44.1515C50.332 44.3594 50.4487 44.6414 50.4487 44.9354V51.51C50.4487 51.804 50.332 52.086 50.1242 52.294C49.9164 52.5019 49.6345 52.6187 49.3407 52.6187Z" fill="black"/>
<path d="M46.4044 51.1552C46.2091 51.156 46.0171 51.1051 45.8479 51.0078C45.6786 50.9104 45.538 50.7701 45.4404 50.6009C45.2959 50.3463 45.258 50.0449 45.3348 49.7624C45.4116 49.4799 45.5969 49.2393 45.8504 49.093L51.5346 45.767C51.7902 45.6199 52.0938 45.5806 52.3785 45.6575C52.6631 45.7344 52.9056 45.9214 53.0526 46.1772C53.1995 46.433 53.2388 46.7367 53.162 47.0216C53.0851 47.3064 52.8983 47.5491 52.6426 47.6961L46.9584 51.0222C46.7885 51.1141 46.5975 51.1599 46.4044 51.1552Z" fill="black"/>
<path d="M52.299 51.1552C52.1049 51.1565 51.9139 51.1068 51.745 51.0111L46.0497 47.685C45.7941 47.538 45.6073 47.2953 45.5304 47.0105C45.4535 46.7256 45.4928 46.4219 45.6398 46.1661C45.7867 45.9103 46.0292 45.7233 46.3139 45.6464C46.5985 45.5695 46.9021 45.6088 47.1578 45.7559L52.8531 49.0819C53.061 49.2054 53.2229 49.3935 53.3141 49.6177C53.4052 49.8418 53.4206 50.0896 53.3578 50.3233C53.295 50.557 53.1575 50.7637 52.9664 50.9119C52.7752 51.0601 52.5409 51.1417 52.299 51.1441V51.1552Z" fill="black"/>
<path d="M61.9168 52.6187C61.6229 52.6187 61.3411 52.5019 61.1333 52.294C60.9255 52.086 60.8087 51.804 60.8087 51.51V44.9354C60.8087 44.6414 60.9255 44.3594 61.1333 44.1515C61.3411 43.9435 61.6229 43.8267 61.9168 43.8267C62.2106 43.8267 62.4925 43.9435 62.7003 44.1515C62.9081 44.3594 63.0248 44.6414 63.0248 44.9354V51.51C63.0248 51.804 62.9081 52.086 62.7003 52.294C62.4925 52.5019 62.2106 52.6187 61.9168 52.6187Z" fill="black"/>
<path d="M58.9805 51.1552C58.7853 51.156 58.5933 51.1051 58.424 51.0078C58.2547 50.9104 58.1141 50.7701 58.0165 50.6009C57.8721 50.3463 57.8341 50.0449 57.9109 49.7624C57.9877 49.4799 58.1731 49.2393 58.4265 49.093L64.1107 45.767C64.3664 45.6199 64.6699 45.5806 64.9546 45.6575C65.2393 45.7344 65.4818 45.9214 65.6287 46.1772C65.7756 46.433 65.815 46.7367 65.7381 47.0216C65.6612 47.3064 65.4744 47.5491 65.2187 47.6961L59.5345 51.0222C59.3646 51.1141 59.1736 51.1599 58.9805 51.1552Z" fill="black"/>
<path d="M64.8863 51.1552C64.6922 51.1566 64.5011 51.1069 64.3322 51.0111L58.637 47.685C58.5109 47.6116 58.4006 47.5141 58.3123 47.398C58.224 47.2819 58.1595 47.1495 58.1224 47.0084C58.0854 46.8673 58.0765 46.7202 58.0963 46.5757C58.1162 46.4312 58.1644 46.292 58.2381 46.1661C58.3908 45.9317 58.6263 45.7637 58.8976 45.6959C59.1689 45.628 59.4557 45.6653 59.7007 45.8002L65.396 49.1263C65.6039 49.2498 65.7659 49.4379 65.857 49.662C65.9481 49.8862 65.9635 50.134 65.9007 50.3677C65.8379 50.6013 65.7004 50.808 65.5093 50.9562C65.3181 51.1045 65.0838 51.186 64.8419 51.1885L64.8863 51.1552Z" fill="black"/>
<path d="M74.5262 52.6187C74.2323 52.6187 73.9505 52.5019 73.7427 52.294C73.5349 52.086 73.4182 51.804 73.4182 51.51V44.9354C73.4182 44.6414 73.5349 44.3594 73.7427 44.1515C73.9505 43.9435 74.2323 43.8267 74.5262 43.8267C74.8201 43.8267 75.1019 43.9435 75.3097 44.1515C75.5175 44.3594 75.6342 44.6414 75.6342 44.9354V51.51C75.6342 51.804 75.5175 52.086 75.3097 52.294C75.1019 52.5019 74.8201 52.6187 74.5262 52.6187Z" fill="black"/>
<path d="M71.5677 51.1552C71.3725 51.156 71.1805 51.1051 71.0112 51.0078C70.8419 50.9104 70.7014 50.7701 70.6037 50.6009C70.4593 50.3463 70.4213 50.0449 70.4981 49.7624C70.5749 49.4799 70.7603 49.2393 71.0137 49.093L76.709 45.767C76.9647 45.6199 77.2682 45.5806 77.5529 45.6575C77.8376 45.7344 78.0801 45.9214 78.227 46.1772C78.3739 46.433 78.4133 46.7367 78.3364 47.0216C78.2595 47.3064 78.0727 47.5491 77.817 47.6961L72.1217 51.0222C71.9518 51.1141 71.7608 51.1599 71.5677 51.1552Z" fill="black"/>
<path d="M77.4292 51.1552C77.2351 51.1565 77.0441 51.1068 76.8752 51.0111L71.1799 47.685C70.9372 47.5373 70.7604 47.3018 70.6862 47.0274C70.6119 46.753 70.6459 46.4605 70.781 46.2104C70.9272 45.9568 71.1677 45.7714 71.45 45.6945C71.7323 45.6177 72.0335 45.6557 72.288 45.8002L77.9832 49.1263C78.2367 49.2726 78.422 49.5132 78.4988 49.7957C78.5756 50.0781 78.5377 50.3795 78.3932 50.6341C78.2914 50.7971 78.1491 50.9309 77.9801 51.0222C77.8111 51.1136 77.6213 51.1594 77.4292 51.1552Z" fill="black"/>
</svg>
