<svg width="92" height="96" viewBox="0 0 92 96" fill="none" xmlns="http://www.w3.org/2000/svg">
<path d="M91.5609 19.5644C92.3719 17.5025 91.9587 15.2269 90.5508 13.8829C89.0052 12.4015 86.5415 12.1876 83.4349 13.2567C82.9605 13.4247 82.5015 13.5775 82.073 13.7607C82.073 11.7753 82.073 9.89673 82.0577 8.18618C82.0424 3.66545 78.3543 0 73.8246 0H69.2337C69.2184 0 69.1878 0 69.1725 0H44.9325C44.9172 0 44.8866 0 44.8713 0H42.7442C42.7136 0 42.6983 0 42.6677 0H41.5046C39.301 0 37.2198 0.855273 35.6742 2.41309C34.1133 3.97091 33.2716 6.03273 33.2716 8.232C33.2869 12.7527 33.2869 18.4036 33.2869 24.528C32.5983 24.0698 31.8331 23.7033 30.9915 23.4436C29.9049 23.1076 28.7572 23.3062 27.839 23.9782C26.9208 24.6655 26.3852 25.7498 26.4158 26.8953C26.4465 29.1251 25.9261 31.5993 24.809 34.44C24.2428 35.8909 23.5695 37.3265 22.9268 38.7316C22.0392 40.6255 21.1363 42.5956 20.4324 44.6422C19.7437 46.6582 19.254 48.7658 18.7949 50.8124C18.1369 53.6378 17.5095 56.3716 16.4077 58.8C15.5354 57.7156 14.3111 56.952 12.9339 56.6313C11.2505 56.2342 9.5213 56.5244 8.06751 57.4407L4.16524 59.8996C3.78266 60.144 3.41539 60.4342 3.09403 60.7396L2.9716 60.816C0.0334218 62.664 -0.88476 66.5891 0.9363 69.5367L15.0763 92.5069C15.9792 93.9731 17.3871 94.9964 19.0704 95.3934C19.5601 95.5004 20.0498 95.5615 20.5395 95.5615C21.7331 95.5615 22.8962 95.2255 23.9368 94.584L27.8237 92.1251C28.2063 91.896 28.5277 91.6058 28.849 91.3156L28.8949 91.2851L29.0327 91.1935C30.9455 89.9869 32.0015 87.9098 32.0015 85.7869C32.0015 85.0385 31.8637 84.2749 31.6036 83.5571C32.6748 83.2058 33.7613 82.824 34.8172 82.4269C36.3169 84.5345 38.7654 85.9091 41.5352 85.9091H42.7442C42.7595 85.9091 42.7595 85.9091 42.7748 85.9091H73.8858C76.0895 85.9091 78.1554 85.0538 79.7163 83.496C81.2619 81.9382 82.1189 79.8611 82.1189 77.6771C82.1036 72.8662 82.1036 66.7724 82.1036 60.1745C83.6492 59.4262 85.1183 58.4945 86.4496 57.4407C87.5209 56.5855 88.8369 55.3789 89.4949 53.6989C90.2295 51.8204 89.8622 49.728 88.5615 48.5062C87.9646 47.9258 87.0005 47.376 85.5315 47.3302C86.5262 46.4444 87.5668 45.3142 88.1483 43.8327C88.944 41.7709 88.5462 39.4953 87.1383 38.1665C86.2354 37.3113 85.0112 36.8684 83.5421 36.8684C84.5061 35.9978 85.4855 34.8829 86.0365 33.4625C86.8322 31.4007 86.4343 29.1251 85.0418 27.7811C84.5521 27.3076 83.9552 26.9716 83.2972 26.7578H83.2819C85.0418 25.9178 86.7098 24.8793 88.2401 23.6727C89.3878 22.7564 90.8416 21.4276 91.5609 19.5644ZM65.6834 3.89455C65.6834 4.56655 65.1325 5.10109 64.4745 5.10109C63.8165 5.10109 63.2655 4.56655 63.2655 3.89455C63.2655 3.23782 63.8165 2.688 64.4745 2.688C65.1478 2.688 65.6834 3.23782 65.6834 3.89455ZM61.016 3.89455C61.016 4.50545 60.5263 4.99418 59.9142 4.99418H49.6918C49.0796 4.99418 48.5899 4.50545 48.5899 3.89455C48.5899 3.28364 49.0796 2.79491 49.6918 2.79491H59.9142C60.5263 2.79491 61.016 3.28364 61.016 3.89455ZM15.0151 60.6785L15.8415 62.0225C15.8415 62.0225 15.8415 62.0225 15.8415 62.0378C15.566 62.4502 15.2599 62.8473 14.908 63.2444L15.9486 62.2211L29.1398 83.664C30.3334 85.6036 29.7213 88.1542 27.8084 89.376L23.9061 91.8349C22.9574 92.4305 21.8249 92.6291 20.7231 92.3695C19.6213 92.1098 18.6878 91.4378 18.1063 90.4756L3.9816 67.4749C2.78797 65.5353 3.40009 62.9847 5.31297 61.7629L9.21524 59.304C9.88857 58.8764 10.6537 58.6625 11.4342 58.6625C11.7555 58.6625 12.0769 58.6931 12.3983 58.7695C13.4848 59.0444 14.4183 59.7164 15.0151 60.6785ZM30.4865 81.6175L17.7696 60.9535V60.9382C17.938 60.6175 18.1063 60.2815 18.2746 59.9455L21.6566 56.6618C21.4424 56.3564 21.2281 56.0509 21.0292 55.7455C20.7384 55.2873 20.463 54.8138 20.2028 54.3251C20.463 53.3171 20.6925 52.3091 20.9221 51.3164C21.3811 49.3309 21.8555 47.2691 22.4983 45.36C23.1563 43.4356 24.0439 41.5265 24.9008 39.6785C25.5589 38.2429 26.2475 36.7767 26.8443 35.2647C28.0686 32.1491 28.6348 29.4153 28.6042 26.88C28.6042 26.4371 28.8031 26.0247 29.1551 25.7651C29.4918 25.5055 29.9202 25.4291 30.3334 25.5665C31.8637 26.04 33.0574 26.9258 33.8837 28.2087C35.3222 30.4233 35.8884 33.3404 35.4752 36.4102C35.0927 39.2967 32.6136 44.5811 30.364 46.4291C29.8896 46.8109 29.8284 47.5135 30.211 47.9869C30.5936 48.4604 31.2975 48.5215 31.7719 48.1396C32.2769 47.7273 32.7819 47.1775 33.2716 46.5665C33.2563 58.1433 33.2563 69.7353 33.2869 77.7687C33.2869 78.7309 33.4705 79.6473 33.7766 80.5025C32.6748 80.8844 31.5883 81.2509 30.4865 81.6175ZM76.8852 81.9687C75.7528 83.1142 74.2225 83.7404 72.6157 83.7404H41.5046C38.1839 83.7404 35.4905 81.0524 35.4752 77.7535C35.4446 68.9258 35.4599 55.7913 35.4752 43.0996C35.4752 43.0691 35.4752 43.0538 35.4752 43.0233C36.5924 40.824 37.4187 38.4415 37.6483 36.6851C38.1227 33.096 37.434 29.6596 35.7201 27.0022C35.6436 26.88 35.5671 26.7731 35.4905 26.6662C35.4905 19.7171 35.4905 13.272 35.4752 8.232C35.4752 6.62836 36.0874 5.11636 37.2351 3.97091C38.3675 2.82545 39.8978 2.19927 41.5046 2.19927H44.198L45.9119 6.10909C46.4169 7.28509 47.5799 8.03345 48.8654 8.03345H65.2549C66.5404 8.03345 67.6881 7.26982 68.2084 6.10909L69.9224 2.19927H72.6004C75.9059 2.19927 78.6145 4.88727 78.6298 8.18618C78.6451 13.3025 78.6451 19.8698 78.6451 26.9564C78.4155 27.0175 78.1554 27.0938 77.9105 27.1855C71.1619 29.4916 67.1984 32.5767 65.7752 36.5476C65.1937 38.1971 65.3774 39.8771 66.2649 41.0684C67.1372 42.2291 68.5451 42.84 70.3202 42.84C70.3968 42.84 70.458 42.84 70.5345 42.84C69.2796 44.0771 68.4074 45.4364 67.8718 46.9178C67.2902 48.5673 67.4739 50.2625 68.3615 51.4538C69.2337 52.6145 70.6263 53.2102 72.4168 53.2102C72.6463 53.2102 72.8758 53.2102 73.1054 53.1796C72.2331 54.1571 71.5904 55.2262 71.1772 56.3716C70.6416 57.8836 70.8099 59.4262 71.621 60.5258C72.4168 61.5949 73.7022 62.1447 75.3396 62.1447C76.0589 62.1447 76.8546 62.0378 77.7116 61.8087C78.0177 61.7324 78.3084 61.6407 78.6145 61.5491C78.6145 67.6276 78.6145 73.2175 78.6298 77.6924C78.6451 79.3113 78.0177 80.8233 76.8852 81.9687ZM87.0005 50.1251C87.628 50.736 87.7963 51.8815 87.3831 52.92C87.0159 53.8516 86.2966 54.7222 85.0265 55.7455C82.731 57.5782 80.0071 58.9375 77.1607 59.6858C76.3037 59.8996 74.2225 60.2967 73.3961 59.2124C72.9677 58.6167 73.0289 57.7462 73.2584 57.12C74.299 54.2029 77.4209 51.8967 82.7922 50.0335C84.1542 49.56 86.0212 49.1782 87.0005 50.1251ZM85.5927 39.7702C86.4649 40.5949 86.4496 42.0611 86.0671 43.0385C85.6539 44.1076 84.8275 45.1004 83.3737 46.2611C80.7875 48.3382 77.7116 49.8807 74.498 50.7055C73.5033 50.9651 71.1007 51.4233 70.1213 50.1251C69.601 49.4073 69.6928 48.384 69.953 47.6509C71.1313 44.3367 74.651 41.7098 80.7263 39.6327C82.3025 39.0982 84.4296 38.6705 85.5927 39.7702ZM83.4962 29.4C84.246 30.1178 84.4449 31.4618 83.9706 32.6836C83.5574 33.7527 82.7157 34.7455 81.2772 35.9062C78.691 37.9833 75.6151 39.5258 72.4015 40.3505C71.4221 40.6102 69.0042 41.0684 68.0401 39.7702C67.5045 39.0676 67.6116 38.0291 67.8565 37.296C69.0348 33.9971 72.5545 31.3549 78.6298 29.2778C80.206 28.728 82.3331 28.3004 83.4962 29.4ZM86.8169 21.9775C85.3784 23.1382 83.7716 24.1156 82.0883 24.9098C82.0883 21.84 82.0883 18.8924 82.0883 16.128C82.7463 15.8531 83.4349 15.5935 84.1695 15.3491C85.0265 15.0589 86.0365 14.7993 86.9699 14.7993C87.7657 14.7993 88.5002 14.9825 89.0359 15.4865C89.7857 16.2044 89.9846 17.5484 89.5102 18.7702C89.0971 19.8393 88.2707 20.832 86.8169 21.9775Z" fill="black"/>
<path d="M61.1232 78.1811H52.9819C52.3698 78.1811 51.8801 78.6698 51.8801 79.2807C51.8801 79.8916 52.3698 80.3804 52.9819 80.3804H61.1232C61.7353 80.3804 62.225 79.8916 62.225 79.2807C62.225 78.6698 61.72 78.1811 61.1232 78.1811Z" fill="black"/>
<path d="M24.3194 86.1993C26.0792 83.8167 22.3759 81.3884 20.5701 83.4807C18.6573 85.6647 22.5442 88.5818 24.3194 86.1993Z" fill="black"/>
<path d="M43.5858 66.1462C44.0908 66.1462 44.504 65.7338 44.504 65.2298V49.5295C44.504 49.0255 44.0908 48.6131 43.5858 48.6131C43.0808 48.6131 42.6677 49.0255 42.6677 49.5295V65.2298C42.6677 65.7338 43.0808 66.1462 43.5858 66.1462Z" fill="black"/>
<path d="M43.8307 69.7964C43.3257 69.7964 42.9125 70.2087 42.9125 70.7127V71.4458C42.9125 71.9498 43.3257 72.3622 43.8307 72.3622C44.3357 72.3622 44.7489 71.9498 44.7489 71.4458V70.7127C44.7489 70.2087 44.3357 69.7964 43.8307 69.7964Z" fill="black"/>
</svg>
