<svg width="144" height="28" viewBox="0 0 144 28" fill="none" xmlns="http://www.w3.org/2000/svg">
<path d="M1.992 13.568V17H0.9V8.684H3.6C4.224 8.684 4.752 8.792 5.184 9.008C5.616 9.216 5.94 9.508 6.156 9.884C6.372 10.252 6.48 10.668 6.48 11.132C6.48 11.836 6.24 12.42 5.76 12.884C5.288 13.34 4.568 13.568 3.6 13.568H1.992ZM3.6 12.704C4.2 12.704 4.644 12.568 4.932 12.296C5.228 12.016 5.376 11.628 5.376 11.132C5.376 10.636 5.232 10.252 4.944 9.98C4.656 9.7 4.208 9.56 3.6 9.56H1.992V12.704H3.6ZM10.7295 10.304C11.3535 10.304 11.9175 10.444 12.4215 10.724C12.9255 11.004 13.3215 11.404 13.6095 11.924C13.9055 12.444 14.0535 13.04 14.0535 13.712C14.0535 14.376 13.9015 14.968 13.5975 15.488C13.2935 16 12.8815 16.4 12.3615 16.688C11.8415 16.968 11.2655 17.108 10.6335 17.108C10.0175 17.108 9.4615 16.968 8.9655 16.688C8.4775 16.408 8.0935 16.012 7.8135 15.5C7.5415 14.98 7.4055 14.384 7.4055 13.712C7.4055 13.032 7.5495 12.436 7.8375 11.924C8.1335 11.404 8.5335 11.004 9.0375 10.724C9.5415 10.444 10.1055 10.304 10.7295 10.304ZM10.6935 11.204C10.2935 11.204 9.9295 11.3 9.6015 11.492C9.2735 11.684 9.0095 11.968 8.8095 12.344C8.6175 12.72 8.5215 13.176 8.5215 13.712C8.5215 14.24 8.6135 14.692 8.7975 15.068C8.9895 15.444 9.2455 15.728 9.5655 15.92C9.8855 16.112 10.2415 16.208 10.6335 16.208C11.0335 16.208 11.4055 16.112 11.7495 15.92C12.1015 15.72 12.3855 15.432 12.6015 15.056C12.8175 14.68 12.9255 14.232 12.9255 13.712C12.9255 13.184 12.8215 12.732 12.6135 12.356C12.4135 11.972 12.1415 11.684 11.7975 11.492C11.4615 11.3 11.0935 11.204 10.6935 11.204ZM24.0715 10.412L21.9955 17H20.8675L19.3795 11.768L17.8915 17H16.7515L14.6635 10.412H15.7915L17.3155 15.908L18.8635 10.412H19.9915L21.4555 15.92L22.9675 10.412H24.0715ZM31.0869 13.436C31.0869 13.668 31.0709 13.884 31.0389 14.084H25.7949C25.8269 14.74 26.0309 15.26 26.4069 15.644C26.7909 16.02 27.2789 16.208 27.8709 16.208C28.3189 16.208 28.6949 16.108 28.9989 15.908C29.3109 15.708 29.5389 15.444 29.6829 15.116H30.8589C30.6509 15.692 30.2909 16.168 29.7789 16.544C29.2749 16.92 28.6389 17.108 27.8709 17.108C27.2549 17.108 26.7029 16.968 26.2149 16.688C25.7349 16.408 25.3589 16.012 25.0869 15.5C24.8149 14.98 24.6789 14.384 24.6789 13.712C24.6789 13.032 24.8149 12.436 25.0869 11.924C25.3589 11.404 25.7429 11.004 26.2389 10.724C26.7349 10.444 27.3069 10.304 27.9549 10.304C28.5709 10.304 29.1149 10.44 29.5869 10.712C30.0589 10.984 30.4269 11.356 30.6909 11.828C30.9549 12.3 31.0869 12.836 31.0869 13.436ZM29.9469 13.292C29.9469 12.868 29.8549 12.5 29.6709 12.188C29.4869 11.868 29.2349 11.624 28.9149 11.456C28.6029 11.288 28.2549 11.204 27.8709 11.204C27.3029 11.204 26.8269 11.392 26.4429 11.768C26.0589 12.136 25.8469 12.644 25.8069 13.292H29.9469ZM33.5389 11.528C33.9309 10.712 34.5989 10.304 35.5429 10.304V11.444H35.2549C34.6949 11.444 34.2669 11.592 33.9709 11.888C33.6829 12.176 33.5389 12.68 33.5389 13.4V17H32.4469V10.412H33.5389V11.528ZM42.8408 13.436C42.8408 13.668 42.8248 13.884 42.7928 14.084H37.5488C37.5808 14.74 37.7848 15.26 38.1608 15.644C38.5448 16.02 39.0328 16.208 39.6248 16.208C40.0728 16.208 40.4488 16.108 40.7528 15.908C41.0648 15.708 41.2928 15.444 41.4368 15.116H42.6128C42.4048 15.692 42.0448 16.168 41.5328 16.544C41.0288 16.92 40.3928 17.108 39.6248 17.108C39.0088 17.108 38.4568 16.968 37.9688 16.688C37.4888 16.408 37.1128 16.012 36.8408 15.5C36.5688 14.98 36.4328 14.384 36.4328 13.712C36.4328 13.032 36.5688 12.436 36.8408 11.924C37.1128 11.404 37.4968 11.004 37.9928 10.724C38.4888 10.444 39.0608 10.304 39.7088 10.304C40.3248 10.304 40.8688 10.44 41.3408 10.712C41.8128 10.984 42.1808 11.356 42.4448 11.828C42.7088 12.3 42.8408 12.836 42.8408 13.436ZM41.7008 13.292C41.7008 12.868 41.6088 12.5 41.4248 12.188C41.2408 11.868 40.9888 11.624 40.6688 11.456C40.3568 11.288 40.0088 11.204 39.6248 11.204C39.0568 11.204 38.5808 11.392 38.1968 11.768C37.8128 12.136 37.6008 12.644 37.5608 13.292H41.7008ZM46.9128 10.304C47.4728 10.304 47.9608 10.436 48.3768 10.7C48.8008 10.964 49.1208 11.308 49.3368 11.732V8.12H50.4408V17H49.3368V15.656C49.1208 16.088 48.8008 16.44 48.3768 16.712C47.9608 16.976 47.4728 17.108 46.9128 17.108C46.3208 17.108 45.7848 16.964 45.3048 16.676C44.8328 16.38 44.4568 15.972 44.1768 15.452C43.9048 14.924 43.7688 14.328 43.7688 13.664C43.7688 13 43.9048 12.416 44.1768 11.912C44.4568 11.4 44.8328 11.004 45.3048 10.724C45.7848 10.444 46.3208 10.304 46.9128 10.304ZM47.1048 11.252C46.7128 11.252 46.3448 11.348 46.0008 11.54C45.6648 11.732 45.3928 12.012 45.1848 12.38C44.9848 12.74 44.8848 13.168 44.8848 13.664C44.8848 14.16 44.9848 14.6 45.1848 14.984C45.3928 15.36 45.6648 15.652 46.0008 15.86C46.3448 16.068 46.7128 16.172 47.1048 16.172C47.5048 16.172 47.8728 16.072 48.2088 15.872C48.5528 15.672 48.8248 15.388 49.0248 15.02C49.2328 14.644 49.3368 14.208 49.3368 13.712C49.3368 13.216 49.2328 12.784 49.0248 12.416C48.8248 12.04 48.5528 11.752 48.2088 11.552C47.8728 11.352 47.5048 11.252 47.1048 11.252ZM59.3655 10.304C59.9575 10.304 60.4895 10.444 60.9615 10.724C61.4415 11.004 61.8175 11.4 62.0895 11.912C62.3695 12.416 62.5095 13 62.5095 13.664C62.5095 14.328 62.3695 14.924 62.0895 15.452C61.8175 15.972 61.4415 16.38 60.9615 16.676C60.4895 16.964 59.9575 17.108 59.3655 17.108C58.8055 17.108 58.3135 16.976 57.8895 16.712C57.4735 16.44 57.1535 16.088 56.9295 15.656V17H55.8375V8.12H56.9295V11.732C57.1535 11.308 57.4735 10.964 57.8895 10.7C58.3135 10.436 58.8055 10.304 59.3655 10.304ZM59.1495 11.252C58.7575 11.252 58.3895 11.352 58.0455 11.552C57.7095 11.752 57.4375 12.04 57.2295 12.416C57.0295 12.784 56.9295 13.216 56.9295 13.712C56.9295 14.208 57.0295 14.644 57.2295 15.02C57.4375 15.388 57.7095 15.672 58.0455 15.872C58.3895 16.072 58.7575 16.172 59.1495 16.172C59.5415 16.172 59.9095 16.072 60.2535 15.872C60.5975 15.664 60.8695 15.368 61.0695 14.984C61.2775 14.6 61.3815 14.16 61.3815 13.664C61.3815 13.168 61.2775 12.74 61.0695 12.38C60.8695 12.012 60.5975 11.732 60.2535 11.54C59.9175 11.348 59.5495 11.252 59.1495 11.252ZM64.3206 10.412L66.3366 15.74L68.3886 10.412H69.5166L65.5446 20.084H64.4166L65.7246 16.892L63.1206 10.412H64.3206Z" fill="#B0B0B0"/>
<path d="M99.2202 18.0783V16.0427L108.224 16.0583C108.683 16.0583 109.033 15.9539 109.273 15.7452C109.524 15.5259 109.649 15.1762 109.649 14.696C109.649 14.2159 109.524 13.8714 109.273 13.6626C109.033 13.4434 108.683 13.3338 108.224 13.3338H102.618C101.459 13.3338 100.556 13.0571 99.9092 12.5039C99.2724 11.9401 98.954 11.1155 98.954 10.0298C98.954 8.94414 99.2724 8.12468 99.9092 7.57141C100.556 7.0077 101.459 6.72585 102.618 6.72585H111.418V8.76146L102.884 8.7458C102.435 8.7458 102.086 8.85019 101.835 9.05897C101.585 9.25731 101.459 9.58092 101.459 10.0298C101.459 10.4787 101.585 10.8075 101.835 11.0163C102.086 11.2146 102.435 11.3138 102.884 11.3138H108.49C109.649 11.3138 110.547 11.6009 111.183 12.175C111.831 12.7387 112.154 13.5791 112.154 14.696C112.154 15.8026 111.831 16.6429 111.183 17.2171C110.547 17.7912 109.649 18.0783 108.49 18.0783H99.2202ZM113.725 18V6.80414H115.823L121.006 10.4369H121.085L126.268 6.80414H128.366V18H125.86V9.93585L122.306 12.3159V18H119.801V12.3159L116.23 9.93585V18H113.725ZM130.201 18.0783V16.0427L139.205 16.0583C139.664 16.0583 140.014 15.9539 140.254 15.7452C140.504 15.5259 140.629 15.1762 140.629 14.696C140.629 14.2159 140.504 13.8714 140.254 13.6626C140.014 13.4434 139.664 13.3338 139.205 13.3338H133.599C132.44 13.3338 131.537 13.0571 130.89 12.5039C130.253 11.9401 129.935 11.1155 129.935 10.0298C129.935 8.94414 130.253 8.12468 130.89 7.57141C131.537 7.0077 132.44 6.72585 133.599 6.72585H142.399V8.76146L133.865 8.7458C133.416 8.7458 133.066 8.85019 132.816 9.05897C132.565 9.25731 132.44 9.58092 132.44 10.0298C132.44 10.4787 132.565 10.8075 132.816 11.0163C133.066 11.2146 133.416 11.3138 133.865 11.3138H139.471C140.629 11.3138 141.527 11.6009 142.164 12.175C142.811 12.7387 143.135 13.5791 143.135 14.696C143.135 15.8026 142.811 16.6429 142.164 17.2171C141.527 17.7912 140.629 18.0783 139.471 18.0783H130.201Z" fill="#DE0C0C"/>
<path d="M99.7388 23.2978C99.6202 23.2978 99.508 23.2838 99.4022 23.2558C99.2976 23.2277 99.2058 23.1914 99.1267 23.1467C99.0477 23.1021 98.9852 23.0556 98.9393 23.0071L99.1344 22.6054C99.1637 22.6437 99.2083 22.6845 99.2683 22.7279C99.3282 22.7712 99.3964 22.8082 99.4729 22.8388C99.5507 22.8694 99.6279 22.8847 99.7044 22.8847C99.8051 22.8847 99.8893 22.8573 99.9569 22.8025C100.026 22.7464 100.06 22.6679 100.06 22.5672C100.06 22.5022 100.044 22.4461 100.012 22.3989C99.9817 22.3504 99.9403 22.3077 99.888 22.2707C99.837 22.2325 99.7579 22.1808 99.6508 22.1158C99.5042 22.0265 99.3894 21.9507 99.3065 21.8882C99.2237 21.8244 99.1516 21.7415 99.0904 21.6395C99.0305 21.5362 99.0005 21.4119 99.0005 21.2666C99.0005 21.125 99.0305 21 99.0904 20.8917C99.1516 20.782 99.2415 20.6966 99.3601 20.6354C99.4787 20.5742 99.6215 20.5436 99.7885 20.5436C100.06 20.5436 100.287 20.6264 100.469 20.7922L100.255 21.1824C100.234 21.1518 100.201 21.1186 100.158 21.0829C100.114 21.046 100.062 21.0147 100.001 20.9892C99.9396 20.9624 99.8752 20.949 99.8077 20.949C99.7095 20.949 99.633 20.9777 99.5781 21.0351C99.5246 21.0912 99.4978 21.162 99.4978 21.2474C99.4978 21.3125 99.5137 21.3705 99.5456 21.4215C99.5788 21.4712 99.6215 21.5158 99.6738 21.5554C99.7273 21.5949 99.7987 21.6414 99.888 21.695C100.05 21.7906 100.174 21.871 100.259 21.936C100.344 22.001 100.416 22.0839 100.473 22.1847C100.532 22.2841 100.561 22.4065 100.561 22.5519C100.561 22.7062 100.528 22.8394 100.462 22.9516C100.396 23.0639 100.301 23.1499 100.177 23.2099C100.053 23.2685 99.9071 23.2978 99.7388 23.2978ZM100.963 20.5321H101.498V21.0409H100.963V20.5321ZM100.982 21.3507H101.479V23.2558H100.982V21.3507ZM102.677 23.3131C102.536 23.3131 102.425 23.2889 102.345 23.2405C102.264 23.192 102.208 23.1193 102.174 23.0224C102.142 22.9242 102.127 22.7954 102.127 22.6361V21.7524H101.878V21.3507H102.146L102.172 20.949L102.589 20.7692V21.3507H103.06V21.7524H102.589V22.6246C102.589 22.7317 102.604 22.8076 102.633 22.8522C102.663 22.8968 102.707 22.9191 102.765 22.9191C102.818 22.9191 102.874 22.9057 102.936 22.879C102.998 22.8509 103.05 22.8197 103.091 22.7852L103.182 23.1716C103.126 23.2111 103.045 23.2443 102.939 23.2711C102.835 23.2991 102.748 23.3131 102.677 23.3131ZM104.272 23.3055C104.067 23.3055 103.897 23.2621 103.763 23.1754C103.63 23.0874 103.531 22.9701 103.469 22.8235C103.408 22.6769 103.377 22.5111 103.377 22.3262C103.377 22.1375 103.412 21.966 103.48 21.8117C103.551 21.6561 103.653 21.5331 103.786 21.4425C103.92 21.3507 104.08 21.3048 104.265 21.3048C104.54 21.3048 104.737 21.3845 104.856 21.5439C104.974 21.702 105.034 21.9386 105.034 22.2535C105.034 22.3147 105.031 22.3836 105.026 22.4601H103.878C103.886 22.6144 103.929 22.7336 104.006 22.8178C104.085 22.9006 104.201 22.9421 104.353 22.9421C104.432 22.9421 104.516 22.9249 104.607 22.8904C104.698 22.8547 104.764 22.812 104.808 22.7623L104.961 23.1257C104.781 23.2456 104.552 23.3055 104.272 23.3055ZM104.548 22.1617C104.548 21.9743 104.524 21.8455 104.477 21.7753C104.431 21.7039 104.364 21.6682 104.276 21.6682C104.152 21.6682 104.056 21.7141 103.987 21.8059C103.92 21.8977 103.882 22.0163 103.874 22.1617H104.548ZM108.48 20.5436V23.2558H108.006V22.112L108.023 21.6606L107.887 21.8671L107.363 22.483L106.839 21.8671L106.703 21.6606L106.724 22.112V23.2558H106.25V20.5436H106.288L107.367 21.8155L108.438 20.5436H108.48ZM109.467 23.3093C109.354 23.3093 109.258 23.2838 109.18 23.2328C109.102 23.1818 109.044 23.113 109.004 23.0262C108.966 22.9395 108.947 22.8426 108.947 22.7355C108.947 22.6424 108.977 22.55 109.039 22.4582C109.101 22.3651 109.211 22.286 109.369 22.221C109.528 22.156 109.741 22.1234 110.01 22.1234V22.0355C110.01 21.9309 109.985 21.8499 109.934 21.7925C109.884 21.7352 109.796 21.7065 109.67 21.7065C109.57 21.7065 109.473 21.7237 109.377 21.7581C109.283 21.7913 109.213 21.8327 109.169 21.8824L109.016 21.5152C109.102 21.4565 109.21 21.4068 109.339 21.366C109.468 21.3252 109.605 21.3048 109.75 21.3048C109.932 21.3048 110.077 21.3329 110.182 21.389C110.289 21.4451 110.365 21.5241 110.408 21.6261C110.451 21.7282 110.473 21.8544 110.473 22.0049V23.2558H110.064L110.029 22.9842C109.962 23.0938 109.881 23.1754 109.788 23.229C109.697 23.2825 109.589 23.3093 109.467 23.3093ZM109.67 22.9421C109.728 22.9421 109.79 22.9185 109.855 22.8713C109.92 22.8241 109.972 22.7648 110.01 22.6934V22.4218C109.992 22.4193 109.962 22.418 109.918 22.418C109.79 22.418 109.674 22.4397 109.572 22.483C109.471 22.5251 109.421 22.594 109.421 22.6896C109.421 22.7801 109.441 22.8452 109.48 22.8847C109.521 22.923 109.584 22.9421 109.67 22.9421ZM112 21.3048C112.19 21.3048 112.333 21.3654 112.428 21.4865C112.525 21.6064 112.574 21.7766 112.574 21.9972V23.2558H112.084V22.0393C112.084 21.9309 112.061 21.8448 112.015 21.7811C111.969 21.716 111.902 21.6835 111.812 21.6835C111.752 21.6835 111.696 21.6988 111.644 21.7294C111.593 21.76 111.552 21.8027 111.522 21.8576C111.491 21.9111 111.476 21.9717 111.476 22.0393V23.2558H110.986V21.3507H111.43L111.439 21.6013C111.571 21.4036 111.757 21.3048 112 21.3048ZM113.505 23.3093C113.392 23.3093 113.296 23.2838 113.218 23.2328C113.141 23.1818 113.082 23.113 113.042 23.0262C113.004 22.9395 112.985 22.8426 112.985 22.7355C112.985 22.6424 113.016 22.55 113.077 22.4582C113.139 22.3651 113.25 22.286 113.408 22.221C113.566 22.156 113.78 22.1234 114.049 22.1234V22.0355C114.049 21.9309 114.023 21.8499 113.972 21.7925C113.922 21.7352 113.834 21.7065 113.708 21.7065C113.609 21.7065 113.511 21.7237 113.415 21.7581C113.321 21.7913 113.252 21.8327 113.207 21.8824L113.054 21.5152C113.141 21.4565 113.248 21.4068 113.377 21.366C113.506 21.3252 113.643 21.3048 113.788 21.3048C113.971 21.3048 114.115 21.3329 114.221 21.389C114.328 21.4451 114.403 21.5241 114.446 21.6261C114.49 21.7282 114.511 21.8544 114.511 22.0049V23.2558H114.102L114.068 22.9842C114 23.0938 113.92 23.1754 113.827 23.229C113.735 23.2825 113.628 23.3093 113.505 23.3093ZM113.708 22.9421C113.767 22.9421 113.829 22.9185 113.894 22.8713C113.959 22.8241 114.01 22.7648 114.049 22.6934V22.4218C114.031 22.4193 114 22.418 113.957 22.418C113.828 22.418 113.713 22.4397 113.611 22.483C113.51 22.5251 113.459 22.594 113.459 22.6896C113.459 22.7801 113.479 22.8452 113.519 22.8847C113.56 22.923 113.623 22.9421 113.708 22.9421ZM115.288 23.5848C115.407 23.6587 115.539 23.6957 115.686 23.6957C115.851 23.6957 115.973 23.653 116.053 23.5675C116.135 23.4821 116.176 23.3476 116.176 23.164V22.8656C116.144 22.9829 116.088 23.0811 116.009 23.1601C115.93 23.2392 115.82 23.2787 115.678 23.2787C115.528 23.2787 115.395 23.2449 115.279 23.1773C115.164 23.1098 115.073 23.0033 115.005 22.8579C114.939 22.7126 114.906 22.5289 114.906 22.3071C114.906 22.0814 114.939 21.8939 115.005 21.7447C115.071 21.5943 115.162 21.4833 115.277 21.4119C115.392 21.3405 115.522 21.3048 115.667 21.3048C115.766 21.3048 115.852 21.3227 115.923 21.3584C115.996 21.3941 116.053 21.4406 116.094 21.498C116.136 21.5541 116.163 21.6147 116.176 21.6797L116.229 21.3507H116.604V23.164C116.604 23.3603 116.571 23.5293 116.505 23.6708C116.438 23.8136 116.34 23.9227 116.21 23.9979C116.08 24.0744 115.921 24.1127 115.732 24.1127C115.593 24.1127 115.467 24.0954 115.353 24.061C115.241 24.0279 115.148 23.989 115.074 23.9443L115.288 23.5848ZM115.774 22.9038C115.886 22.9038 115.974 22.8515 116.036 22.747C116.099 22.6412 116.13 22.492 116.13 22.2994C116.13 22.1107 116.101 21.9621 116.044 21.8538C115.988 21.7454 115.903 21.6912 115.789 21.6912C115.719 21.6912 115.655 21.7116 115.596 21.7524C115.538 21.7932 115.49 21.8595 115.453 21.9513C115.417 22.0418 115.399 22.1591 115.399 22.3032C115.399 22.5022 115.433 22.652 115.501 22.7527C115.569 22.8535 115.661 22.9038 115.774 22.9038ZM117.93 23.3055C117.725 23.3055 117.555 23.2621 117.421 23.1754C117.287 23.0874 117.189 22.9701 117.127 22.8235C117.066 22.6769 117.035 22.5111 117.035 22.3262C117.035 22.1375 117.069 21.966 117.138 21.8117C117.208 21.6561 117.31 21.5331 117.444 21.4425C117.578 21.3507 117.738 21.3048 117.923 21.3048C118.198 21.3048 118.395 21.3845 118.514 21.5439C118.632 21.702 118.691 21.9386 118.691 22.2535C118.691 22.3147 118.689 22.3836 118.684 22.4601H117.536C117.544 22.6144 117.587 22.7336 117.664 22.8178C117.743 22.9006 117.859 22.9421 118.011 22.9421C118.09 22.9421 118.174 22.9249 118.265 22.8904C118.355 22.8547 118.422 22.812 118.466 22.7623L118.619 23.1257C118.439 23.2456 118.209 23.3055 117.93 23.3055ZM118.206 22.1617C118.206 21.9743 118.182 21.8455 118.135 21.7753C118.089 21.7039 118.022 21.6682 117.934 21.6682C117.81 21.6682 117.714 21.7141 117.645 21.8059C117.578 21.8977 117.54 22.0163 117.532 22.1617H118.206ZM121.26 21.3048C121.448 21.3048 121.589 21.3654 121.685 21.4865C121.782 21.6064 121.83 21.7766 121.83 21.9972V23.2558H121.345V22.0469C121.345 21.936 121.323 21.8493 121.28 21.7868C121.237 21.7231 121.172 21.6912 121.084 21.6912C121.024 21.6912 120.967 21.7065 120.912 21.7371C120.859 21.7677 120.815 21.8104 120.782 21.8652C120.749 21.9188 120.732 21.9794 120.732 22.0469V23.2558H120.243V22.0469C120.243 21.9386 120.219 21.8512 120.17 21.7849C120.123 21.7173 120.055 21.6835 119.967 21.6835C119.906 21.6835 119.85 21.6995 119.799 21.7313C119.748 21.7619 119.707 21.8053 119.677 21.8614C119.646 21.9162 119.631 21.9781 119.631 22.0469V23.2558H119.141V21.3507H119.581L119.593 21.6032C119.721 21.4043 119.909 21.3048 120.155 21.3048C120.282 21.3048 120.389 21.3329 120.474 21.389C120.561 21.4451 120.626 21.5267 120.669 21.6338C120.799 21.4145 120.996 21.3048 121.26 21.3048ZM123.153 23.3055C122.947 23.3055 122.778 23.2621 122.644 23.1754C122.51 23.0874 122.412 22.9701 122.349 22.8235C122.288 22.6769 122.258 22.5111 122.258 22.3262C122.258 22.1375 122.292 21.966 122.361 21.8117C122.431 21.6561 122.533 21.5331 122.667 21.4425C122.801 21.3507 122.96 21.3048 123.145 21.3048C123.421 21.3048 123.618 21.3845 123.736 21.5439C123.855 21.702 123.914 21.9386 123.914 22.2535C123.914 22.3147 123.911 22.3836 123.906 22.4601H122.759C122.766 22.6144 122.809 22.7336 122.887 22.8178C122.966 22.9006 123.081 22.9421 123.233 22.9421C123.312 22.9421 123.397 22.9249 123.487 22.8904C123.578 22.8547 123.645 22.812 123.688 22.7623L123.841 23.1257C123.662 23.2456 123.432 23.3055 123.153 23.3055ZM123.428 22.1617C123.428 21.9743 123.405 21.8455 123.357 21.7753C123.312 21.7039 123.245 21.6682 123.157 21.6682C123.033 21.6682 122.937 21.7141 122.868 21.8059C122.8 21.8977 122.763 22.0163 122.755 22.1617H123.428ZM125.377 21.3048C125.567 21.3048 125.71 21.3654 125.806 21.4865C125.903 21.6064 125.951 21.7766 125.951 21.9972V23.2558H125.462V22.0393C125.462 21.9309 125.439 21.8448 125.393 21.7811C125.347 21.716 125.279 21.6835 125.19 21.6835C125.13 21.6835 125.074 21.6988 125.022 21.7294C124.971 21.76 124.93 21.8027 124.899 21.8576C124.869 21.9111 124.853 21.9717 124.853 22.0393V23.2558H124.364V21.3507H124.807L124.817 21.6013C124.948 21.4036 125.135 21.3048 125.377 21.3048ZM127.128 23.3131C126.986 23.3131 126.875 23.2889 126.795 23.2405C126.715 23.192 126.658 23.1193 126.625 23.0224C126.593 22.9242 126.577 22.7954 126.577 22.6361V21.7524H126.328V21.3507H126.596L126.623 20.949L127.04 20.7692V21.3507H127.51V21.7524H127.04V22.6246C127.04 22.7317 127.055 22.8076 127.084 22.8522C127.113 22.8968 127.157 22.9191 127.216 22.9191C127.268 22.9191 127.325 22.9057 127.386 22.879C127.449 22.8509 127.5 22.8197 127.541 22.7852L127.633 23.1716C127.577 23.2111 127.496 23.2443 127.39 23.2711C127.285 23.2991 127.198 23.3131 127.128 23.3131ZM129.404 23.2978C129.286 23.2978 129.174 23.2838 129.068 23.2558C128.963 23.2277 128.871 23.1914 128.792 23.1467C128.713 23.1021 128.651 23.0556 128.605 23.0071L128.8 22.6054C128.829 22.6437 128.874 22.6845 128.934 22.7279C128.994 22.7712 129.062 22.8082 129.139 22.8388C129.216 22.8694 129.293 22.8847 129.37 22.8847C129.471 22.8847 129.555 22.8573 129.622 22.8025C129.691 22.7464 129.726 22.6679 129.726 22.5672C129.726 22.5022 129.71 22.4461 129.678 22.3989C129.647 22.3504 129.606 22.3077 129.554 22.2707C129.503 22.2325 129.424 22.1808 129.316 22.1158C129.17 22.0265 129.055 21.9507 128.972 21.8882C128.889 21.8244 128.817 21.7415 128.756 21.6395C128.696 21.5362 128.666 21.4119 128.666 21.2666C128.666 21.125 128.696 21 128.756 20.8917C128.817 20.782 128.907 20.6966 129.026 20.6354C129.144 20.5742 129.287 20.5436 129.454 20.5436C129.726 20.5436 129.953 20.6264 130.135 20.7922L129.921 21.1824C129.899 21.1518 129.867 21.1186 129.823 21.0829C129.78 21.046 129.728 21.0147 129.666 20.9892C129.605 20.9624 129.541 20.949 129.473 20.949C129.375 20.949 129.299 20.9777 129.244 21.0351C129.19 21.0912 129.163 21.162 129.163 21.2474C129.163 21.3125 129.179 21.3705 129.211 21.4215C129.244 21.4712 129.287 21.5158 129.339 21.5554C129.393 21.5949 129.464 21.6414 129.554 21.695C129.716 21.7906 129.839 21.871 129.925 21.936C130.01 22.001 130.082 22.0839 130.139 22.1847C130.198 22.2841 130.227 22.4065 130.227 22.5519C130.227 22.7062 130.194 22.8394 130.127 22.9516C130.061 23.0639 129.966 23.1499 129.842 23.2099C129.719 23.2685 129.573 23.2978 129.404 23.2978ZM131.401 23.294C131.215 23.294 131.056 23.2545 130.925 23.1754C130.793 23.0964 130.693 22.9829 130.624 22.835C130.556 22.6858 130.521 22.5073 130.521 22.2994C130.521 22.0916 130.556 21.913 130.626 21.7639C130.698 21.6147 130.8 21.5012 130.934 21.4234C131.069 21.3443 131.23 21.3048 131.416 21.3048C131.601 21.3048 131.758 21.3456 131.887 21.4272C132.017 21.5076 132.115 21.6223 132.181 21.7715C132.248 21.9207 132.281 22.0967 132.281 22.2994C132.281 22.5009 132.246 22.6769 132.177 22.8273C132.109 22.9765 132.008 23.0919 131.875 23.1735C131.744 23.2539 131.586 23.294 131.401 23.294ZM131.409 22.9115C131.527 22.9115 131.617 22.8598 131.678 22.7566C131.741 22.6533 131.772 22.5009 131.772 22.2994C131.772 22.0967 131.741 21.9437 131.678 21.8404C131.617 21.7358 131.527 21.6835 131.409 21.6835C131.284 21.6835 131.189 21.7326 131.126 21.8308C131.062 21.929 131.03 22.0852 131.03 22.2994C131.03 22.5136 131.062 22.6692 131.126 22.7661C131.189 22.863 131.284 22.9115 131.409 22.9115ZM132.751 21.7524H132.495V21.3507H132.751V20.9988C132.751 20.8164 132.785 20.6723 132.852 20.5665C132.92 20.4607 133.002 20.388 133.099 20.3485C133.196 20.3076 133.296 20.2872 133.398 20.2872C133.506 20.2872 133.594 20.2968 133.662 20.3159C133.73 20.3351 133.774 20.3536 133.792 20.3714V20.7884C133.765 20.7552 133.723 20.7291 133.667 20.71C133.612 20.6908 133.562 20.6813 133.516 20.6813C133.315 20.6813 133.214 20.7833 133.214 20.9873V21.3507H133.677V21.7524H133.214V23.2558H132.751V21.7524ZM134.685 23.3131C134.544 23.3131 134.433 23.2889 134.353 23.2405C134.272 23.192 134.215 23.1193 134.182 23.0224C134.15 22.9242 134.134 22.7954 134.134 22.6361V21.7524H133.886V21.3507H134.154L134.18 20.949L134.597 20.7692V21.3507H135.068V21.7524H134.597V22.6246C134.597 22.7317 134.612 22.8076 134.641 22.8522C134.671 22.8968 134.715 22.9191 134.773 22.9191C134.826 22.9191 134.882 22.9057 134.944 22.879C135.006 22.8509 135.058 22.8197 135.098 22.7852L135.19 23.1716C135.134 23.2111 135.053 23.2443 134.947 23.2711C134.843 23.2991 134.755 23.3131 134.685 23.3131ZM135.285 21.3507H135.771L136 22.2573L136.099 22.659L136.184 22.2573L136.432 21.3507H136.83L137.094 22.2573L137.194 22.659L137.282 22.2573L137.503 21.3507H137.974L137.373 23.2558H136.987L136.681 22.2191L136.62 21.9092L136.559 22.2191L136.275 23.2558H135.893L135.285 21.3507ZM138.662 23.3093C138.548 23.3093 138.453 23.2838 138.375 23.2328C138.297 23.1818 138.239 23.113 138.199 23.0262C138.161 22.9395 138.142 22.8426 138.142 22.7355C138.142 22.6424 138.172 22.55 138.233 22.4582C138.296 22.3651 138.406 22.286 138.564 22.221C138.722 22.156 138.936 22.1234 139.205 22.1234V22.0355C139.205 21.9309 139.18 21.8499 139.129 21.7925C139.079 21.7352 138.991 21.7065 138.865 21.7065C138.765 21.7065 138.668 21.7237 138.572 21.7581C138.478 21.7913 138.408 21.8327 138.364 21.8824L138.211 21.5152C138.297 21.4565 138.405 21.4068 138.534 21.366C138.663 21.3252 138.8 21.3048 138.945 21.3048C139.127 21.3048 139.271 21.3329 139.377 21.389C139.484 21.4451 139.56 21.5241 139.603 21.6261C139.646 21.7282 139.668 21.8544 139.668 22.0049V23.2558H139.259L139.224 22.9842C139.157 23.0938 139.076 23.1754 138.983 23.229C138.891 23.2825 138.784 23.3093 138.662 23.3093ZM138.865 22.9421C138.923 22.9421 138.985 22.9185 139.05 22.8713C139.115 22.8241 139.167 22.7648 139.205 22.6934V22.4218C139.187 22.4193 139.157 22.418 139.113 22.418C138.985 22.418 138.869 22.4397 138.767 22.483C138.666 22.5251 138.616 22.594 138.616 22.6896C138.616 22.7801 138.636 22.8452 138.675 22.8847C138.716 22.923 138.779 22.9421 138.865 22.9421ZM140.162 21.3507H140.594L140.617 21.6873C140.658 21.5892 140.722 21.505 140.81 21.4349C140.898 21.3635 141.022 21.3278 141.183 21.3278C141.247 21.3278 141.306 21.338 141.359 21.3584L141.252 21.8595C141.23 21.8378 141.204 21.8225 141.174 21.8136C141.144 21.8034 141.108 21.7983 141.065 21.7983C140.975 21.7983 140.898 21.8174 140.833 21.8557C140.769 21.8926 140.721 21.936 140.688 21.9857C140.656 22.0355 140.64 22.0763 140.64 22.1081V23.2558H140.162V21.3507ZM142.377 23.3055C142.172 23.3055 142.002 23.2621 141.868 23.1754C141.734 23.0874 141.636 22.9701 141.574 22.8235C141.512 22.6769 141.482 22.5111 141.482 22.3262C141.482 22.1375 141.516 21.966 141.585 21.8117C141.655 21.6561 141.757 21.5331 141.891 21.4425C142.025 21.3507 142.184 21.3048 142.369 21.3048C142.645 21.3048 142.842 21.3845 142.96 21.5439C143.079 21.702 143.138 21.9386 143.138 22.2535C143.138 22.3147 143.136 22.3836 143.131 22.4601H141.983C141.991 22.6144 142.033 22.7336 142.111 22.8178C142.19 22.9006 142.306 22.9421 142.457 22.9421C142.536 22.9421 142.621 22.9249 142.712 22.8904C142.802 22.8547 142.869 22.812 142.913 22.7623L143.066 23.1257C142.886 23.2456 142.656 23.3055 142.377 23.3055ZM142.652 22.1617C142.652 21.9743 142.629 21.8455 142.582 21.7753C142.536 21.7039 142.469 21.6682 142.381 21.6682C142.257 21.6682 142.161 21.7141 142.092 21.8059C142.024 21.8977 141.987 22.0163 141.979 22.1617H142.652Z" fill="#504D55"/>
<path d="M93.7241 8.44991C93.458 8.62287 93.1017 8.5425 92.912 8.28776C91.374 6.22313 88.8924 5.1754 86.404 5.34854C86.0043 5.37634 85.8065 5.81818 86.0191 6.15631L88.3564 9.8738C88.4463 10.0169 88.4028 10.2051 88.2589 10.2941C88.1152 10.383 87.9256 10.3392 87.8355 10.196L85.1655 5.9493C85.0325 5.73771 84.775 5.63541 84.5373 5.71369C83.9698 5.9005 83.4146 6.1564 82.884 6.4847C82.312 6.83852 81.8043 7.25499 81.3627 7.71832C81.1931 7.89631 81.1751 8.16621 81.3063 8.37475L83.9591 12.5941C84.049 12.7372 84.0055 12.9254 83.8616 13.0144C83.7177 13.1034 83.5282 13.0595 83.4382 12.9163L81.1356 9.2539C80.9207 8.91215 80.4272 8.89834 80.231 9.24975C79.0469 11.3714 78.9356 13.9871 80.1105 16.222C80.2559 16.4985 80.1775 16.8454 79.9117 17.0098L79.4324 17.3063C79.1666 17.4708 79.086 17.8185 79.2524 18.0831L79.3788 18.2842C79.5452 18.5488 79.8955 18.63 80.1613 18.4655L94.822 9.39594C95.0878 9.23152 95.1684 8.88375 95.0021 8.61917L94.8638 8.39928C94.6948 8.13053 94.3369 8.05172 94.0707 8.22467L93.7241 8.44991Z" fill="#DE0C0C"/>
<path d="M85.042 17.4031C86.1814 19.1304 88.5391 19.615 90.3326 18.5056C92.1309 17.3932 92.7592 14.9595 91.5779 13.1694C91.5719 13.1603 91.5637 13.1488 91.5506 13.1303C91.3729 12.8804 91.0322 12.8041 90.7716 12.9653L85.1193 16.4616C84.8587 16.6228 84.7736 16.9622 84.9309 17.2251C84.9747 17.2982 85.0064 17.3491 85.042 17.4031Z" fill="#DE0C0C"/>
<path d="M95.4908 13.0339C95.4113 12.7804 95.5001 12.501 95.7235 12.3563L96.3878 11.9259C96.6502 11.7558 96.7234 11.4061 96.5511 11.1451L96.0554 10.3936C95.8865 10.1377 95.5437 10.0612 95.2821 10.2211L92.31 12.0382C92.0577 12.1925 92.0184 12.5239 92.1811 12.771C93.5832 14.8963 92.8532 17.7908 90.714 19.1141C88.5872 20.4297 85.7878 19.8486 84.4312 17.7927C84.4064 17.755 84.3831 17.7185 84.3612 17.6828C84.1769 17.3834 83.7877 17.2485 83.4877 17.432L80.6082 19.1926C80.3364 19.3588 80.2569 19.7154 80.4323 19.9813L81.1756 21.1079C81.3476 21.3686 81.6993 21.4423 81.9614 21.2725L82.6144 20.8494C82.8362 20.7056 83.1277 20.7358 83.3295 20.9075C83.769 21.2817 84.2474 21.6008 84.7531 21.8625C84.9927 21.9865 85.1295 22.2509 85.0718 22.5125L84.9137 23.2287C84.8456 23.5375 85.0465 23.8424 85.359 23.9043L87.3838 24.3057C87.6868 24.3657 87.9817 24.1744 88.0478 23.875L88.2143 23.1204C88.2706 22.8653 88.4962 22.6849 88.7584 22.6652C89.3372 22.6216 89.9173 22.5097 90.4825 22.33C90.7407 22.2479 91.0275 22.3395 91.1735 22.5672L91.5382 23.1361C91.7064 23.3985 92.0561 23.4771 92.3204 23.3118L94.1081 22.1938C94.3763 22.0261 94.4533 21.6722 94.2791 21.4082L93.8803 20.8035C93.7334 20.5808 93.7644 20.2884 93.9407 20.089C94.3346 19.6436 94.6714 19.1595 94.9485 18.6489C95.0721 18.4211 95.3274 18.291 95.5834 18.3418L96.3533 18.4944C96.6563 18.5544 96.9512 18.3632 97.0173 18.0638L97.4574 16.0696C97.5259 15.7593 97.3227 15.4533 97.0082 15.3933L96.2796 15.2542C96.011 15.2029 95.8192 14.9688 95.8015 14.6979C95.765 14.1381 95.6614 13.5784 95.4908 13.0339Z" fill="#504D55"/>
</svg>
