<svg width="194" height="79" viewBox="0 0 194 79" fill="none" xmlns="http://www.w3.org/2000/svg">
<path d="M67.8218 51.2192V45.5191L93.034 45.5629C94.3202 45.5629 95.2994 45.2706 95.9717 44.686C96.6733 44.0721 97.0241 43.0929 97.0241 41.7482C97.0241 40.4036 96.6733 39.4389 95.9717 38.8543C95.2994 38.2404 94.3202 37.9335 93.034 37.9335H77.3366C74.0919 37.9335 71.5634 37.1589 69.751 35.6096C67.9679 34.0311 67.0763 31.7218 67.0763 28.6817C67.0763 25.6416 67.9679 23.3469 69.751 21.7977C71.5634 20.2192 74.0919 19.4299 77.3366 19.4299H101.979V25.1301L78.082 25.0862C76.8251 25.0862 75.8458 25.3785 75.1443 25.9632C74.4427 26.5186 74.0919 27.4247 74.0919 28.6817C74.0919 29.9387 74.4427 30.8595 75.1443 31.4441C75.8458 31.9995 76.8251 32.2772 78.082 32.2772H93.7794C97.0241 32.2772 99.538 33.0811 101.321 34.6888C103.133 36.2673 104.04 38.6204 104.04 41.7482C104.04 44.8468 103.133 47.1999 101.321 48.8076C99.538 50.4154 97.0241 51.2192 93.7794 51.2192H67.8218ZM108.438 51V19.6492H114.314L128.827 29.8217H129.047L143.56 19.6492H149.436V51H142.42V28.4186L132.467 35.0834V51H125.451V35.0834L115.454 28.4186V51H108.438ZM154.574 51.2192V45.5191L179.787 45.5629C181.073 45.5629 182.052 45.2706 182.724 44.686C183.426 44.0721 183.777 43.0929 183.777 41.7482C183.777 40.4036 183.426 39.4389 182.724 38.8543C182.052 38.2404 181.073 37.9335 179.787 37.9335H164.089C160.845 37.9335 158.316 37.1589 156.504 35.6096C154.721 34.0311 153.829 31.7218 153.829 28.6817C153.829 25.6416 154.721 23.3469 156.504 21.7977C158.316 20.2192 160.845 19.4299 164.089 19.4299H188.731V25.1301L164.835 25.0862C163.578 25.0862 162.598 25.3785 161.897 25.9632C161.195 26.5186 160.845 27.4247 160.845 28.6817C160.845 29.9387 161.195 30.8595 161.897 31.4441C162.598 31.9995 163.578 32.2772 164.835 32.2772H180.532C183.777 32.2772 186.291 33.0811 188.074 34.6888C189.886 36.2673 190.792 38.6204 190.792 41.7482C190.792 44.8468 189.886 47.1999 188.074 48.8076C186.291 50.4154 183.777 51.2192 180.532 51.2192H154.574Z" fill="#DE0C0C"/>
<path d="M69.2741 64.238C68.942 64.238 68.6278 64.1988 68.3314 64.1202C68.0386 64.0416 67.7815 63.9399 67.5601 63.8149C67.3388 63.6899 67.1638 63.5596 67.0353 63.4239L67.5816 62.2992C67.6637 62.4063 67.7887 62.5205 67.9565 62.6419C68.1243 62.7633 68.3153 62.8669 68.5296 62.9526C68.7474 63.0383 68.9634 63.0811 69.1777 63.0811C69.4597 63.0811 69.6954 63.0044 69.8847 62.8508C70.0775 62.6937 70.1739 62.4741 70.1739 62.192C70.1739 62.0099 70.1292 61.8528 70.04 61.7207C69.9543 61.585 69.8382 61.4654 69.6918 61.3619C69.549 61.2547 69.3276 61.1101 69.0277 60.928C68.6171 60.6781 68.2957 60.4656 68.0636 60.2907C67.8315 60.1121 67.6298 59.88 67.4584 59.5944C67.2906 59.3052 67.2067 58.957 67.2067 58.55C67.2067 58.1536 67.2906 57.8037 67.4584 57.5002C67.6298 57.1931 67.8815 56.9539 68.2136 56.7825C68.5457 56.6111 68.9456 56.5254 69.4133 56.5254C70.1739 56.5254 70.8095 56.7575 71.3201 57.2217L70.7202 58.3143C70.6595 58.2286 70.5684 58.1358 70.447 58.0358C70.3256 57.9322 70.1792 57.8448 70.0078 57.7733C69.8364 57.6984 69.6561 57.6609 69.4669 57.6609C69.1919 57.6609 68.9777 57.7412 68.8242 57.9019C68.6742 58.059 68.5992 58.2572 68.5992 58.4964C68.5992 58.6785 68.6438 58.841 68.7331 58.9838C68.8259 59.1231 68.9456 59.248 69.092 59.3587C69.2419 59.4694 69.4419 59.5997 69.6918 59.7497C70.1453 60.0175 70.4917 60.2425 70.7309 60.4246C70.9701 60.6067 71.1701 60.8388 71.3308 61.1208C71.495 61.3994 71.5771 61.7421 71.5771 62.1492C71.5771 62.5812 71.4843 62.9544 71.2986 63.2686C71.113 63.5828 70.8469 63.8238 70.5006 63.9917C70.1542 64.1559 69.7454 64.238 69.2741 64.238ZM72.7009 56.4933H74.2006V57.918H72.7009V56.4933ZM72.7545 58.7856H74.147V64.1202H72.7545V58.7856ZM77.5028 64.2809C77.1065 64.2809 76.7958 64.213 76.5709 64.0774C76.3459 63.9417 76.187 63.7381 76.0942 63.4668C76.0049 63.1918 75.9603 62.8312 75.9603 62.3849V59.9104H75.264V58.7856H76.0138L76.0888 57.6609L77.2564 57.1574V58.7856H78.574V59.9104H77.2564V62.3527C77.2564 62.6527 77.2975 62.8651 77.3796 62.9901C77.4617 63.1151 77.5849 63.1775 77.7492 63.1775C77.8956 63.1775 78.0545 63.1401 78.2259 63.0651C78.4008 62.9865 78.5454 62.899 78.6597 62.8026L78.9168 63.8845C78.7597 63.9952 78.5329 64.0881 78.2366 64.163C77.9438 64.2416 77.6992 64.2809 77.5028 64.2809ZM81.9687 64.2595C81.3938 64.2595 80.9189 64.1381 80.544 63.8952C80.1691 63.6489 79.8941 63.3204 79.7192 62.9097C79.5478 62.4991 79.4621 62.0349 79.4621 61.5172C79.4621 60.9887 79.5585 60.5085 79.7513 60.0764C79.9477 59.6408 80.2334 59.2962 80.6083 59.0427C80.9832 58.7856 81.4295 58.6571 81.9473 58.6571C82.7185 58.6571 83.2702 58.8803 83.6023 59.3266C83.9343 59.7693 84.1004 60.4317 84.1004 61.3137C84.1004 61.4851 84.0932 61.6779 84.079 61.8921H80.8654C80.8868 62.3242 81.0064 62.658 81.2242 62.8937C81.4456 63.1258 81.7687 63.2418 82.1936 63.2418C82.415 63.2418 82.6525 63.1936 82.906 63.0972C83.1595 62.9972 83.347 62.8776 83.4684 62.7384L83.8969 63.756C83.3934 64.0916 82.7507 64.2595 81.9687 64.2595ZM82.74 61.0566C82.74 60.5317 82.6739 60.171 82.5418 59.9747C82.4132 59.7747 82.2258 59.6747 81.9794 59.6747C81.6331 59.6747 81.3635 59.8033 81.1706 60.0604C80.9814 60.3174 80.8761 60.6495 80.8546 61.0566H82.74ZM93.7517 56.5254V64.1202H92.4234V60.9173L92.4716 59.6533L92.0914 60.2317L90.6238 61.9564L89.1563 60.2317L88.776 59.6533L88.8349 60.9173V64.1202H87.5066V56.5254H87.6137L90.6345 60.0871L93.6339 56.5254H93.7517ZM96.5152 64.2702C96.1974 64.2702 95.9296 64.1988 95.7118 64.0559C95.4939 63.9131 95.3297 63.7203 95.219 63.4775C95.1119 63.2347 95.0583 62.9633 95.0583 62.6634C95.0583 62.4027 95.144 62.1438 95.3154 61.8868C95.4904 61.6261 95.7992 61.4047 96.242 61.2226C96.6848 61.0405 97.2828 60.9495 98.0363 60.9495V60.7031C98.0363 60.4103 97.9648 60.1835 97.822 60.0229C97.6828 59.8622 97.4364 59.7818 97.0829 59.7818C96.8044 59.7818 96.5312 59.83 96.2634 59.9265C95.9992 60.0193 95.8046 60.1353 95.6796 60.2746L95.2511 59.2462C95.4939 59.082 95.7957 58.9427 96.1563 58.8285C96.5169 58.7142 96.9008 58.6571 97.3078 58.6571C97.8184 58.6571 98.2219 58.7356 98.5183 58.8928C98.8182 59.0499 99.0289 59.2712 99.1503 59.5569C99.2717 59.8425 99.3324 60.196 99.3324 60.6174V64.1202H98.1862L98.0898 63.3596C97.9006 63.6667 97.6756 63.8952 97.415 64.0452C97.1579 64.1952 96.8579 64.2702 96.5152 64.2702ZM97.0829 63.2418C97.2471 63.2418 97.4203 63.1758 97.6024 63.0436C97.7845 62.9115 97.9291 62.7455 98.0363 62.5455V61.785C97.9863 61.7778 97.9006 61.7743 97.7792 61.7743C97.4185 61.7743 97.0954 61.835 96.8097 61.9564C96.5277 62.0742 96.3866 62.267 96.3866 62.5348C96.3866 62.7883 96.442 62.9704 96.5526 63.0811C96.6669 63.1883 96.8437 63.2418 97.0829 63.2418ZM103.607 58.6571C104.139 58.6571 104.539 58.8267 104.807 59.1659C105.078 59.5015 105.214 59.9782 105.214 60.596V64.1202H103.843V60.7138C103.843 60.4103 103.779 60.1693 103.65 59.9907C103.522 59.8086 103.332 59.7176 103.082 59.7176C102.915 59.7176 102.757 59.7604 102.611 59.8461C102.468 59.9318 102.354 60.0514 102.268 60.205C102.183 60.3549 102.14 60.5245 102.14 60.7138V64.1202H100.769V58.7856H102.011L102.038 59.4873C102.406 58.9338 102.929 58.6571 103.607 58.6571ZM107.823 64.2702C107.506 64.2702 107.238 64.1988 107.02 64.0559C106.802 63.9131 106.638 63.7203 106.527 63.4775C106.42 63.2347 106.367 62.9633 106.367 62.6634C106.367 62.4027 106.452 62.1438 106.624 61.8868C106.799 61.6261 107.107 61.4047 107.55 61.2226C107.993 61.0405 108.591 60.9495 109.345 60.9495V60.7031C109.345 60.4103 109.273 60.1835 109.13 60.0229C108.991 59.8622 108.745 59.7818 108.391 59.7818C108.113 59.7818 107.839 59.83 107.572 59.9265C107.307 60.0193 107.113 60.1353 106.988 60.2746L106.559 59.2462C106.802 59.082 107.104 58.9427 107.465 58.8285C107.825 58.7142 108.209 58.6571 108.616 58.6571C109.127 58.6571 109.53 58.7356 109.827 58.8928C110.126 59.0499 110.337 59.2712 110.459 59.5569C110.58 59.8425 110.641 60.196 110.641 60.6174V64.1202H109.494L109.398 63.3596C109.209 63.6667 108.984 63.8952 108.723 64.0452C108.466 64.1952 108.166 64.2702 107.823 64.2702ZM108.391 63.2418C108.555 63.2418 108.729 63.1758 108.911 63.0436C109.093 62.9115 109.237 62.7455 109.345 62.5455V61.785C109.295 61.7778 109.209 61.7743 109.087 61.7743C108.727 61.7743 108.404 61.835 108.118 61.9564C107.836 62.0742 107.695 62.267 107.695 62.5348C107.695 62.7883 107.75 62.9704 107.861 63.0811C107.975 63.1883 108.152 63.2418 108.391 63.2418ZM112.816 65.0414C113.148 65.2485 113.519 65.3521 113.93 65.3521C114.391 65.3521 114.733 65.2325 114.958 64.9932C115.187 64.754 115.301 64.3773 115.301 63.8631V63.0276C115.212 63.3561 115.057 63.631 114.835 63.8524C114.614 64.0738 114.305 64.1845 113.909 64.1845C113.487 64.1845 113.114 64.0899 112.789 63.9006C112.468 63.7114 112.213 63.4132 112.023 63.0062C111.838 62.5991 111.745 62.0849 111.745 61.4636C111.745 60.8316 111.838 60.3067 112.023 59.889C112.209 59.4676 112.462 59.157 112.784 58.957C113.105 58.7571 113.469 58.6571 113.876 58.6571C114.155 58.6571 114.394 58.7071 114.594 58.8071C114.798 58.907 114.957 59.0374 115.071 59.198C115.189 59.3552 115.265 59.5248 115.301 59.7069L115.451 58.7856H116.501V63.8631C116.501 64.413 116.408 64.8861 116.222 65.2825C116.037 65.6824 115.762 65.9877 115.398 66.1983C115.033 66.4126 114.587 66.5197 114.059 66.5197C113.669 66.5197 113.316 66.4715 112.998 66.3751C112.684 66.2822 112.423 66.1733 112.216 66.0484L112.816 65.0414ZM114.176 63.1347C114.491 63.1347 114.735 62.9883 114.91 62.6955C115.085 62.3991 115.173 61.9814 115.173 61.4422C115.173 60.9137 115.092 60.4978 114.932 60.1943C114.774 59.8908 114.537 59.739 114.219 59.739C114.023 59.739 113.843 59.7961 113.678 59.9104C113.514 60.0247 113.38 60.2103 113.277 60.4674C113.177 60.7209 113.127 61.0494 113.127 61.4529C113.127 62.0099 113.221 62.4295 113.41 62.7116C113.603 62.9937 113.859 63.1347 114.176 63.1347ZM120.214 64.2595C119.639 64.2595 119.164 64.1381 118.789 63.8952C118.414 63.6489 118.139 63.3204 117.964 62.9097C117.793 62.4991 117.707 62.0349 117.707 61.5172C117.707 60.9887 117.804 60.5085 117.996 60.0764C118.193 59.6408 118.478 59.2962 118.853 59.0427C119.228 58.7856 119.675 58.6571 120.192 58.6571C120.964 58.6571 121.515 58.8803 121.847 59.3266C122.179 59.7693 122.346 60.4317 122.346 61.3137C122.346 61.4851 122.338 61.6779 122.324 61.8921H119.111C119.132 62.3242 119.252 62.658 119.469 62.8937C119.691 63.1258 120.014 63.2418 120.439 63.2418C120.66 63.2418 120.898 63.1936 121.151 63.0972C121.405 62.9972 121.592 62.8776 121.714 62.7384L122.142 63.756C121.639 64.0916 120.996 64.2595 120.214 64.2595ZM120.985 61.0566C120.985 60.5317 120.919 60.171 120.787 59.9747C120.658 59.7747 120.471 59.6747 120.225 59.6747C119.878 59.6747 119.609 59.8033 119.416 60.0604C119.227 60.3174 119.121 60.6495 119.1 61.0566H120.985ZM129.539 58.6571C130.064 58.6571 130.46 58.8267 130.728 59.1659C131 59.5015 131.135 59.9782 131.135 60.596V64.1202H129.775V60.7352C129.775 60.4246 129.714 60.1818 129.593 60.0068C129.475 59.8283 129.293 59.739 129.046 59.739C128.879 59.739 128.718 59.7818 128.564 59.8675C128.414 59.9532 128.293 60.0729 128.2 60.2264C128.107 60.3764 128.061 60.546 128.061 60.7352V64.1202H126.69V60.7352C126.69 60.4317 126.622 60.1871 126.486 60.0014C126.354 59.8122 126.165 59.7176 125.919 59.7176C125.747 59.7176 125.59 59.7622 125.447 59.8515C125.304 59.9372 125.19 60.0586 125.104 60.2157C125.019 60.3692 124.976 60.5424 124.976 60.7352V64.1202H123.605V58.7856H124.837L124.869 59.4926C125.229 58.9356 125.754 58.6571 126.443 58.6571C126.801 58.6571 127.099 58.7356 127.338 58.8928C127.581 59.0499 127.763 59.2784 127.884 59.5783C128.248 58.9642 128.8 58.6571 129.539 58.6571ZM134.838 64.2595C134.263 64.2595 133.788 64.1381 133.414 63.8952C133.039 63.6489 132.764 63.3204 132.589 62.9097C132.417 62.4991 132.332 62.0349 132.332 61.5172C132.332 60.9887 132.428 60.5085 132.621 60.0764C132.817 59.6408 133.103 59.2962 133.478 59.0427C133.853 58.7856 134.299 58.6571 134.817 58.6571C135.588 58.6571 136.14 58.8803 136.472 59.3266C136.804 59.7693 136.97 60.4317 136.97 61.3137C136.97 61.4851 136.963 61.6779 136.948 61.8921H133.735C133.756 62.3242 133.876 62.658 134.094 62.8937C134.315 63.1258 134.638 63.2418 135.063 63.2418C135.285 63.2418 135.522 63.1936 135.776 63.0972C136.029 62.9972 136.216 62.8776 136.338 62.7384L136.766 63.756C136.263 64.0916 135.62 64.2595 134.838 64.2595ZM135.609 61.0566C135.609 60.5317 135.543 60.171 135.411 59.9747C135.283 59.7747 135.095 59.6747 134.849 59.6747C134.503 59.6747 134.233 59.8033 134.04 60.0604C133.851 60.3174 133.746 60.6495 133.724 61.0566H135.609ZM141.068 58.6571C141.6 58.6571 142 58.8267 142.268 59.1659C142.539 59.5015 142.675 59.9782 142.675 60.596V64.1202H141.303V60.7138C141.303 60.4103 141.239 60.1693 141.111 59.9907C140.982 59.8086 140.793 59.7176 140.543 59.7176C140.375 59.7176 140.218 59.7604 140.072 59.8461C139.929 59.9318 139.815 60.0514 139.729 60.205C139.643 60.3549 139.6 60.5245 139.6 60.7138V64.1202H138.229V58.7856H139.472L139.499 59.4873C139.866 58.9338 140.389 58.6571 141.068 58.6571ZM145.97 64.2809C145.573 64.2809 145.263 64.213 145.038 64.0774C144.813 63.9417 144.654 63.7381 144.561 63.4668C144.472 63.1918 144.427 62.8312 144.427 62.3849V59.9104H143.731V58.7856H144.481L144.556 57.6609L145.723 57.1574V58.7856H147.041V59.9104H145.723V62.3527C145.723 62.6527 145.764 62.8651 145.846 62.9901C145.928 63.1151 146.052 63.1775 146.216 63.1775C146.362 63.1775 146.521 63.1401 146.693 63.0651C146.868 62.9865 147.012 62.899 147.126 62.8026L147.384 63.8845C147.226 63.9952 147 64.0881 146.703 64.163C146.411 64.2416 146.166 64.2809 145.97 64.2809ZM152.344 64.238C152.012 64.238 151.698 64.1988 151.402 64.1202C151.109 64.0416 150.852 63.9399 150.63 63.8149C150.409 63.6899 150.234 63.5596 150.105 63.4239L150.652 62.2992C150.734 62.4063 150.859 62.5205 151.027 62.6419C151.195 62.7633 151.386 62.8669 151.6 62.9526C151.818 63.0383 152.034 63.0811 152.248 63.0811C152.53 63.0811 152.766 63.0044 152.955 62.8508C153.148 62.6937 153.244 62.4741 153.244 62.192C153.244 62.0099 153.199 61.8528 153.11 61.7207C153.024 61.585 152.908 61.4654 152.762 61.3619C152.619 61.2547 152.398 61.1101 152.098 60.928C151.687 60.6781 151.366 60.4656 151.134 60.2907C150.902 60.1121 150.7 59.88 150.529 59.5944C150.361 59.3052 150.277 58.957 150.277 58.55C150.277 58.1536 150.361 57.8037 150.529 57.5002C150.7 57.1931 150.952 56.9539 151.284 56.7825C151.616 56.6111 152.016 56.5254 152.484 56.5254C153.244 56.5254 153.88 56.7575 154.39 57.2217L153.79 58.3143C153.73 58.2286 153.639 58.1358 153.517 58.0358C153.396 57.9322 153.249 57.8448 153.078 57.7733C152.907 57.6984 152.726 57.6609 152.537 57.6609C152.262 57.6609 152.048 57.7412 151.894 57.9019C151.744 58.059 151.669 58.2572 151.669 58.4964C151.669 58.6785 151.714 58.841 151.803 58.9838C151.896 59.1231 152.016 59.248 152.162 59.3587C152.312 59.4694 152.512 59.5997 152.762 59.7497C153.216 60.0175 153.562 60.2425 153.801 60.4246C154.04 60.6067 154.24 60.8388 154.401 61.1208C154.565 61.3994 154.647 61.7421 154.647 62.1492C154.647 62.5812 154.555 62.9544 154.369 63.2686C154.183 63.5828 153.917 63.8238 153.571 63.9917C153.224 64.1559 152.816 64.238 152.344 64.238ZM157.935 64.2273C157.414 64.2273 156.969 64.1166 156.601 63.8952C156.234 63.6739 155.953 63.3561 155.76 62.9419C155.568 62.5241 155.471 62.0242 155.471 61.4422C155.471 60.8602 155.569 60.3603 155.766 59.9425C155.966 59.5248 156.253 59.207 156.628 58.9892C157.007 58.7678 157.456 58.6571 157.978 58.6571C158.496 58.6571 158.935 58.7713 159.295 58.9999C159.66 59.2248 159.935 59.5462 160.12 59.9639C160.306 60.3817 160.399 60.8745 160.399 61.4422C160.399 62.0064 160.302 62.4991 160.109 62.9205C159.917 63.3382 159.635 63.6614 159.263 63.8899C158.895 64.1148 158.453 64.2273 157.935 64.2273ZM157.956 63.1561C158.288 63.1561 158.54 63.0115 158.712 62.7223C158.887 62.4331 158.974 62.0064 158.974 61.4422C158.974 60.8745 158.887 60.446 158.712 60.1568C158.54 59.864 158.288 59.7176 157.956 59.7176C157.606 59.7176 157.342 59.855 157.164 60.13C156.985 60.4049 156.896 60.8423 156.896 61.4422C156.896 62.0421 156.985 62.4777 157.164 62.7491C157.342 63.0204 157.606 63.1561 157.956 63.1561ZM161.716 59.9104H160.998V58.7856H161.716V57.8001C161.716 57.2895 161.81 56.886 162 56.5897C162.189 56.2933 162.419 56.0898 162.69 55.9791C162.962 55.8648 163.24 55.8077 163.526 55.8077C163.83 55.8077 164.076 55.8345 164.265 55.888C164.458 55.9416 164.579 55.9934 164.629 56.0434V57.211C164.554 57.1181 164.438 57.0449 164.281 56.9914C164.128 56.9378 163.987 56.911 163.858 56.911C163.294 56.911 163.012 57.1967 163.012 57.768V58.7856H164.308V59.9104H163.012V64.1202H161.716V59.9104ZM167.132 64.2809C166.736 64.2809 166.425 64.213 166.2 64.0774C165.975 63.9417 165.816 63.7381 165.723 63.4668C165.634 63.1918 165.589 62.8312 165.589 62.3849V59.9104H164.893V58.7856H165.643L165.718 57.6609L166.886 57.1574V58.7856H168.203V59.9104H166.886V62.3527C166.886 62.6527 166.927 62.8651 167.009 62.9901C167.091 63.1151 167.214 63.1775 167.378 63.1775C167.525 63.1775 167.684 63.1401 167.855 63.0651C168.03 62.9865 168.175 62.899 168.289 62.8026L168.546 63.8845C168.389 63.9952 168.162 64.0881 167.866 64.163C167.573 64.2416 167.328 64.2809 167.132 64.2809ZM168.81 58.7856H170.171L170.813 61.3244L171.092 62.4491L171.328 61.3244L172.024 58.7856H173.138L173.877 61.3244L174.156 62.4491L174.402 61.3244L175.023 58.7856H176.341L174.659 64.1202H173.577L172.72 61.2173L172.549 60.3496L172.377 61.2173L171.585 64.1202H170.513L168.81 58.7856ZM178.267 64.2702C177.949 64.2702 177.682 64.1988 177.464 64.0559C177.246 63.9131 177.082 63.7203 176.971 63.4775C176.864 63.2347 176.81 62.9633 176.81 62.6634C176.81 62.4027 176.896 62.1438 177.068 61.8868C177.243 61.6261 177.551 61.4047 177.994 61.2226C178.437 61.0405 179.035 60.9495 179.788 60.9495V60.7031C179.788 60.4103 179.717 60.1835 179.574 60.0229C179.435 59.8622 179.189 59.7818 178.835 59.7818C178.557 59.7818 178.283 59.83 178.016 59.9265C177.751 60.0193 177.557 60.1353 177.432 60.2746L177.003 59.2462C177.246 59.082 177.548 58.9427 177.908 58.8285C178.269 58.7142 178.653 58.6571 179.06 58.6571C179.571 58.6571 179.974 58.7356 180.27 58.8928C180.57 59.0499 180.781 59.2712 180.902 59.5569C181.024 59.8425 181.085 60.196 181.085 60.6174V64.1202H179.938L179.842 63.3596C179.653 63.6667 179.428 63.8952 179.167 64.0452C178.91 64.1952 178.61 64.2702 178.267 64.2702ZM178.835 63.2418C178.999 63.2418 179.172 63.1758 179.355 63.0436C179.537 62.9115 179.681 62.7455 179.788 62.5455V61.785C179.738 61.7778 179.653 61.7743 179.531 61.7743C179.171 61.7743 178.848 61.835 178.562 61.9564C178.28 62.0742 178.139 62.267 178.139 62.5348C178.139 62.7883 178.194 62.9704 178.305 63.0811C178.419 63.1883 178.596 63.2418 178.835 63.2418ZM182.467 58.7856H183.678L183.742 59.7283C183.856 59.4533 184.036 59.2177 184.283 59.0213C184.529 58.8213 184.877 58.7214 185.327 58.7214C185.506 58.7214 185.67 58.7499 185.82 58.8071L185.52 60.2103C185.459 60.1496 185.386 60.1068 185.3 60.0818C185.218 60.0532 185.117 60.0389 184.995 60.0389C184.745 60.0389 184.529 60.0925 184.347 60.1996C184.169 60.3032 184.033 60.4246 183.94 60.5638C183.851 60.7031 183.806 60.8173 183.806 60.9066V64.1202H182.467V58.7856ZM188.67 64.2595C188.095 64.2595 187.62 64.1381 187.245 63.8952C186.871 63.6489 186.596 63.3204 186.421 62.9097C186.249 62.4991 186.164 62.0349 186.164 61.5172C186.164 60.9887 186.26 60.5085 186.453 60.0764C186.649 59.6408 186.935 59.2962 187.31 59.0427C187.685 58.7856 188.131 58.6571 188.649 58.6571C189.42 58.6571 189.972 58.8803 190.304 59.3266C190.636 59.7693 190.802 60.4317 190.802 61.3137C190.802 61.4851 190.795 61.6779 190.78 61.8921H187.567C187.588 62.3242 187.708 62.658 187.926 62.8937C188.147 63.1258 188.47 63.2418 188.895 63.2418C189.116 63.2418 189.354 63.1936 189.607 63.0972C189.861 62.9972 190.048 62.8776 190.17 62.7384L190.598 63.756C190.095 64.0916 189.452 64.2595 188.67 64.2595ZM189.441 61.0566C189.441 60.5317 189.375 60.171 189.243 59.9747C189.115 59.7747 188.927 59.6747 188.681 59.6747C188.334 59.6747 188.065 59.8033 187.872 60.0604C187.683 60.3174 187.578 60.6495 187.556 61.0566H189.441Z" fill="#504D55"/>
<path d="M52.4307 23.8102C51.687 24.2973 50.693 24.0731 50.1647 23.3582C45.8661 17.5406 38.9178 14.5962 31.946 15.097C30.8304 15.1771 30.2762 16.4193 30.8681 17.3684L37.4005 27.8427C37.6517 28.2456 37.529 28.7762 37.1258 29.0277C36.723 29.2789 36.1923 29.1562 35.9409 28.753L28.4809 16.7914C28.1106 16.1976 27.3926 15.9113 26.7285 16.1321C25.1377 16.6611 23.5812 17.385 22.093 18.3131C20.4892 19.3134 19.0652 20.4902 17.8263 21.7989C17.3522 22.2998 17.3009 23.0581 17.6659 23.6433L25.0778 35.5279C25.329 35.9307 25.2063 36.4614 24.8031 36.7128C24.3999 36.9643 23.8696 36.8414 23.6182 36.4382L17.1824 26.1188C16.5842 25.1595 15.2067 25.123 14.6575 26.1111C11.3293 32.0983 11.0062 39.476 14.2902 45.7734C14.6949 46.5494 14.4744 47.5244 13.7319 47.9875L12.3807 48.8301C11.6381 49.2933 11.4116 50.2707 11.8747 51.0132L12.2334 51.5883C12.6965 52.3309 13.6739 52.5574 14.4164 52.0943L55.5087 26.4668C56.2513 26.0037 56.4778 25.0263 56.0147 24.2837L55.623 23.6556C55.1525 22.9013 54.1538 22.6815 53.4101 23.1686L52.4307 23.8102Z" fill="#DE0C0C"/>
<path d="M28.1163 49.1121C31.299 53.9757 37.8984 55.3312 42.9254 52.1961C47.9658 49.0526 49.736 42.19 46.4366 37.1495C46.4194 37.1231 46.3958 37.0897 46.3574 37.0353C45.8627 36.3341 44.9121 36.121 44.184 36.5751L28.3328 46.4608C27.6048 46.9148 27.3658 47.8687 27.8036 48.6065C27.9273 48.8149 28.0162 48.9592 28.1163 49.1121Z" fill="#DE0C0C"/>
<path d="M57.4014 36.7587C57.1807 36.0469 57.4298 35.2614 58.0538 34.8539L59.9234 33.6328C60.6566 33.1539 60.8623 32.1711 60.3828 31.4384L58.9927 29.3143C58.5226 28.596 57.566 28.3827 56.8353 28.8331L48.5013 33.9704C47.7941 34.4064 47.6826 35.3407 48.137 36.0363C52.0531 42.0201 49.9962 50.1815 44.0005 53.9208C38.0399 57.6382 30.2044 56.013 26.4154 50.2245C26.345 50.1167 26.279 50.0122 26.2167 49.9101C25.7042 49.0695 24.6186 48.6923 23.7805 49.209L15.7006 54.1901C14.9414 54.6582 14.7179 55.6604 15.2063 56.4067L17.2878 59.5872C17.7667 60.319 18.748 60.5244 19.4802 60.0461L21.3181 58.8457C21.9379 58.4409 22.7514 58.5242 23.3135 59.0059C24.5444 60.0606 25.8848 60.9593 27.302 61.6956C27.9702 62.0428 28.3508 62.7851 28.1885 63.5203L27.7408 65.5488C27.5493 66.4166 28.1087 67.2722 28.9804 67.4448L34.6578 68.5689C35.5031 68.7362 36.3272 68.1974 36.5129 67.356L36.9845 65.2196C37.1427 64.5028 37.7732 63.995 38.505 63.9384C40.1285 63.813 41.7561 63.4944 43.3419 62.9843C44.0629 62.7524 44.8629 63.0084 45.2693 63.6475L46.2928 65.2572C46.7611 65.9937 47.7368 66.2129 48.4751 65.7474L53.4943 62.5828C54.2435 62.1105 54.46 61.1158 53.9751 60.3748L52.856 58.6646C52.4471 58.0397 52.5348 57.218 53.0279 56.6571C54.135 55.398 55.0817 54.03 55.8606 52.5872C56.2065 51.9465 56.9199 51.5799 57.6342 51.7214L59.7978 52.1498C60.643 52.3171 61.4671 51.7784 61.6529 50.937L62.8965 45.3047C63.0891 44.4325 62.5232 43.5736 61.6458 43.4064L59.5969 43.016C58.8477 42.8732 58.3134 42.2163 58.2654 41.4551C58.1659 39.875 57.8778 38.295 57.4014 36.7587Z" fill="#504D55"/>
</svg>
